<mxfile host="app.diagrams.net" modified="2023-12-19T08:26:27.519Z" agent="Mozilla/5.0 (Windows NT 10.0; Win64; x64) AppleWebKit/537.36 (KHTML, like Gecko) Chrome/119.0.0.0 Safari/537.36 OPR/105.0.0.0" etag="Z079AXHkfHtARTEFqT6x" version="22.1.11" type="device" pages="3">
  <diagram name="single" id="Ha8s6_4_4nTsxysomdbX">
    <mxGraphModel dx="93" dy="945" grid="1" gridSize="10" guides="1" tooltips="1" connect="1" arrows="1" fold="1" page="1" pageScale="1" pageWidth="827" pageHeight="1169" math="0" shadow="0">
      <root>
        <mxCell id="0" />
        <mxCell id="1" parent="0" />
        <mxCell id="076CTUgDyojn5MFQ2pDV-4" value="VictoriaMetrics Single" style="rounded=1;whiteSpace=wrap;html=1;strokeColor=#7C8A9A;strokeWidth=1;fontColor=#212121;fillColor=none;dashed=1;fontFamily=VK Sans Display;verticalAlign=top;spacing=5;fontStyle=1;arcSize=12;absoluteArcSize=1;fontSize=16;points=[[0,0,0,0,0],[0,0.25,0,0,0],[0,0.5,0,0,0],[0,0.75,0,0,0],[0,1,0,0,0],[0.25,0,0,0,0],[0.25,1,0,0,0],[0.5,0,0,0,0],[0.5,1,0,0,0],[0.75,0,0,0,0],[0.75,1,0,0,0],[1,0,0,0,0],[1,0.25,0,0,0],[1,0.5,0,0,0],[1,0.75,0,0,0],[1,1,0,0,0]];" parent="1" vertex="1">
          <mxGeometry x="1879.25" y="60" width="320" height="310" as="geometry" />
        </mxCell>
        <mxCell id="mH1W3D18dabg6ZcjXpEv-44" value="&lt;b&gt;Virtual machine&lt;/b&gt;" style="rounded=1;whiteSpace=wrap;html=1;fillColor=none;dashed=1;strokeColor=#7C8A9A;;arcSize=12;absoluteArcSize=1;fontFamily=VK Sans Display;verticalAlign=top;spacing=10;fontSize=16;" parent="1" vertex="1">
          <mxGeometry x="1919.25" y="100" width="240" height="240" as="geometry" />
        </mxCell>
        <mxCell id="076CTUgDyojn5MFQ2pDV-5" value="Applications" style="shape=image;verticalLabelPosition=bottom;labelBackgroundColor=default;verticalAlign=top;aspect=fixed;imageAspect=0;image=data:image/svg+xml,PHN2ZyB4bWxucz0iaHR0cDovL3d3dy53My5vcmcvMjAwMC9zdmciIGZpbGw9Im5vbmUiIHZpZXdCb3g9IjAgMCAyOCAyOCIgaGVpZ2h0PSIyOCIgd2lkdGg9IjI4Ij4mI3hhOzxwYXRoIGZpbGw9IiMyNjg4RUIiIGQ9Ik04LjA0MDE2IDNINy45NTk4NEg3Ljk1OTgxQzcuMjkzOTUgMi45OTk5OSA2LjczNDQ0IDIuOTk5OTcgNi4yNzY1NyAzLjAzNzM4QzUuNzk3ODUgMy4wNzY1IDUuMzQyODkgMy4xNjE0NCA0LjkxMTAzIDMuMzgxNDhDNC4yNTI0NyAzLjcxNzA0IDMuNzE3MDQgNC4yNTI0NyAzLjM4MTQ4IDQuOTExMDNDMy4xNjE0NCA1LjM0Mjg5IDMuMDc2NSA1Ljc5Nzg1IDMuMDM3MzggNi4yNzY1N0MyLjk5OTk3IDYuNzM0NDQgMi45OTk5OSA3LjI5Mzk1IDMgNy45NTk4MVY3Ljk1OTg0VjguMDQwMTZWOC4wNDAxOUMyLjk5OTk5IDguNzA2MDUgMi45OTk5NyA5LjI2NTU2IDMuMDM3MzggOS43MjM0M0MzLjA3NjUgMTAuMjAyMSAzLjE2MTQ0IDEwLjY1NzEgMy4zODE0OCAxMS4wODlDMy43MTcwNCAxMS43NDc1IDQuMjUyNDcgMTIuMjgzIDQuOTExMDMgMTIuNjE4NUM1LjM0Mjg5IDEyLjgzODYgNS43OTc4NSAxMi45MjM1IDYuMjc2NTcgMTIuOTYyNkM2LjczNDQ1IDEzIDcuMjkzOTggMTMgNy45NTk4NyAxM0g4LjA0MDE0QzguNzA2MDIgMTMgOS4yNjU1NSAxMyA5LjcyMzQzIDEyLjk2MjZDMTAuMjAyMSAxMi45MjM1IDEwLjY1NzEgMTIuODM4NiAxMS4wODkgMTIuNjE4NUMxMS43NDc1IDEyLjI4MyAxMi4yODMgMTEuNzQ3NSAxMi42MTg1IDExLjA4OUMxMi44Mzg2IDEwLjY1NzEgMTIuOTIzNSAxMC4yMDIxIDEyLjk2MjYgOS43MjM0M0MxMyA5LjI2NTU1IDEzIDguNzA2MDIgMTMgOC4wNDAxNFY3Ljk1OTg3QzEzIDcuMjkzOTggMTMgNi43MzQ0NSAxMi45NjI2IDYuMjc2NTdDMTIuOTIzNSA1Ljc5Nzg1IDEyLjgzODYgNS4zNDI4OSAxMi42MTg1IDQuOTExMDNDMTIuMjgzIDQuMjUyNDcgMTEuNzQ3NSAzLjcxNzA0IDExLjA4OSAzLjM4MTQ4QzEwLjY1NzEgMy4xNjE0NCAxMC4yMDIxIDMuMDc2NSA5LjcyMzQzIDMuMDM3MzhDOS4yNjU1NiAyLjk5OTk3IDguNzA2MDUgMi45OTk5OSA4LjA0MDE5IDNIOC4wNDAxNlpNNS44MTkwMiA1LjE2MzQ5QzUuOTIxOTQgNS4xMTEwNSA2LjA4NDQgNS4wNTk3NSA2LjQzOTQ0IDUuMDMwNzRDNi44MDYxNSA1LjAwMDc4IDcuMjgzNDMgNSA4IDVDOC43MTY1NyA1IDkuMTkzODUgNS4wMDA3OCA5LjU2MDU2IDUuMDMwNzRDOS45MTU2IDUuMDU5NzUgMTAuMDc4MSA1LjExMTA1IDEwLjE4MSA1LjE2MzQ5QzEwLjQ2MzIgNS4zMDczIDEwLjY5MjcgNS41MzY3NyAxMC44MzY1IDUuODE5MDJDMTAuODg5IDUuOTIxOTQgMTAuOTQwMyA2LjA4NDQgMTAuOTY5MyA2LjQzOTQ0QzEwLjk5OTIgNi44MDYxNSAxMSA3LjI4MzQzIDExIDhDMTEgOC43MTY1NyAxMC45OTkyIDkuMTkzODUgMTAuOTY5MyA5LjU2MDU2QzEwLjk0MDMgOS45MTU2IDEwLjg4OSAxMC4wNzgxIDEwLjgzNjUgMTAuMTgxQzEwLjY5MjcgMTAuNDYzMiAxMC40NjMyIDEwLjY5MjcgMTAuMTgxIDEwLjgzNjVDMTAuMDc4MSAxMC44ODkgOS45MTU2IDEwLjk0MDMgOS41NjA1NiAxMC45NjkzQzkuMTkzODUgMTAuOTk5MiA4LjcxNjU3IDExIDggMTFDNy4yODM0MyAxMSA2LjgwNjE1IDEwLjk5OTIgNi40Mzk0NCAxMC45NjkzQzYuMDg0NCAxMC45NDAzIDUuOTIxOTQgMTAuODg5IDUuODE5MDIgMTAuODM2NUM1LjUzNjc3IDEwLjY5MjcgNS4zMDczIDEwLjQ2MzIgNS4xNjM0OSAxMC4xODFDNS4xMTEwNSAxMC4wNzgxIDUuMDU5NzUgOS45MTU2IDUuMDMwNzQgOS41NjA1NkM1LjAwMDc4IDkuMTkzODUgNSA4LjcxNjU3IDUgOEM1IDcuMjgzNDMgNS4wMDA3OCA2LjgwNjE1IDUuMDMwNzQgNi40Mzk0NEM1LjA1OTc1IDYuMDg0NCA1LjExMTA1IDUuOTIxOTQgNS4xNjM0OSA1LjgxOTAyQzUuMzA3MyA1LjUzNjc3IDUuNTM2NzcgNS4zMDczIDUuODE5MDIgNS4xNjM0OVpNOS43MjM0MyAxNS4wMzc0QzkuMjY1NTYgMTUgOC43MDYwMyAxNSA4LjA0MDE2IDE1SDcuOTU5ODRDNy4yOTM5NyAxNSA2LjczNDQ1IDE1IDYuMjc2NTcgMTUuMDM3NEM1Ljc5Nzg1IDE1LjA3NjUgNS4zNDI4OSAxNS4xNjE0IDQuOTExMDMgMTUuMzgxNUM0LjI1MjQ3IDE1LjcxNyAzLjcxNzA0IDE2LjI1MjUgMy4zODE0OCAxNi45MTFDMy4xNjE0NCAxNy4zNDI5IDMuMDc2NSAxNy43OTc5IDMuMDM3MzggMTguMjc2NkMyLjk5OTk3IDE4LjczNDQgMi45OTk5OSAxOS4yOTQgMyAxOS45NTk4VjE5Ljk1OThWMjAuMDQwMlYyMC4wNDAyQzIuOTk5OTkgMjAuNzA2MSAyLjk5OTk3IDIxLjI2NTYgMy4wMzczOCAyMS43MjM0QzMuMDc2NSAyMi4yMDIxIDMuMTYxNDQgMjIuNjU3MSAzLjM4MTQ4IDIzLjA4OUMzLjcxNzA0IDIzLjc0NzUgNC4yNTI0NyAyNC4yODMgNC45MTEwMyAyNC42MTg1QzUuMzQyODkgMjQuODM4NiA1Ljc5Nzg1IDI0LjkyMzUgNi4yNzY1NyAyNC45NjI2QzYuNzM0NDMgMjUgNy4yOTM5NCAyNSA3Ljk1OTc4IDI1SDcuOTU5ODFINy45NTk4NEg3Ljk1OTg3SDguMDQwMTRIOC4wNDAxNkg4LjA0MDE5SDguMDQwMjJDOC43MDYwNyAyNSA5LjI2NTU3IDI1IDkuNzIzNDMgMjQuOTYyNkMxMC4yMDIxIDI0LjkyMzUgMTAuNjU3MSAyNC44Mzg2IDExLjA4OSAyNC42MTg1QzExLjc0NzUgMjQuMjgzIDEyLjI4MyAyMy43NDc1IDEyLjYxODUgMjMuMDg5QzEyLjgzODYgMjIuNjU3MSAxMi45MjM1IDIyLjIwMjEgMTIuOTYyNiAyMS43MjM0QzEzIDIxLjI2NTYgMTMgMjAuNzA2IDEzIDIwLjA0MDFWMTkuOTU5OUMxMyAxOS4yOTQgMTMgMTguNzM0NSAxMi45NjI2IDE4LjI3NjZDMTIuOTIzNSAxNy43OTc5IDEyLjgzODYgMTcuMzQyOSAxMi42MTg1IDE2LjkxMUMxMi4yODMgMTYuMjUyNSAxMS43NDc1IDE1LjcxNyAxMS4wODkgMTUuMzgxNUMxMC42NTcxIDE1LjE2MTQgMTAuMjAyMSAxNS4wNzY1IDkuNzIzNDMgMTUuMDM3NFpNNS44MTkwMiAxNy4xNjM1QzUuOTIxOTQgMTcuMTExIDYuMDg0NCAxNy4wNTk3IDYuNDM5NDQgMTcuMDMwN0M2LjgwNjE1IDE3LjAwMDggNy4yODM0MyAxNyA4IDE3QzguNzE2NTcgMTcgOS4xOTM4NSAxNy4wMDA4IDkuNTYwNTYgMTcuMDMwN0M5LjkxNTYgMTcuMDU5NyAxMC4wNzgxIDE3LjExMSAxMC4xODEgMTcuMTYzNUMxMC40NjMyIDE3LjMwNzMgMTAuNjkyNyAxNy41MzY4IDEwLjgzNjUgMTcuODE5QzEwLjg4OSAxNy45MjE5IDEwLjk0MDMgMTguMDg0NCAxMC45NjkzIDE4LjQzOTRDMTAuOTk5MiAxOC44MDYyIDExIDE5LjI4MzQgMTEgMjBDMTEgMjAuNzE2NiAxMC45OTkyIDIxLjE5MzkgMTAuOTY5MyAyMS41NjA2QzEwLjk0MDMgMjEuOTE1NiAxMC44ODkgMjIuMDc4MSAxMC44MzY1IDIyLjE4MUMxMC42OTI3IDIyLjQ2MzIgMTAuNDYzMiAyMi42OTI3IDEwLjE4MSAyMi44MzY1QzEwLjA3ODEgMjIuODg5IDkuOTE1NiAyMi45NDAzIDkuNTYwNTYgMjIuOTY5M0M5LjE5Mzg1IDIyLjk5OTIgOC43MTY1NyAyMyA4IDIzQzcuMjgzNDMgMjMgNi44MDYxNSAyMi45OTkyIDYuNDM5NDQgMjIuOTY5M0M2LjA4NDQgMjIuOTQwMyA1LjkyMTk0IDIyLjg4OSA1LjgxOTAyIDIyLjgzNjVDNS41MzY3NyAyMi42OTI3IDUuMzA3MyAyMi40NjMyIDUuMTYzNDkgMjIuMTgxQzUuMTExMDUgMjIuMDc4MSA1LjA1OTc1IDIxLjkxNTYgNS4wMzA3NCAyMS41NjA2QzUuMDAwNzggMjEuMTkzOSA1IDIwLjcxNjYgNSAyMEM1IDE5LjI4MzQgNS4wMDA3OCAxOC44MDYyIDUuMDMwNzQgMTguNDM5NEM1LjA1OTc1IDE4LjA4NDQgNS4xMTEwNSAxNy45MjE5IDUuMTYzNDkgMTcuODE5QzUuMzA3MyAxNy41MzY4IDUuNTM2NzcgMTcuMzA3MyA1LjgxOTAyIDE3LjE2MzVaTTE4LjI3NjYgMTUuMDM3NEMxOC43MzQ0IDE1IDE5LjI5NCAxNSAxOS45NTk4IDE1SDIwLjA0MDJDMjAuNzA2IDE1IDIxLjI2NTYgMTUgMjEuNzIzNCAxNS4wMzc0QzIyLjIwMjEgMTUuMDc2NSAyMi42NTcxIDE1LjE2MTQgMjMuMDg5IDE1LjM4MTVDMjMuNzQ3NSAxNS43MTcgMjQuMjgzIDE2LjI1MjUgMjQuNjE4NSAxNi45MTFDMjQuODM4NiAxNy4zNDI5IDI0LjkyMzUgMTcuNzk3OSAyNC45NjI2IDE4LjI3NjZDMjUgMTguNzM0NCAyNSAxOS4yOTQgMjUgMTkuOTU5OFYxOS45NTk4VjE5Ljk1OTlWMjAuMDQwMVYyMC4wNDAyVjIwLjA0MDJDMjUgMjAuNzA2IDI1IDIxLjI2NTYgMjQuOTYyNiAyMS43MjM0QzI0LjkyMzUgMjIuMjAyMSAyNC44Mzg2IDIyLjY1NzEgMjQuNjE4NSAyMy4wODlDMjQuMjgzIDIzLjc0NzUgMjMuNzQ3NSAyNC4yODMgMjMuMDg5IDI0LjYxODVDMjIuNjU3MSAyNC44Mzg2IDIyLjIwMjEgMjQuOTIzNSAyMS43MjM0IDI0Ljk2MjZDMjEuMjY1NiAyNSAyMC43MDYgMjUgMjAuMDQwMiAyNUgyMC4wNDAySDIwLjA0MDFIMTkuOTU5OUgxOS45NTk4SDE5Ljk1OThDMTkuMjk0IDI1IDE4LjczNDQgMjUgMTguMjc2NiAyNC45NjI2QzE3Ljc5NzkgMjQuOTIzNSAxNy4zNDI5IDI0LjgzODYgMTYuOTExIDI0LjYxODVDMTYuMjUyNSAyNC4yODMgMTUuNzE3IDIzLjc0NzUgMTUuMzgxNSAyMy4wODlDMTUuMTYxNCAyMi42NTcxIDE1LjA3NjUgMjIuMjAyMSAxNS4wMzc0IDIxLjcyMzRDMTUgMjEuMjY1NiAxNSAyMC43MDYgMTUgMjAuMDQwMlYxOS45NTk4QzE1IDE5LjI5NCAxNSAxOC43MzQ0IDE1LjAzNzQgMTguMjc2NkMxNS4wNzY1IDE3Ljc5NzkgMTUuMTYxNCAxNy4zNDI5IDE1LjM4MTUgMTYuOTExQzE1LjcxNyAxNi4yNTI1IDE2LjI1MjUgMTUuNzE3IDE2LjkxMSAxNS4zODE1QzE3LjM0MjkgMTUuMTYxNCAxNy43OTc5IDE1LjA3NjUgMTguMjc2NiAxNS4wMzc0Wk0xOC40Mzk0IDE3LjAzMDdDMTguMDg0NCAxNy4wNTk3IDE3LjkyMTkgMTcuMTExIDE3LjgxOSAxNy4xNjM1QzE3LjUzNjggMTcuMzA3MyAxNy4zMDczIDE3LjUzNjggMTcuMTYzNSAxNy44MTlDMTcuMTExIDE3LjkyMTkgMTcuMDU5NyAxOC4wODQ0IDE3LjAzMDcgMTguNDM5NEMxNy4wMDA4IDE4LjgwNjIgMTcgMTkuMjgzNCAxNyAyMEMxNyAyMC43MTY2IDE3LjAwMDggMjEuMTkzOSAxNy4wMzA3IDIxLjU2MDZDMTcuMDU5NyAyMS45MTU2IDE3LjExMSAyMi4wNzgxIDE3LjE2MzUgMjIuMTgxQzE3LjMwNzMgMjIuNDYzMiAxNy41MzY4IDIyLjY5MjcgMTcuODE5IDIyLjgzNjVDMTcuOTIxOSAyMi44ODkgMTguMDg0NCAyMi45NDAzIDE4LjQzOTQgMjIuOTY5M0MxOC44MDYyIDIyLjk5OTIgMTkuMjgzNCAyMyAyMCAyM0MyMC43MTY2IDIzIDIxLjE5MzkgMjIuOTk5MiAyMS41NjA2IDIyLjk2OTNDMjEuOTE1NiAyMi45NDAzIDIyLjA3ODEgMjIuODg5IDIyLjE4MSAyMi44MzY1QzIyLjQ2MzIgMjIuNjkyNyAyMi42OTI3IDIyLjQ2MzIgMjIuODM2NSAyMi4xODFDMjIuODg5IDIyLjA3ODEgMjIuOTQwMyAyMS45MTU2IDIyLjk2OTMgMjEuNTYwNkMyMi45OTkyIDIxLjE5MzkgMjMgMjAuNzE2NiAyMyAyMEMyMyAxOS4yODM0IDIyLjk5OTIgMTguODA2MiAyMi45NjkzIDE4LjQzOTRDMjIuOTQwMyAxOC4wODQ0IDIyLjg4OSAxNy45MjE5IDIyLjgzNjUgMTcuODE5QzIyLjY5MjcgMTcuNTM2OCAyMi40NjMyIDE3LjMwNzMgMjIuMTgxIDE3LjE2MzVDMjIuMDc4MSAxNy4xMTEgMjEuOTE1NiAxNy4wNTk3IDIxLjU2MDYgMTcuMDMwN0MyMS4xOTM5IDE3LjAwMDggMjAuNzE2NiAxNyAyMCAxN0MxOS4yODM0IDE3IDE4LjgwNjIgMTcuMDAwOCAxOC40Mzk0IDE3LjAzMDdaTTIwLjA0MDIgM0gxOS45NTk4SDE5Ljk1OThDMTkuMjk0IDIuOTk5OTkgMTguNzM0NCAyLjk5OTk3IDE4LjI3NjYgMy4wMzczOEMxNy43OTc5IDMuMDc2NSAxNy4zNDI5IDMuMTYxNDQgMTYuOTExIDMuMzgxNDhDMTYuMjUyNSAzLjcxNzA0IDE1LjcxNyA0LjI1MjQ3IDE1LjM4MTUgNC45MTEwM0MxNS4xNjE0IDUuMzQyODkgMTUuMDc2NSA1Ljc5Nzg1IDE1LjAzNzQgNi4yNzY1N0MxNSA2LjczNDQ1IDE1IDcuMjkzOTcgMTUgNy45NTk4NFY4LjA0MDE2QzE1IDguNzA2MDMgMTUgOS4yNjU1NiAxNS4wMzc0IDkuNzIzNDNDMTUuMDc2NSAxMC4yMDIxIDE1LjE2MTQgMTAuNjU3MSAxNS4zODE1IDExLjA4OUMxNS43MTcgMTEuNzQ3NSAxNi4yNTI1IDEyLjI4MyAxNi45MTEgMTIuNjE4NUMxNy4zNDI5IDEyLjgzODYgMTcuNzk3OSAxMi45MjM1IDE4LjI3NjYgMTIuOTYyNkMxOC43MzQ1IDEzIDE5LjI5NCAxMyAxOS45NTk5IDEzSDIwLjA0MDFDMjAuNzA2IDEzIDIxLjI2NTYgMTMgMjEuNzIzNCAxMi45NjI2QzIyLjIwMjEgMTIuOTIzNSAyMi42NTcxIDEyLjgzODYgMjMuMDg5IDEyLjYxODVDMjMuNzQ3NSAxMi4yODMgMjQuMjgzIDExLjc0NzUgMjQuNjE4NSAxMS4wODlDMjQuODM4NiAxMC42NTcxIDI0LjkyMzUgMTAuMjAyMSAyNC45NjI2IDkuNzIzNDNDMjUgOS4yNjU1NiAyNSA4LjcwNjAzIDI1IDguMDQwMTZWOC4wNDAxNFY3Ljk1OTg3VjcuOTU5ODRDMjUgNy4yOTM5NyAyNSA2LjczNDQ0IDI0Ljk2MjYgNi4yNzY1N0MyNC45MjM1IDUuNzk3ODUgMjQuODM4NiA1LjM0Mjg5IDI0LjYxODUgNC45MTEwM0MyNC4yODMgNC4yNTI0NyAyMy43NDc1IDMuNzE3MDQgMjMuMDg5IDMuMzgxNDhDMjIuNjU3MSAzLjE2MTQ0IDIyLjIwMjEgMy4wNzY1IDIxLjcyMzQgMy4wMzczOEMyMS4yNjU2IDIuOTk5OTcgMjAuNzA2MSAyLjk5OTk5IDIwLjA0MDIgM0gyMC4wNDAyWk0xNy44MTkgNS4xNjM0OUMxNy45MjE5IDUuMTExMDUgMTguMDg0NCA1LjA1OTc1IDE4LjQzOTQgNS4wMzA3NEMxOC44MDYyIDUuMDAwNzggMTkuMjgzNCA1IDIwIDVDMjAuNzE2NiA1IDIxLjE5MzkgNS4wMDA3OCAyMS41NjA2IDUuMDMwNzRDMjEuOTE1NiA1LjA1OTc1IDIyLjA3ODEgNS4xMTEwNSAyMi4xODEgNS4xNjM0OUMyMi40NjMyIDUuMzA3MyAyMi42OTI3IDUuNTM2NzcgMjIuODM2NSA1LjgxOTAyQzIyLjg4OSA1LjkyMTk0IDIyLjk0MDMgNi4wODQ0IDIyLjk2OTMgNi40Mzk0NEMyMi45OTkyIDYuODA2MTUgMjMgNy4yODM0MyAyMyA4QzIzIDguNzE2NTcgMjIuOTk5MiA5LjE5Mzg1IDIyLjk2OTMgOS41NjA1NkMyMi45NDAzIDkuOTE1NiAyMi44ODkgMTAuMDc4MSAyMi44MzY1IDEwLjE4MUMyMi42OTI3IDEwLjQ2MzIgMjIuNDYzMiAxMC42OTI3IDIyLjE4MSAxMC44MzY1QzIyLjA3ODEgMTAuODg5IDIxLjkxNTYgMTAuOTQwMyAyMS41NjA2IDEwLjk2OTNDMjEuMTkzOSAxMC45OTkyIDIwLjcxNjYgMTEgMjAgMTFDMTkuMjgzNCAxMSAxOC44MDYyIDEwLjk5OTIgMTguNDM5NCAxMC45NjkzQzE4LjA4NDQgMTAuOTQwMyAxNy45MjE5IDEwLjg4OSAxNy44MTkgMTAuODM2NUMxNy41MzY4IDEwLjY5MjcgMTcuMzA3MyAxMC40NjMyIDE3LjE2MzUgMTAuMTgxQzE3LjExMSAxMC4wNzgxIDE3LjA1OTcgOS45MTU2IDE3LjAzMDcgOS41NjA1NkMxNy4wMDA4IDkuMTkzODUgMTcgOC43MTY1NyAxNyA4QzE3IDcuMjgzNDMgMTcuMDAwOCA2LjgwNjE1IDE3LjAzMDcgNi40Mzk0NEMxNy4wNTk3IDYuMDg0NCAxNy4xMTEgNS45MjE5NCAxNy4xNjM1IDUuODE5MDJDMTcuMzA3MyA1LjUzNjc3IDE3LjUzNjggNS4zMDczIDE3LjgxOSA1LjE2MzQ5WiIgY2xpcC1ydWxlPSJldmVub2RkIiBmaWxsLXJ1bGU9ImV2ZW5vZGQiLz4mI3hhOzwvc3ZnPg==;fontSize=16;fontFamily=VK Sans Display;" parent="1" vertex="1">
          <mxGeometry x="1751.5" y="216.5" width="53" height="53" as="geometry" />
        </mxCell>
        <mxCell id="076CTUgDyojn5MFQ2pDV-14" value="User" style="shape=image;verticalLabelPosition=bottom;labelBackgroundColor=default;verticalAlign=top;aspect=fixed;imageAspect=0;image=data:image/svg+xml,PHN2ZyB4bWxucz0iaHR0cDovL3d3dy53My5vcmcvMjAwMC9zdmciIGZpbGw9Im5vbmUiIHZpZXdCb3g9IjAgMCAyOCAyOCIgaGVpZ2h0PSIyOCIgd2lkdGg9IjI4Ij4mI3hhOzxwYXRoIGZpbGw9IiMyNjg4RUIiIGQ9Ik0xNy41IDguNUMxNy41IDYuNTY2MDMgMTUuOTM0IDUgMTQgNUMxMi4wNjYgNSAxMC41IDYuNTY2MDMgMTAuNSA4LjVDMTAuNSAxMC40MzQgMTIuMDY2IDEyIDE0IDEyQzE1LjkzNCAxMiAxNy41IDEwLjQzNCAxNy41IDguNVpNMTkuNSA4LjVDMTkuNSAxMS41Mzg1IDE3LjAzODUgMTQgMTQgMTRDMTAuOTYxNSAxNCA4LjUgMTEuNTM4NSA4LjUgOC41QzguNSA1LjQ2MTQ3IDEwLjk2MTUgMyAxNCAzQzE3LjAzODUgMyAxOS41IDUuNDYxNDcgMTkuNSA4LjVaTTcgMjAuNjQyOUM3IDIxLjU4NjIgNi45MTk4NyAyMS41IDcuNDU1ODggMjEuNUgyMS4wNDQxQzIxLjU4MDEgMjEuNSAyMS41IDIxLjU4NjIgMjEuNSAyMC42NDI5QzIxLjUgMTguMzU0NyAxOC4xOTYgMTcgMTQuMjUgMTdDMTAuMzA0IDE3IDcgMTguMzU0NyA3IDIwLjY0MjlaTTUgMjAuNjQyOUM1IDE2Ljc2MjYgOS4yOTg5MiAxNSAxNC4yNSAxNUMxOS4yMDExIDE1IDIzLjUgMTYuNzYyNiAyMy41IDIwLjY0MjlDMjMuNSAyMi42NTkzIDIyLjcxODkgMjMuNSAyMS4wNDQxIDIzLjVINy40NTU4OEM1Ljc4MTExIDIzLjUgNSAyMi42NTkzIDUgMjAuNjQyOVoiLz4mI3hhOzwvc3ZnPg==;fontFamily=VK Sans Display;spacing=-7;fontColor=#212121;fontSize=16;" parent="1" vertex="1">
          <mxGeometry x="1750" y="111.50000000000003" width="56" height="56" as="geometry" />
        </mxCell>
        <mxCell id="076CTUgDyojn5MFQ2pDV-15" value="Requests" style="endArrow=open;html=1;fontFamily=VK Sans Display;fontColor=#212121;rounded=1;strokeColor=#87D6E8;endFill=0;arcsize=8;startArrow=none;startFill=0;strokeWidth=2;labelBackgroundColor=#FFFFFF;textOpacity=70;verticalAlign=middle;spacing=8;fontSize=16;arcSize=8;exitX=1;exitY=0.5;exitDx=0;exitDy=0;entryX=0;entryY=0.25;entryDx=0;entryDy=0;" parent="1" source="076CTUgDyojn5MFQ2pDV-14" target="mH1W3D18dabg6ZcjXpEv-42" edge="1">
          <mxGeometry x="-0.4216" width="50" height="50" relative="1" as="geometry">
            <mxPoint x="1732.25" y="224.03" as="sourcePoint" />
            <mxPoint x="1829.25" y="180" as="targetPoint" />
            <Array as="points">
              <mxPoint x="1850" y="140" />
              <mxPoint x="1850" y="180" />
            </Array>
            <mxPoint as="offset" />
          </mxGeometry>
        </mxCell>
        <mxCell id="076CTUgDyojn5MFQ2pDV-48" value="Metrics push" style="endArrow=open;html=1;fontFamily=VK Sans Display;fontColor=#212121;rounded=1;strokeColor=#E188D0;endFill=0;arcsize=8;startArrow=none;startFill=0;strokeWidth=2;labelBackgroundColor=#FFFFFF;textOpacity=70;verticalAlign=middle;spacing=8;fontSize=16;arcSize=8;exitX=1;exitY=0.5;exitDx=0;exitDy=0;entryX=0;entryY=0.75;entryDx=0;entryDy=0;" parent="1" source="076CTUgDyojn5MFQ2pDV-5" target="mH1W3D18dabg6ZcjXpEv-42" edge="1">
          <mxGeometry x="-0.3752" width="50" height="50" relative="1" as="geometry">
            <mxPoint x="1729.25" y="244" as="sourcePoint" />
            <mxPoint x="1829.25" y="220" as="targetPoint" />
            <Array as="points">
              <mxPoint x="1850" y="243" />
              <mxPoint x="1850" y="200" />
            </Array>
            <mxPoint as="offset" />
          </mxGeometry>
        </mxCell>
        <mxCell id="mH1W3D18dabg6ZcjXpEv-4" value="Applications" style="shape=image;verticalLabelPosition=bottom;labelBackgroundColor=default;verticalAlign=top;aspect=fixed;imageAspect=0;image=data:image/svg+xml,PHN2ZyB4bWxucz0iaHR0cDovL3d3dy53My5vcmcvMjAwMC9zdmciIGZpbGw9Im5vbmUiIHZpZXdCb3g9IjAgMCAyOCAyOCIgaGVpZ2h0PSIyOCIgd2lkdGg9IjI4Ij4mI3hhOzxwYXRoIGZpbGw9IiMyNjg4RUIiIGQ9Ik04LjA0MDE2IDNINy45NTk4NEg3Ljk1OTgxQzcuMjkzOTUgMi45OTk5OSA2LjczNDQ0IDIuOTk5OTcgNi4yNzY1NyAzLjAzNzM4QzUuNzk3ODUgMy4wNzY1IDUuMzQyODkgMy4xNjE0NCA0LjkxMTAzIDMuMzgxNDhDNC4yNTI0NyAzLjcxNzA0IDMuNzE3MDQgNC4yNTI0NyAzLjM4MTQ4IDQuOTExMDNDMy4xNjE0NCA1LjM0Mjg5IDMuMDc2NSA1Ljc5Nzg1IDMuMDM3MzggNi4yNzY1N0MyLjk5OTk3IDYuNzM0NDQgMi45OTk5OSA3LjI5Mzk1IDMgNy45NTk4MVY3Ljk1OTg0VjguMDQwMTZWOC4wNDAxOUMyLjk5OTk5IDguNzA2MDUgMi45OTk5NyA5LjI2NTU2IDMuMDM3MzggOS43MjM0M0MzLjA3NjUgMTAuMjAyMSAzLjE2MTQ0IDEwLjY1NzEgMy4zODE0OCAxMS4wODlDMy43MTcwNCAxMS43NDc1IDQuMjUyNDcgMTIuMjgzIDQuOTExMDMgMTIuNjE4NUM1LjM0Mjg5IDEyLjgzODYgNS43OTc4NSAxMi45MjM1IDYuMjc2NTcgMTIuOTYyNkM2LjczNDQ1IDEzIDcuMjkzOTggMTMgNy45NTk4NyAxM0g4LjA0MDE0QzguNzA2MDIgMTMgOS4yNjU1NSAxMyA5LjcyMzQzIDEyLjk2MjZDMTAuMjAyMSAxMi45MjM1IDEwLjY1NzEgMTIuODM4NiAxMS4wODkgMTIuNjE4NUMxMS43NDc1IDEyLjI4MyAxMi4yODMgMTEuNzQ3NSAxMi42MTg1IDExLjA4OUMxMi44Mzg2IDEwLjY1NzEgMTIuOTIzNSAxMC4yMDIxIDEyLjk2MjYgOS43MjM0M0MxMyA5LjI2NTU1IDEzIDguNzA2MDIgMTMgOC4wNDAxNFY3Ljk1OTg3QzEzIDcuMjkzOTggMTMgNi43MzQ0NSAxMi45NjI2IDYuMjc2NTdDMTIuOTIzNSA1Ljc5Nzg1IDEyLjgzODYgNS4zNDI4OSAxMi42MTg1IDQuOTExMDNDMTIuMjgzIDQuMjUyNDcgMTEuNzQ3NSAzLjcxNzA0IDExLjA4OSAzLjM4MTQ4QzEwLjY1NzEgMy4xNjE0NCAxMC4yMDIxIDMuMDc2NSA5LjcyMzQzIDMuMDM3MzhDOS4yNjU1NiAyLjk5OTk3IDguNzA2MDUgMi45OTk5OSA4LjA0MDE5IDNIOC4wNDAxNlpNNS44MTkwMiA1LjE2MzQ5QzUuOTIxOTQgNS4xMTEwNSA2LjA4NDQgNS4wNTk3NSA2LjQzOTQ0IDUuMDMwNzRDNi44MDYxNSA1LjAwMDc4IDcuMjgzNDMgNSA4IDVDOC43MTY1NyA1IDkuMTkzODUgNS4wMDA3OCA5LjU2MDU2IDUuMDMwNzRDOS45MTU2IDUuMDU5NzUgMTAuMDc4MSA1LjExMTA1IDEwLjE4MSA1LjE2MzQ5QzEwLjQ2MzIgNS4zMDczIDEwLjY5MjcgNS41MzY3NyAxMC44MzY1IDUuODE5MDJDMTAuODg5IDUuOTIxOTQgMTAuOTQwMyA2LjA4NDQgMTAuOTY5MyA2LjQzOTQ0QzEwLjk5OTIgNi44MDYxNSAxMSA3LjI4MzQzIDExIDhDMTEgOC43MTY1NyAxMC45OTkyIDkuMTkzODUgMTAuOTY5MyA5LjU2MDU2QzEwLjk0MDMgOS45MTU2IDEwLjg4OSAxMC4wNzgxIDEwLjgzNjUgMTAuMTgxQzEwLjY5MjcgMTAuNDYzMiAxMC40NjMyIDEwLjY5MjcgMTAuMTgxIDEwLjgzNjVDMTAuMDc4MSAxMC44ODkgOS45MTU2IDEwLjk0MDMgOS41NjA1NiAxMC45NjkzQzkuMTkzODUgMTAuOTk5MiA4LjcxNjU3IDExIDggMTFDNy4yODM0MyAxMSA2LjgwNjE1IDEwLjk5OTIgNi40Mzk0NCAxMC45NjkzQzYuMDg0NCAxMC45NDAzIDUuOTIxOTQgMTAuODg5IDUuODE5MDIgMTAuODM2NUM1LjUzNjc3IDEwLjY5MjcgNS4zMDczIDEwLjQ2MzIgNS4xNjM0OSAxMC4xODFDNS4xMTEwNSAxMC4wNzgxIDUuMDU5NzUgOS45MTU2IDUuMDMwNzQgOS41NjA1NkM1LjAwMDc4IDkuMTkzODUgNSA4LjcxNjU3IDUgOEM1IDcuMjgzNDMgNS4wMDA3OCA2LjgwNjE1IDUuMDMwNzQgNi40Mzk0NEM1LjA1OTc1IDYuMDg0NCA1LjExMTA1IDUuOTIxOTQgNS4xNjM0OSA1LjgxOTAyQzUuMzA3MyA1LjUzNjc3IDUuNTM2NzcgNS4zMDczIDUuODE5MDIgNS4xNjM0OVpNOS43MjM0MyAxNS4wMzc0QzkuMjY1NTYgMTUgOC43MDYwMyAxNSA4LjA0MDE2IDE1SDcuOTU5ODRDNy4yOTM5NyAxNSA2LjczNDQ1IDE1IDYuMjc2NTcgMTUuMDM3NEM1Ljc5Nzg1IDE1LjA3NjUgNS4zNDI4OSAxNS4xNjE0IDQuOTExMDMgMTUuMzgxNUM0LjI1MjQ3IDE1LjcxNyAzLjcxNzA0IDE2LjI1MjUgMy4zODE0OCAxNi45MTFDMy4xNjE0NCAxNy4zNDI5IDMuMDc2NSAxNy43OTc5IDMuMDM3MzggMTguMjc2NkMyLjk5OTk3IDE4LjczNDQgMi45OTk5OSAxOS4yOTQgMyAxOS45NTk4VjE5Ljk1OThWMjAuMDQwMlYyMC4wNDAyQzIuOTk5OTkgMjAuNzA2MSAyLjk5OTk3IDIxLjI2NTYgMy4wMzczOCAyMS43MjM0QzMuMDc2NSAyMi4yMDIxIDMuMTYxNDQgMjIuNjU3MSAzLjM4MTQ4IDIzLjA4OUMzLjcxNzA0IDIzLjc0NzUgNC4yNTI0NyAyNC4yODMgNC45MTEwMyAyNC42MTg1QzUuMzQyODkgMjQuODM4NiA1Ljc5Nzg1IDI0LjkyMzUgNi4yNzY1NyAyNC45NjI2QzYuNzM0NDMgMjUgNy4yOTM5NCAyNSA3Ljk1OTc4IDI1SDcuOTU5ODFINy45NTk4NEg3Ljk1OTg3SDguMDQwMTRIOC4wNDAxNkg4LjA0MDE5SDguMDQwMjJDOC43MDYwNyAyNSA5LjI2NTU3IDI1IDkuNzIzNDMgMjQuOTYyNkMxMC4yMDIxIDI0LjkyMzUgMTAuNjU3MSAyNC44Mzg2IDExLjA4OSAyNC42MTg1QzExLjc0NzUgMjQuMjgzIDEyLjI4MyAyMy43NDc1IDEyLjYxODUgMjMuMDg5QzEyLjgzODYgMjIuNjU3MSAxMi45MjM1IDIyLjIwMjEgMTIuOTYyNiAyMS43MjM0QzEzIDIxLjI2NTYgMTMgMjAuNzA2IDEzIDIwLjA0MDFWMTkuOTU5OUMxMyAxOS4yOTQgMTMgMTguNzM0NSAxMi45NjI2IDE4LjI3NjZDMTIuOTIzNSAxNy43OTc5IDEyLjgzODYgMTcuMzQyOSAxMi42MTg1IDE2LjkxMUMxMi4yODMgMTYuMjUyNSAxMS43NDc1IDE1LjcxNyAxMS4wODkgMTUuMzgxNUMxMC42NTcxIDE1LjE2MTQgMTAuMjAyMSAxNS4wNzY1IDkuNzIzNDMgMTUuMDM3NFpNNS44MTkwMiAxNy4xNjM1QzUuOTIxOTQgMTcuMTExIDYuMDg0NCAxNy4wNTk3IDYuNDM5NDQgMTcuMDMwN0M2LjgwNjE1IDE3LjAwMDggNy4yODM0MyAxNyA4IDE3QzguNzE2NTcgMTcgOS4xOTM4NSAxNy4wMDA4IDkuNTYwNTYgMTcuMDMwN0M5LjkxNTYgMTcuMDU5NyAxMC4wNzgxIDE3LjExMSAxMC4xODEgMTcuMTYzNUMxMC40NjMyIDE3LjMwNzMgMTAuNjkyNyAxNy41MzY4IDEwLjgzNjUgMTcuODE5QzEwLjg4OSAxNy45MjE5IDEwLjk0MDMgMTguMDg0NCAxMC45NjkzIDE4LjQzOTRDMTAuOTk5MiAxOC44MDYyIDExIDE5LjI4MzQgMTEgMjBDMTEgMjAuNzE2NiAxMC45OTkyIDIxLjE5MzkgMTAuOTY5MyAyMS41NjA2QzEwLjk0MDMgMjEuOTE1NiAxMC44ODkgMjIuMDc4MSAxMC44MzY1IDIyLjE4MUMxMC42OTI3IDIyLjQ2MzIgMTAuNDYzMiAyMi42OTI3IDEwLjE4MSAyMi44MzY1QzEwLjA3ODEgMjIuODg5IDkuOTE1NiAyMi45NDAzIDkuNTYwNTYgMjIuOTY5M0M5LjE5Mzg1IDIyLjk5OTIgOC43MTY1NyAyMyA4IDIzQzcuMjgzNDMgMjMgNi44MDYxNSAyMi45OTkyIDYuNDM5NDQgMjIuOTY5M0M2LjA4NDQgMjIuOTQwMyA1LjkyMTk0IDIyLjg4OSA1LjgxOTAyIDIyLjgzNjVDNS41MzY3NyAyMi42OTI3IDUuMzA3MyAyMi40NjMyIDUuMTYzNDkgMjIuMTgxQzUuMTExMDUgMjIuMDc4MSA1LjA1OTc1IDIxLjkxNTYgNS4wMzA3NCAyMS41NjA2QzUuMDAwNzggMjEuMTkzOSA1IDIwLjcxNjYgNSAyMEM1IDE5LjI4MzQgNS4wMDA3OCAxOC44MDYyIDUuMDMwNzQgMTguNDM5NEM1LjA1OTc1IDE4LjA4NDQgNS4xMTEwNSAxNy45MjE5IDUuMTYzNDkgMTcuODE5QzUuMzA3MyAxNy41MzY4IDUuNTM2NzcgMTcuMzA3MyA1LjgxOTAyIDE3LjE2MzVaTTE4LjI3NjYgMTUuMDM3NEMxOC43MzQ0IDE1IDE5LjI5NCAxNSAxOS45NTk4IDE1SDIwLjA0MDJDMjAuNzA2IDE1IDIxLjI2NTYgMTUgMjEuNzIzNCAxNS4wMzc0QzIyLjIwMjEgMTUuMDc2NSAyMi42NTcxIDE1LjE2MTQgMjMuMDg5IDE1LjM4MTVDMjMuNzQ3NSAxNS43MTcgMjQuMjgzIDE2LjI1MjUgMjQuNjE4NSAxNi45MTFDMjQuODM4NiAxNy4zNDI5IDI0LjkyMzUgMTcuNzk3OSAyNC45NjI2IDE4LjI3NjZDMjUgMTguNzM0NCAyNSAxOS4yOTQgMjUgMTkuOTU5OFYxOS45NTk4VjE5Ljk1OTlWMjAuMDQwMVYyMC4wNDAyVjIwLjA0MDJDMjUgMjAuNzA2IDI1IDIxLjI2NTYgMjQuOTYyNiAyMS43MjM0QzI0LjkyMzUgMjIuMjAyMSAyNC44Mzg2IDIyLjY1NzEgMjQuNjE4NSAyMy4wODlDMjQuMjgzIDIzLjc0NzUgMjMuNzQ3NSAyNC4yODMgMjMuMDg5IDI0LjYxODVDMjIuNjU3MSAyNC44Mzg2IDIyLjIwMjEgMjQuOTIzNSAyMS43MjM0IDI0Ljk2MjZDMjEuMjY1NiAyNSAyMC43MDYgMjUgMjAuMDQwMiAyNUgyMC4wNDAySDIwLjA0MDFIMTkuOTU5OUgxOS45NTk4SDE5Ljk1OThDMTkuMjk0IDI1IDE4LjczNDQgMjUgMTguMjc2NiAyNC45NjI2QzE3Ljc5NzkgMjQuOTIzNSAxNy4zNDI5IDI0LjgzODYgMTYuOTExIDI0LjYxODVDMTYuMjUyNSAyNC4yODMgMTUuNzE3IDIzLjc0NzUgMTUuMzgxNSAyMy4wODlDMTUuMTYxNCAyMi42NTcxIDE1LjA3NjUgMjIuMjAyMSAxNS4wMzc0IDIxLjcyMzRDMTUgMjEuMjY1NiAxNSAyMC43MDYgMTUgMjAuMDQwMlYxOS45NTk4QzE1IDE5LjI5NCAxNSAxOC43MzQ0IDE1LjAzNzQgMTguMjc2NkMxNS4wNzY1IDE3Ljc5NzkgMTUuMTYxNCAxNy4zNDI5IDE1LjM4MTUgMTYuOTExQzE1LjcxNyAxNi4yNTI1IDE2LjI1MjUgMTUuNzE3IDE2LjkxMSAxNS4zODE1QzE3LjM0MjkgMTUuMTYxNCAxNy43OTc5IDE1LjA3NjUgMTguMjc2NiAxNS4wMzc0Wk0xOC40Mzk0IDE3LjAzMDdDMTguMDg0NCAxNy4wNTk3IDE3LjkyMTkgMTcuMTExIDE3LjgxOSAxNy4xNjM1QzE3LjUzNjggMTcuMzA3MyAxNy4zMDczIDE3LjUzNjggMTcuMTYzNSAxNy44MTlDMTcuMTExIDE3LjkyMTkgMTcuMDU5NyAxOC4wODQ0IDE3LjAzMDcgMTguNDM5NEMxNy4wMDA4IDE4LjgwNjIgMTcgMTkuMjgzNCAxNyAyMEMxNyAyMC43MTY2IDE3LjAwMDggMjEuMTkzOSAxNy4wMzA3IDIxLjU2MDZDMTcuMDU5NyAyMS45MTU2IDE3LjExMSAyMi4wNzgxIDE3LjE2MzUgMjIuMTgxQzE3LjMwNzMgMjIuNDYzMiAxNy41MzY4IDIyLjY5MjcgMTcuODE5IDIyLjgzNjVDMTcuOTIxOSAyMi44ODkgMTguMDg0NCAyMi45NDAzIDE4LjQzOTQgMjIuOTY5M0MxOC44MDYyIDIyLjk5OTIgMTkuMjgzNCAyMyAyMCAyM0MyMC43MTY2IDIzIDIxLjE5MzkgMjIuOTk5MiAyMS41NjA2IDIyLjk2OTNDMjEuOTE1NiAyMi45NDAzIDIyLjA3ODEgMjIuODg5IDIyLjE4MSAyMi44MzY1QzIyLjQ2MzIgMjIuNjkyNyAyMi42OTI3IDIyLjQ2MzIgMjIuODM2NSAyMi4xODFDMjIuODg5IDIyLjA3ODEgMjIuOTQwMyAyMS45MTU2IDIyLjk2OTMgMjEuNTYwNkMyMi45OTkyIDIxLjE5MzkgMjMgMjAuNzE2NiAyMyAyMEMyMyAxOS4yODM0IDIyLjk5OTIgMTguODA2MiAyMi45NjkzIDE4LjQzOTRDMjIuOTQwMyAxOC4wODQ0IDIyLjg4OSAxNy45MjE5IDIyLjgzNjUgMTcuODE5QzIyLjY5MjcgMTcuNTM2OCAyMi40NjMyIDE3LjMwNzMgMjIuMTgxIDE3LjE2MzVDMjIuMDc4MSAxNy4xMTEgMjEuOTE1NiAxNy4wNTk3IDIxLjU2MDYgMTcuMDMwN0MyMS4xOTM5IDE3LjAwMDggMjAuNzE2NiAxNyAyMCAxN0MxOS4yODM0IDE3IDE4LjgwNjIgMTcuMDAwOCAxOC40Mzk0IDE3LjAzMDdaTTIwLjA0MDIgM0gxOS45NTk4SDE5Ljk1OThDMTkuMjk0IDIuOTk5OTkgMTguNzM0NCAyLjk5OTk3IDE4LjI3NjYgMy4wMzczOEMxNy43OTc5IDMuMDc2NSAxNy4zNDI5IDMuMTYxNDQgMTYuOTExIDMuMzgxNDhDMTYuMjUyNSAzLjcxNzA0IDE1LjcxNyA0LjI1MjQ3IDE1LjM4MTUgNC45MTEwM0MxNS4xNjE0IDUuMzQyODkgMTUuMDc2NSA1Ljc5Nzg1IDE1LjAzNzQgNi4yNzY1N0MxNSA2LjczNDQ1IDE1IDcuMjkzOTcgMTUgNy45NTk4NFY4LjA0MDE2QzE1IDguNzA2MDMgMTUgOS4yNjU1NiAxNS4wMzc0IDkuNzIzNDNDMTUuMDc2NSAxMC4yMDIxIDE1LjE2MTQgMTAuNjU3MSAxNS4zODE1IDExLjA4OUMxNS43MTcgMTEuNzQ3NSAxNi4yNTI1IDEyLjI4MyAxNi45MTEgMTIuNjE4NUMxNy4zNDI5IDEyLjgzODYgMTcuNzk3OSAxMi45MjM1IDE4LjI3NjYgMTIuOTYyNkMxOC43MzQ1IDEzIDE5LjI5NCAxMyAxOS45NTk5IDEzSDIwLjA0MDFDMjAuNzA2IDEzIDIxLjI2NTYgMTMgMjEuNzIzNCAxMi45NjI2QzIyLjIwMjEgMTIuOTIzNSAyMi42NTcxIDEyLjgzODYgMjMuMDg5IDEyLjYxODVDMjMuNzQ3NSAxMi4yODMgMjQuMjgzIDExLjc0NzUgMjQuNjE4NSAxMS4wODlDMjQuODM4NiAxMC42NTcxIDI0LjkyMzUgMTAuMjAyMSAyNC45NjI2IDkuNzIzNDNDMjUgOS4yNjU1NiAyNSA4LjcwNjAzIDI1IDguMDQwMTZWOC4wNDAxNFY3Ljk1OTg3VjcuOTU5ODRDMjUgNy4yOTM5NyAyNSA2LjczNDQ0IDI0Ljk2MjYgNi4yNzY1N0MyNC45MjM1IDUuNzk3ODUgMjQuODM4NiA1LjM0Mjg5IDI0LjYxODUgNC45MTEwM0MyNC4yODMgNC4yNTI0NyAyMy43NDc1IDMuNzE3MDQgMjMuMDg5IDMuMzgxNDhDMjIuNjU3MSAzLjE2MTQ0IDIyLjIwMjEgMy4wNzY1IDIxLjcyMzQgMy4wMzczOEMyMS4yNjU2IDIuOTk5OTcgMjAuNzA2MSAyLjk5OTk5IDIwLjA0MDIgM0gyMC4wNDAyWk0xNy44MTkgNS4xNjM0OUMxNy45MjE5IDUuMTExMDUgMTguMDg0NCA1LjA1OTc1IDE4LjQzOTQgNS4wMzA3NEMxOC44MDYyIDUuMDAwNzggMTkuMjgzNCA1IDIwIDVDMjAuNzE2NiA1IDIxLjE5MzkgNS4wMDA3OCAyMS41NjA2IDUuMDMwNzRDMjEuOTE1NiA1LjA1OTc1IDIyLjA3ODEgNS4xMTEwNSAyMi4xODEgNS4xNjM0OUMyMi40NjMyIDUuMzA3MyAyMi42OTI3IDUuNTM2NzcgMjIuODM2NSA1LjgxOTAyQzIyLjg4OSA1LjkyMTk0IDIyLjk0MDMgNi4wODQ0IDIyLjk2OTMgNi40Mzk0NEMyMi45OTkyIDYuODA2MTUgMjMgNy4yODM0MyAyMyA4QzIzIDguNzE2NTcgMjIuOTk5MiA5LjE5Mzg1IDIyLjk2OTMgOS41NjA1NkMyMi45NDAzIDkuOTE1NiAyMi44ODkgMTAuMDc4MSAyMi44MzY1IDEwLjE4MUMyMi42OTI3IDEwLjQ2MzIgMjIuNDYzMiAxMC42OTI3IDIyLjE4MSAxMC44MzY1QzIyLjA3ODEgMTAuODg5IDIxLjkxNTYgMTAuOTQwMyAyMS41NjA2IDEwLjk2OTNDMjEuMTkzOSAxMC45OTkyIDIwLjcxNjYgMTEgMjAgMTFDMTkuMjgzNCAxMSAxOC44MDYyIDEwLjk5OTIgMTguNDM5NCAxMC45NjkzQzE4LjA4NDQgMTAuOTQwMyAxNy45MjE5IDEwLjg4OSAxNy44MTkgMTAuODM2NUMxNy41MzY4IDEwLjY5MjcgMTcuMzA3MyAxMC40NjMyIDE3LjE2MzUgMTAuMTgxQzE3LjExMSAxMC4wNzgxIDE3LjA1OTcgOS45MTU2IDE3LjAzMDcgOS41NjA1NkMxNy4wMDA4IDkuMTkzODUgMTcgOC43MTY1NyAxNyA4QzE3IDcuMjgzNDMgMTcuMDAwOCA2LjgwNjE1IDE3LjAzMDcgNi40Mzk0NEMxNy4wNTk3IDYuMDg0NCAxNy4xMTEgNS45MjE5NCAxNy4xNjM1IDUuODE5MDJDMTcuMzA3MyA1LjUzNjc3IDE3LjUzNjggNS4zMDczIDE3LjgxOSA1LjE2MzQ5WiIgY2xpcC1ydWxlPSJldmVub2RkIiBmaWxsLXJ1bGU9ImV2ZW5vZGQiLz4mI3hhOzwvc3ZnPg==;fontSize=16;fontFamily=VK Sans Display;" parent="1" vertex="1">
          <mxGeometry x="2250" y="163.5" width="53" height="53" as="geometry" />
        </mxCell>
        <mxCell id="mH1W3D18dabg6ZcjXpEv-5" value="Metrics pull" style="endArrow=none;html=1;fontFamily=VK Sans Display;fontColor=#212121;rounded=1;strokeColor=#E188D0;endFill=0;arcsize=8;startArrow=open;startFill=0;strokeWidth=2;labelBackgroundColor=#FFFFFF;textOpacity=70;verticalAlign=middle;spacing=8;fontSize=16;arcSize=8;exitX=0;exitY=0.5;exitDx=0;exitDy=0;entryX=1;entryY=0.5;entryDx=0;entryDy=0;" parent="1" source="mH1W3D18dabg6ZcjXpEv-4" target="mH1W3D18dabg6ZcjXpEv-42" edge="1">
          <mxGeometry width="50" height="50" relative="1" as="geometry">
            <mxPoint x="2259.25" y="217" as="sourcePoint" />
            <mxPoint x="2397.25" y="218" as="targetPoint" />
          </mxGeometry>
        </mxCell>
        <mxCell id="mH1W3D18dabg6ZcjXpEv-42" value="victoriametrics" style="rounded=1;whiteSpace=wrap;html=1;arcSize=12;absoluteArcSize=1;fillColor=#F6F7F9;strokeColor=none;fontSize=16;fontFamily=VK Sans Display;" parent="1" vertex="1">
          <mxGeometry x="1979.25" y="170" width="120" height="40" as="geometry" />
        </mxCell>
        <mxCell id="QPyTJc_wchwOtDdB3o7i-1" value="Data disk" style="shape=image;verticalLabelPosition=bottom;verticalAlign=top;imageAspect=0;aspect=fixed;image=data:image/svg+xml,PHN2ZyB4bWxucz0iaHR0cDovL3d3dy53My5vcmcvMjAwMC9zdmciIGZpbGw9Im5vbmUiIHZpZXdCb3g9IjAgMCAzNiAzNiIgaGVpZ2h0PSIzNiIgd2lkdGg9IjM2Ij4mI3hhOzxwYXRoIGZpbGw9IiMwMDg1RkYiIGQ9Ik0xMi4yMTI2IDAuNDExMjk5QzE2LjA1MTQgLTAuMTM3MSAxOS45NDg2IC0wLjEzNzEgMjMuNzg3NCAwLjQxMTNDMzAuNzY4NiAxLjQwODYgMzQuNTQzMyA0Ljg5NDkgMzUuNTg4NyAxMi4yMTI2QzM2LjEzNzEgMTYuMDUxNCAzNi4xMzcxIDE5Ljk0ODYgMzUuNTg4NyAyMy43ODc0QzM0LjU5MTQgMzAuNzY4NiAzMS4xMDUxIDM0LjU0MzMgMjMuNzg3NCAzNS41ODg3QzE5Ljk0ODYgMzYuMTM3MSAxNi4wNTE0IDM2LjEzNzEgMTIuMjEyNiAzNS41ODg3QzUuMjMxNDQgMzQuNTkxNCAxLjQ1NjY4IDMxLjEwNTEgMC40MTEyOTkgMjMuNzg3NEMtMC4xMzcxIDE5Ljk0ODYgLTAuMTM3MSAxNi4wNTE0IDAuNDExMyAxMi4yMTI2QzEuNDA4NiA1LjIzMTQ0IDQuODk0OSAxLjQ1NjY4IDEyLjIxMjYgMC40MTEyOTlaIi8+JiN4YTs8cGF0aCBmaWxsPSJ3aGl0ZSIgZD0iTTE5LjQyODIgMjIuNDUzMUMxOS40MjgyIDIyLjk5OTcgMTkuMDAxOCAyMy40NDI3IDE4LjQ3NTkgMjMuNDQyN0MxNy45NDk5IDIzLjQ0MjcgMTcuNTIzNSAyMi45OTk3IDE3LjUyMzUgMjIuNDUzMUMxNy41MjM1IDIxLjkwNjYgMTcuOTQ5OSAyMS40NjM1IDE4LjQ3NTkgMjEuNDYzNUMxOS4wMDE4IDIxLjQ2MzUgMTkuNDI4MiAyMS45MDY2IDE5LjQyODIgMjIuNDUzMVoiLz4mI3hhOzxwYXRoIGZpbGw9IndoaXRlIiBkPSJNMjIuMjg1NCAyMi40NTMxQzIyLjI4NTQgMjIuOTk5NyAyMS44NTkgMjMuNDQyNyAyMS4zMzMgMjMuNDQyN0MyMC44MDcgMjMuNDQyNyAyMC4zODA2IDIyLjk5OTcgMjAuMzgwNiAyMi40NTMxQzIwLjM4MDYgMjEuOTA2NiAyMC44MDcgMjEuNDYzNSAyMS4zMzMgMjEuNDYzNUMyMS44NTkgMjEuNDYzNSAyMi4yODU0IDIxLjkwNjYgMjIuMjg1NCAyMi40NTMxWiIvPiYjeGE7PHBhdGggZmlsbD0id2hpdGUiIGQ9Ik0yNC42NjYzIDE5Ljk3OTJDMjQuNjY2MyAyMC42MzIxIDI0LjY2NjMgMjEuMjA4OCAyNC42NTU3IDIxLjcyMDVDMjQuNjY2MyAyMS44ODg3IDI0LjY2NjMgMjIuMTA1IDI0LjY2NjMgMjIuNDUzMUMyNC42NjYzIDIyLjkxMjcgMjQuNjY2MyAyMy4xNDI1IDI0LjY0MTkgMjMuMzM1NEMyNC40NzMxIDI0LjY2NzYgMjMuNDY0MiAyNS43MTU5IDIyLjE4MjEgMjUuODkxM0MyMS45OTY1IDI1LjkxNjcgMjEuNzc1MyAyNS45MTY3IDIxLjMzMyAyNS45MTY3SDE0LjY2NjNDMTQuMjI0IDI1LjkxNjcgMTQuMDAyOSAyNS45MTY3IDEzLjgxNzIgMjUuODkxM0MxMi41MzUxIDI1LjcxNTkgMTEuNTI2MiAyNC42Njc2IDExLjM1NzUgMjMuMzM1NEMxMS4zMzMgMjMuMTQyNSAxMS4zMzMgMjIuOTEyNyAxMS4zMzMgMjIuNDUzMUMxMS4zMzMgMjIuMTA1IDExLjMzMyAyMS44ODg3IDExLjM0MzYgMjEuNzIwNUMxMS4zMzMgMjEuMjA4OCAxMS4zMzMgMjAuNjMyMSAxMS4zMzMgMTkuOTc5MlYxNi4wMjA4QzExLjMzMyAxMy4yMjE5IDExLjMzMyAxMS44MjI0IDEyLjE2OTggMTAuOTUyOUMxMy4wMDY3IDEwLjA4MzMgMTQuMzUzNiAxMC4wODMzIDE3LjA0NzMgMTAuMDgzM0gxOC45NTIxQzIxLjY0NTggMTAuMDgzMyAyMi45OTI3IDEwLjA4MzMgMjMuODI5NSAxMC45NTI5QzI0LjY2NjMgMTEuODIyNCAyNC42NjYzIDEzLjIyMTkgMjQuNjY2MyAxNi4wMjA4VjE5Ljk3OTJaTTE3LjA0NzMgMTEuNTY3N0gxOC45NTIxQzIwLjMzOTMgMTEuNTY3NyAyMS4yMzYgMTEuNTcwOSAyMS44OTY4IDExLjY2MzJDMjIuNTE2NCAxMS43NDk3IDIyLjcxMDYgMTEuODg5NSAyMi44MTk0IDEyLjAwMjVDMjIuOTI4MSAxMi4xMTU1IDIzLjA2MjYgMTIuMzE3MyAyMy4xNDU5IDEyLjk2MTFDMjMuMjM0NyAxMy42NDc2IDIzLjIzNzggMTQuNTc5NCAyMy4yMzc4IDE2LjAyMDhWMTkuMzg3MUMyMi45MTk5IDE5LjE5NjMgMjIuNTYzMSAxOS4wNjcxIDIyLjE4MjEgMTkuMDE1QzIxLjk5NjUgMTguOTg5NiAyMS43NzUzIDE4Ljk4OTYgMjEuMzMzIDE4Ljk4OTZIMTQuNjY2M0MxNC4yMjQgMTguOTg5NiAxNC4wMDI5IDE4Ljk4OTYgMTMuODE3MiAxOS4wMTVDMTMuNDM2MyAxOS4wNjcxIDEzLjA3OTQgMTkuMTk2MyAxMi43NjE2IDE5LjM4NzFWMTYuMDIwOEMxMi43NjE2IDE0LjU3OTQgMTIuNzY0NiAxMy42NDc2IDEyLjg1MzQgMTIuOTYxMUMxMi45MzY4IDEyLjMxNzMgMTMuMDcxMiAxMi4xMTU1IDEzLjE4IDEyLjAwMjVDMTMuMjg4NyAxMS44ODk1IDEzLjQ4MyAxMS43NDk3IDE0LjEwMjYgMTEuNjYzMkMxNC43NjMzIDExLjU3MDkgMTUuNjYgMTEuNTY3NyAxNy4wNDczIDExLjU2NzdaTTIzLjIyMDcgMjEuOTU4M0MyMy4yMjI2IDIxLjg5NTkgMjMuMjI0MyAyMS44MzE4IDIzLjIyNTggMjEuNzY2MkwyMy4yMjU1IDIxLjc2NDZDMjMuMTQxMiAyMS4wOTg1IDIyLjYzNjcgMjAuNTc0MyAyMS45OTU3IDIwLjQ4NjdDMjEuOTI2MiAyMC40NzcyIDIxLjgyMDcgMjAuNDc0IDIxLjMzMyAyMC40NzRIMTQuNjY2M0MxNC4xNzg2IDIwLjQ3NCAxNC4wNzMxIDIwLjQ3NzIgMTQuMDAzNyAyMC40ODY3QzEzLjM2MjYgMjAuNTc0MyAxMi44NTgyIDIxLjA5ODUgMTIuNzczOCAyMS43NjQ2TDEyLjc3MzYgMjEuNzY2MkMxMi43NzUxIDIxLjgzMTggMTIuNzc2OCAyMS44OTU5IDEyLjc3ODcgMjEuOTU4M0gxMi43NjRDMTIuNzYyMyAyMi4wNTg0IDEyLjc2MTYgMjIuMjEwMSAxMi43NjE2IDIyLjQ1MzFDMTIuNzYxNiAyMi45NTk5IDEyLjc2NDcgMjMuMDY5NSAxMi43NzM4IDIzLjE0MTdDMTIuODU4MiAyMy44MDc4IDEzLjM2MjYgMjQuMzMxOSAxNC4wMDM3IDI0LjQxOTZDMTQuMDczMSAyNC40MjkxIDE0LjE3ODYgMjQuNDMyMyAxNC42NjYzIDI0LjQzMjNIMjEuMzMzQzIxLjgyMDcgMjQuNDMyMyAyMS45MjYyIDI0LjQyOTEgMjEuOTk1NyAyNC40MTk2QzIyLjYzNjcgMjQuMzMxOSAyMy4xNDEyIDIzLjgwNzggMjMuMjI1NSAyMy4xNDE3QzIzLjIzNDcgMjMuMDY5NSAyMy4yMzc4IDIyLjk1OTkgMjMuMjM3OCAyMi40NTMxQzIzLjIzNzggMjIuMjEwMSAyMy4yMzcxIDIyLjA1ODQgMjMuMjM1MyAyMS45NTgzSDIzLjIyMDdaIiBjbGlwLXJ1bGU9ImV2ZW5vZGQiIGZpbGwtcnVsZT0iZXZlbm9kZCIvPiYjeGE7PC9zdmc+;fontSize=16;fontFamily=VK Sans Display;" parent="1" vertex="1">
          <mxGeometry x="2014.25" y="260" width="50" height="50" as="geometry" />
        </mxCell>
        <mxCell id="QPyTJc_wchwOtDdB3o7i-11" value="" style="endArrow=open;html=1;fontFamily=VK Sans Display;fontColor=#212121;rounded=0;strokeColor=#7C8A9A;endFill=0;strokeWidth=2;arcSize=8;exitX=0.5;exitY=1;exitDx=0;exitDy=0;entryX=0.5;entryY=0;entryDx=0;entryDy=0;" parent="1" source="mH1W3D18dabg6ZcjXpEv-42" target="QPyTJc_wchwOtDdB3o7i-1" edge="1">
          <mxGeometry width="50" height="50" relative="1" as="geometry">
            <mxPoint x="2020" y="341" as="sourcePoint" />
            <mxPoint x="2020" y="381" as="targetPoint" />
          </mxGeometry>
        </mxCell>
      </root>
    </mxGraphModel>
  </diagram>
  <diagram id="yTEoHf1bbzoMy_X-wBKm" name="cluster mini">
    <mxGraphModel dx="-257" dy="756" grid="1" gridSize="10" guides="1" tooltips="1" connect="1" arrows="1" fold="1" page="1" pageScale="1" pageWidth="827" pageHeight="1169" math="0" shadow="0">
      <root>
        <mxCell id="0" />
        <mxCell id="1" parent="0" />
        <mxCell id="V6o-ulw3wgX80Zc9qYh9-1" value="VictoriaMetrics Cluster Mini&lt;br&gt;&lt;span style=&quot;font-weight: normal;&quot;&gt;replication factor = 2&lt;/span&gt;" style="rounded=1;whiteSpace=wrap;html=1;strokeColor=#7C8A9A;strokeWidth=1;fontColor=#212121;fillColor=none;dashed=1;fontFamily=VK Sans Display;verticalAlign=top;spacing=5;fontStyle=1;arcSize=12;absoluteArcSize=1;fontSize=16;points=[[0,0,0,0,0],[0,0.25,0,0,0],[0,0.5,0,0,0],[0,0.75,0,0,0],[0,1,0,0,0],[0.25,0,0,0,0],[0.25,1,0,0,0],[0.5,0,0,0,0],[0.5,1,0,0,0],[0.75,0,0,0,0],[0.75,1,0,0,0],[1,0,0,0,0],[1,0.25,0,0,0],[1,0.5,0,0,0],[1,0.75,0,0,0],[1,1,0,0,0]];" vertex="1" parent="1">
          <mxGeometry x="1819" y="50" width="990" height="430" as="geometry" />
        </mxCell>
        <mxCell id="V6o-ulw3wgX80Zc9qYh9-2" value="Applications" style="shape=image;verticalLabelPosition=bottom;labelBackgroundColor=default;verticalAlign=top;aspect=fixed;imageAspect=0;image=data:image/svg+xml,PHN2ZyB4bWxucz0iaHR0cDovL3d3dy53My5vcmcvMjAwMC9zdmciIGZpbGw9Im5vbmUiIHZpZXdCb3g9IjAgMCAyOCAyOCIgaGVpZ2h0PSIyOCIgd2lkdGg9IjI4Ij4mI3hhOzxwYXRoIGZpbGw9IiMyNjg4RUIiIGQ9Ik04LjA0MDE2IDNINy45NTk4NEg3Ljk1OTgxQzcuMjkzOTUgMi45OTk5OSA2LjczNDQ0IDIuOTk5OTcgNi4yNzY1NyAzLjAzNzM4QzUuNzk3ODUgMy4wNzY1IDUuMzQyODkgMy4xNjE0NCA0LjkxMTAzIDMuMzgxNDhDNC4yNTI0NyAzLjcxNzA0IDMuNzE3MDQgNC4yNTI0NyAzLjM4MTQ4IDQuOTExMDNDMy4xNjE0NCA1LjM0Mjg5IDMuMDc2NSA1Ljc5Nzg1IDMuMDM3MzggNi4yNzY1N0MyLjk5OTk3IDYuNzM0NDQgMi45OTk5OSA3LjI5Mzk1IDMgNy45NTk4MVY3Ljk1OTg0VjguMDQwMTZWOC4wNDAxOUMyLjk5OTk5IDguNzA2MDUgMi45OTk5NyA5LjI2NTU2IDMuMDM3MzggOS43MjM0M0MzLjA3NjUgMTAuMjAyMSAzLjE2MTQ0IDEwLjY1NzEgMy4zODE0OCAxMS4wODlDMy43MTcwNCAxMS43NDc1IDQuMjUyNDcgMTIuMjgzIDQuOTExMDMgMTIuNjE4NUM1LjM0Mjg5IDEyLjgzODYgNS43OTc4NSAxMi45MjM1IDYuMjc2NTcgMTIuOTYyNkM2LjczNDQ1IDEzIDcuMjkzOTggMTMgNy45NTk4NyAxM0g4LjA0MDE0QzguNzA2MDIgMTMgOS4yNjU1NSAxMyA5LjcyMzQzIDEyLjk2MjZDMTAuMjAyMSAxMi45MjM1IDEwLjY1NzEgMTIuODM4NiAxMS4wODkgMTIuNjE4NUMxMS43NDc1IDEyLjI4MyAxMi4yODMgMTEuNzQ3NSAxMi42MTg1IDExLjA4OUMxMi44Mzg2IDEwLjY1NzEgMTIuOTIzNSAxMC4yMDIxIDEyLjk2MjYgOS43MjM0M0MxMyA5LjI2NTU1IDEzIDguNzA2MDIgMTMgOC4wNDAxNFY3Ljk1OTg3QzEzIDcuMjkzOTggMTMgNi43MzQ0NSAxMi45NjI2IDYuMjc2NTdDMTIuOTIzNSA1Ljc5Nzg1IDEyLjgzODYgNS4zNDI4OSAxMi42MTg1IDQuOTExMDNDMTIuMjgzIDQuMjUyNDcgMTEuNzQ3NSAzLjcxNzA0IDExLjA4OSAzLjM4MTQ4QzEwLjY1NzEgMy4xNjE0NCAxMC4yMDIxIDMuMDc2NSA5LjcyMzQzIDMuMDM3MzhDOS4yNjU1NiAyLjk5OTk3IDguNzA2MDUgMi45OTk5OSA4LjA0MDE5IDNIOC4wNDAxNlpNNS44MTkwMiA1LjE2MzQ5QzUuOTIxOTQgNS4xMTEwNSA2LjA4NDQgNS4wNTk3NSA2LjQzOTQ0IDUuMDMwNzRDNi44MDYxNSA1LjAwMDc4IDcuMjgzNDMgNSA4IDVDOC43MTY1NyA1IDkuMTkzODUgNS4wMDA3OCA5LjU2MDU2IDUuMDMwNzRDOS45MTU2IDUuMDU5NzUgMTAuMDc4MSA1LjExMTA1IDEwLjE4MSA1LjE2MzQ5QzEwLjQ2MzIgNS4zMDczIDEwLjY5MjcgNS41MzY3NyAxMC44MzY1IDUuODE5MDJDMTAuODg5IDUuOTIxOTQgMTAuOTQwMyA2LjA4NDQgMTAuOTY5MyA2LjQzOTQ0QzEwLjk5OTIgNi44MDYxNSAxMSA3LjI4MzQzIDExIDhDMTEgOC43MTY1NyAxMC45OTkyIDkuMTkzODUgMTAuOTY5MyA5LjU2MDU2QzEwLjk0MDMgOS45MTU2IDEwLjg4OSAxMC4wNzgxIDEwLjgzNjUgMTAuMTgxQzEwLjY5MjcgMTAuNDYzMiAxMC40NjMyIDEwLjY5MjcgMTAuMTgxIDEwLjgzNjVDMTAuMDc4MSAxMC44ODkgOS45MTU2IDEwLjk0MDMgOS41NjA1NiAxMC45NjkzQzkuMTkzODUgMTAuOTk5MiA4LjcxNjU3IDExIDggMTFDNy4yODM0MyAxMSA2LjgwNjE1IDEwLjk5OTIgNi40Mzk0NCAxMC45NjkzQzYuMDg0NCAxMC45NDAzIDUuOTIxOTQgMTAuODg5IDUuODE5MDIgMTAuODM2NUM1LjUzNjc3IDEwLjY5MjcgNS4zMDczIDEwLjQ2MzIgNS4xNjM0OSAxMC4xODFDNS4xMTEwNSAxMC4wNzgxIDUuMDU5NzUgOS45MTU2IDUuMDMwNzQgOS41NjA1NkM1LjAwMDc4IDkuMTkzODUgNSA4LjcxNjU3IDUgOEM1IDcuMjgzNDMgNS4wMDA3OCA2LjgwNjE1IDUuMDMwNzQgNi40Mzk0NEM1LjA1OTc1IDYuMDg0NCA1LjExMTA1IDUuOTIxOTQgNS4xNjM0OSA1LjgxOTAyQzUuMzA3MyA1LjUzNjc3IDUuNTM2NzcgNS4zMDczIDUuODE5MDIgNS4xNjM0OVpNOS43MjM0MyAxNS4wMzc0QzkuMjY1NTYgMTUgOC43MDYwMyAxNSA4LjA0MDE2IDE1SDcuOTU5ODRDNy4yOTM5NyAxNSA2LjczNDQ1IDE1IDYuMjc2NTcgMTUuMDM3NEM1Ljc5Nzg1IDE1LjA3NjUgNS4zNDI4OSAxNS4xNjE0IDQuOTExMDMgMTUuMzgxNUM0LjI1MjQ3IDE1LjcxNyAzLjcxNzA0IDE2LjI1MjUgMy4zODE0OCAxNi45MTFDMy4xNjE0NCAxNy4zNDI5IDMuMDc2NSAxNy43OTc5IDMuMDM3MzggMTguMjc2NkMyLjk5OTk3IDE4LjczNDQgMi45OTk5OSAxOS4yOTQgMyAxOS45NTk4VjE5Ljk1OThWMjAuMDQwMlYyMC4wNDAyQzIuOTk5OTkgMjAuNzA2MSAyLjk5OTk3IDIxLjI2NTYgMy4wMzczOCAyMS43MjM0QzMuMDc2NSAyMi4yMDIxIDMuMTYxNDQgMjIuNjU3MSAzLjM4MTQ4IDIzLjA4OUMzLjcxNzA0IDIzLjc0NzUgNC4yNTI0NyAyNC4yODMgNC45MTEwMyAyNC42MTg1QzUuMzQyODkgMjQuODM4NiA1Ljc5Nzg1IDI0LjkyMzUgNi4yNzY1NyAyNC45NjI2QzYuNzM0NDMgMjUgNy4yOTM5NCAyNSA3Ljk1OTc4IDI1SDcuOTU5ODFINy45NTk4NEg3Ljk1OTg3SDguMDQwMTRIOC4wNDAxNkg4LjA0MDE5SDguMDQwMjJDOC43MDYwNyAyNSA5LjI2NTU3IDI1IDkuNzIzNDMgMjQuOTYyNkMxMC4yMDIxIDI0LjkyMzUgMTAuNjU3MSAyNC44Mzg2IDExLjA4OSAyNC42MTg1QzExLjc0NzUgMjQuMjgzIDEyLjI4MyAyMy43NDc1IDEyLjYxODUgMjMuMDg5QzEyLjgzODYgMjIuNjU3MSAxMi45MjM1IDIyLjIwMjEgMTIuOTYyNiAyMS43MjM0QzEzIDIxLjI2NTYgMTMgMjAuNzA2IDEzIDIwLjA0MDFWMTkuOTU5OUMxMyAxOS4yOTQgMTMgMTguNzM0NSAxMi45NjI2IDE4LjI3NjZDMTIuOTIzNSAxNy43OTc5IDEyLjgzODYgMTcuMzQyOSAxMi42MTg1IDE2LjkxMUMxMi4yODMgMTYuMjUyNSAxMS43NDc1IDE1LjcxNyAxMS4wODkgMTUuMzgxNUMxMC42NTcxIDE1LjE2MTQgMTAuMjAyMSAxNS4wNzY1IDkuNzIzNDMgMTUuMDM3NFpNNS44MTkwMiAxNy4xNjM1QzUuOTIxOTQgMTcuMTExIDYuMDg0NCAxNy4wNTk3IDYuNDM5NDQgMTcuMDMwN0M2LjgwNjE1IDE3LjAwMDggNy4yODM0MyAxNyA4IDE3QzguNzE2NTcgMTcgOS4xOTM4NSAxNy4wMDA4IDkuNTYwNTYgMTcuMDMwN0M5LjkxNTYgMTcuMDU5NyAxMC4wNzgxIDE3LjExMSAxMC4xODEgMTcuMTYzNUMxMC40NjMyIDE3LjMwNzMgMTAuNjkyNyAxNy41MzY4IDEwLjgzNjUgMTcuODE5QzEwLjg4OSAxNy45MjE5IDEwLjk0MDMgMTguMDg0NCAxMC45NjkzIDE4LjQzOTRDMTAuOTk5MiAxOC44MDYyIDExIDE5LjI4MzQgMTEgMjBDMTEgMjAuNzE2NiAxMC45OTkyIDIxLjE5MzkgMTAuOTY5MyAyMS41NjA2QzEwLjk0MDMgMjEuOTE1NiAxMC44ODkgMjIuMDc4MSAxMC44MzY1IDIyLjE4MUMxMC42OTI3IDIyLjQ2MzIgMTAuNDYzMiAyMi42OTI3IDEwLjE4MSAyMi44MzY1QzEwLjA3ODEgMjIuODg5IDkuOTE1NiAyMi45NDAzIDkuNTYwNTYgMjIuOTY5M0M5LjE5Mzg1IDIyLjk5OTIgOC43MTY1NyAyMyA4IDIzQzcuMjgzNDMgMjMgNi44MDYxNSAyMi45OTkyIDYuNDM5NDQgMjIuOTY5M0M2LjA4NDQgMjIuOTQwMyA1LjkyMTk0IDIyLjg4OSA1LjgxOTAyIDIyLjgzNjVDNS41MzY3NyAyMi42OTI3IDUuMzA3MyAyMi40NjMyIDUuMTYzNDkgMjIuMTgxQzUuMTExMDUgMjIuMDc4MSA1LjA1OTc1IDIxLjkxNTYgNS4wMzA3NCAyMS41NjA2QzUuMDAwNzggMjEuMTkzOSA1IDIwLjcxNjYgNSAyMEM1IDE5LjI4MzQgNS4wMDA3OCAxOC44MDYyIDUuMDMwNzQgMTguNDM5NEM1LjA1OTc1IDE4LjA4NDQgNS4xMTEwNSAxNy45MjE5IDUuMTYzNDkgMTcuODE5QzUuMzA3MyAxNy41MzY4IDUuNTM2NzcgMTcuMzA3MyA1LjgxOTAyIDE3LjE2MzVaTTE4LjI3NjYgMTUuMDM3NEMxOC43MzQ0IDE1IDE5LjI5NCAxNSAxOS45NTk4IDE1SDIwLjA0MDJDMjAuNzA2IDE1IDIxLjI2NTYgMTUgMjEuNzIzNCAxNS4wMzc0QzIyLjIwMjEgMTUuMDc2NSAyMi42NTcxIDE1LjE2MTQgMjMuMDg5IDE1LjM4MTVDMjMuNzQ3NSAxNS43MTcgMjQuMjgzIDE2LjI1MjUgMjQuNjE4NSAxNi45MTFDMjQuODM4NiAxNy4zNDI5IDI0LjkyMzUgMTcuNzk3OSAyNC45NjI2IDE4LjI3NjZDMjUgMTguNzM0NCAyNSAxOS4yOTQgMjUgMTkuOTU5OFYxOS45NTk4VjE5Ljk1OTlWMjAuMDQwMVYyMC4wNDAyVjIwLjA0MDJDMjUgMjAuNzA2IDI1IDIxLjI2NTYgMjQuOTYyNiAyMS43MjM0QzI0LjkyMzUgMjIuMjAyMSAyNC44Mzg2IDIyLjY1NzEgMjQuNjE4NSAyMy4wODlDMjQuMjgzIDIzLjc0NzUgMjMuNzQ3NSAyNC4yODMgMjMuMDg5IDI0LjYxODVDMjIuNjU3MSAyNC44Mzg2IDIyLjIwMjEgMjQuOTIzNSAyMS43MjM0IDI0Ljk2MjZDMjEuMjY1NiAyNSAyMC43MDYgMjUgMjAuMDQwMiAyNUgyMC4wNDAySDIwLjA0MDFIMTkuOTU5OUgxOS45NTk4SDE5Ljk1OThDMTkuMjk0IDI1IDE4LjczNDQgMjUgMTguMjc2NiAyNC45NjI2QzE3Ljc5NzkgMjQuOTIzNSAxNy4zNDI5IDI0LjgzODYgMTYuOTExIDI0LjYxODVDMTYuMjUyNSAyNC4yODMgMTUuNzE3IDIzLjc0NzUgMTUuMzgxNSAyMy4wODlDMTUuMTYxNCAyMi42NTcxIDE1LjA3NjUgMjIuMjAyMSAxNS4wMzc0IDIxLjcyMzRDMTUgMjEuMjY1NiAxNSAyMC43MDYgMTUgMjAuMDQwMlYxOS45NTk4QzE1IDE5LjI5NCAxNSAxOC43MzQ0IDE1LjAzNzQgMTguMjc2NkMxNS4wNzY1IDE3Ljc5NzkgMTUuMTYxNCAxNy4zNDI5IDE1LjM4MTUgMTYuOTExQzE1LjcxNyAxNi4yNTI1IDE2LjI1MjUgMTUuNzE3IDE2LjkxMSAxNS4zODE1QzE3LjM0MjkgMTUuMTYxNCAxNy43OTc5IDE1LjA3NjUgMTguMjc2NiAxNS4wMzc0Wk0xOC40Mzk0IDE3LjAzMDdDMTguMDg0NCAxNy4wNTk3IDE3LjkyMTkgMTcuMTExIDE3LjgxOSAxNy4xNjM1QzE3LjUzNjggMTcuMzA3MyAxNy4zMDczIDE3LjUzNjggMTcuMTYzNSAxNy44MTlDMTcuMTExIDE3LjkyMTkgMTcuMDU5NyAxOC4wODQ0IDE3LjAzMDcgMTguNDM5NEMxNy4wMDA4IDE4LjgwNjIgMTcgMTkuMjgzNCAxNyAyMEMxNyAyMC43MTY2IDE3LjAwMDggMjEuMTkzOSAxNy4wMzA3IDIxLjU2MDZDMTcuMDU5NyAyMS45MTU2IDE3LjExMSAyMi4wNzgxIDE3LjE2MzUgMjIuMTgxQzE3LjMwNzMgMjIuNDYzMiAxNy41MzY4IDIyLjY5MjcgMTcuODE5IDIyLjgzNjVDMTcuOTIxOSAyMi44ODkgMTguMDg0NCAyMi45NDAzIDE4LjQzOTQgMjIuOTY5M0MxOC44MDYyIDIyLjk5OTIgMTkuMjgzNCAyMyAyMCAyM0MyMC43MTY2IDIzIDIxLjE5MzkgMjIuOTk5MiAyMS41NjA2IDIyLjk2OTNDMjEuOTE1NiAyMi45NDAzIDIyLjA3ODEgMjIuODg5IDIyLjE4MSAyMi44MzY1QzIyLjQ2MzIgMjIuNjkyNyAyMi42OTI3IDIyLjQ2MzIgMjIuODM2NSAyMi4xODFDMjIuODg5IDIyLjA3ODEgMjIuOTQwMyAyMS45MTU2IDIyLjk2OTMgMjEuNTYwNkMyMi45OTkyIDIxLjE5MzkgMjMgMjAuNzE2NiAyMyAyMEMyMyAxOS4yODM0IDIyLjk5OTIgMTguODA2MiAyMi45NjkzIDE4LjQzOTRDMjIuOTQwMyAxOC4wODQ0IDIyLjg4OSAxNy45MjE5IDIyLjgzNjUgMTcuODE5QzIyLjY5MjcgMTcuNTM2OCAyMi40NjMyIDE3LjMwNzMgMjIuMTgxIDE3LjE2MzVDMjIuMDc4MSAxNy4xMTEgMjEuOTE1NiAxNy4wNTk3IDIxLjU2MDYgMTcuMDMwN0MyMS4xOTM5IDE3LjAwMDggMjAuNzE2NiAxNyAyMCAxN0MxOS4yODM0IDE3IDE4LjgwNjIgMTcuMDAwOCAxOC40Mzk0IDE3LjAzMDdaTTIwLjA0MDIgM0gxOS45NTk4SDE5Ljk1OThDMTkuMjk0IDIuOTk5OTkgMTguNzM0NCAyLjk5OTk3IDE4LjI3NjYgMy4wMzczOEMxNy43OTc5IDMuMDc2NSAxNy4zNDI5IDMuMTYxNDQgMTYuOTExIDMuMzgxNDhDMTYuMjUyNSAzLjcxNzA0IDE1LjcxNyA0LjI1MjQ3IDE1LjM4MTUgNC45MTEwM0MxNS4xNjE0IDUuMzQyODkgMTUuMDc2NSA1Ljc5Nzg1IDE1LjAzNzQgNi4yNzY1N0MxNSA2LjczNDQ1IDE1IDcuMjkzOTcgMTUgNy45NTk4NFY4LjA0MDE2QzE1IDguNzA2MDMgMTUgOS4yNjU1NiAxNS4wMzc0IDkuNzIzNDNDMTUuMDc2NSAxMC4yMDIxIDE1LjE2MTQgMTAuNjU3MSAxNS4zODE1IDExLjA4OUMxNS43MTcgMTEuNzQ3NSAxNi4yNTI1IDEyLjI4MyAxNi45MTEgMTIuNjE4NUMxNy4zNDI5IDEyLjgzODYgMTcuNzk3OSAxMi45MjM1IDE4LjI3NjYgMTIuOTYyNkMxOC43MzQ1IDEzIDE5LjI5NCAxMyAxOS45NTk5IDEzSDIwLjA0MDFDMjAuNzA2IDEzIDIxLjI2NTYgMTMgMjEuNzIzNCAxMi45NjI2QzIyLjIwMjEgMTIuOTIzNSAyMi42NTcxIDEyLjgzODYgMjMuMDg5IDEyLjYxODVDMjMuNzQ3NSAxMi4yODMgMjQuMjgzIDExLjc0NzUgMjQuNjE4NSAxMS4wODlDMjQuODM4NiAxMC42NTcxIDI0LjkyMzUgMTAuMjAyMSAyNC45NjI2IDkuNzIzNDNDMjUgOS4yNjU1NiAyNSA4LjcwNjAzIDI1IDguMDQwMTZWOC4wNDAxNFY3Ljk1OTg3VjcuOTU5ODRDMjUgNy4yOTM5NyAyNSA2LjczNDQ0IDI0Ljk2MjYgNi4yNzY1N0MyNC45MjM1IDUuNzk3ODUgMjQuODM4NiA1LjM0Mjg5IDI0LjYxODUgNC45MTEwM0MyNC4yODMgNC4yNTI0NyAyMy43NDc1IDMuNzE3MDQgMjMuMDg5IDMuMzgxNDhDMjIuNjU3MSAzLjE2MTQ0IDIyLjIwMjEgMy4wNzY1IDIxLjcyMzQgMy4wMzczOEMyMS4yNjU2IDIuOTk5OTcgMjAuNzA2MSAyLjk5OTk5IDIwLjA0MDIgM0gyMC4wNDAyWk0xNy44MTkgNS4xNjM0OUMxNy45MjE5IDUuMTExMDUgMTguMDg0NCA1LjA1OTc1IDE4LjQzOTQgNS4wMzA3NEMxOC44MDYyIDUuMDAwNzggMTkuMjgzNCA1IDIwIDVDMjAuNzE2NiA1IDIxLjE5MzkgNS4wMDA3OCAyMS41NjA2IDUuMDMwNzRDMjEuOTE1NiA1LjA1OTc1IDIyLjA3ODEgNS4xMTEwNSAyMi4xODEgNS4xNjM0OUMyMi40NjMyIDUuMzA3MyAyMi42OTI3IDUuNTM2NzcgMjIuODM2NSA1LjgxOTAyQzIyLjg4OSA1LjkyMTk0IDIyLjk0MDMgNi4wODQ0IDIyLjk2OTMgNi40Mzk0NEMyMi45OTkyIDYuODA2MTUgMjMgNy4yODM0MyAyMyA4QzIzIDguNzE2NTcgMjIuOTk5MiA5LjE5Mzg1IDIyLjk2OTMgOS41NjA1NkMyMi45NDAzIDkuOTE1NiAyMi44ODkgMTAuMDc4MSAyMi44MzY1IDEwLjE4MUMyMi42OTI3IDEwLjQ2MzIgMjIuNDYzMiAxMC42OTI3IDIyLjE4MSAxMC44MzY1QzIyLjA3ODEgMTAuODg5IDIxLjkxNTYgMTAuOTQwMyAyMS41NjA2IDEwLjk2OTNDMjEuMTkzOSAxMC45OTkyIDIwLjcxNjYgMTEgMjAgMTFDMTkuMjgzNCAxMSAxOC44MDYyIDEwLjk5OTIgMTguNDM5NCAxMC45NjkzQzE4LjA4NDQgMTAuOTQwMyAxNy45MjE5IDEwLjg4OSAxNy44MTkgMTAuODM2NUMxNy41MzY4IDEwLjY5MjcgMTcuMzA3MyAxMC40NjMyIDE3LjE2MzUgMTAuMTgxQzE3LjExMSAxMC4wNzgxIDE3LjA1OTcgOS45MTU2IDE3LjAzMDcgOS41NjA1NkMxNy4wMDA4IDkuMTkzODUgMTcgOC43MTY1NyAxNyA4QzE3IDcuMjgzNDMgMTcuMDAwOCA2LjgwNjE1IDE3LjAzMDcgNi40Mzk0NEMxNy4wNTk3IDYuMDg0NCAxNy4xMTEgNS45MjE5NCAxNy4xNjM1IDUuODE5MDJDMTcuMzA3MyA1LjUzNjc3IDE3LjUzNjggNS4zMDczIDE3LjgxOSA1LjE2MzQ5WiIgY2xpcC1ydWxlPSJldmVub2RkIiBmaWxsLXJ1bGU9ImV2ZW5vZGQiLz4mI3hhOzwvc3ZnPg==;fontSize=16;fontFamily=VK Sans Display;" vertex="1" parent="1">
          <mxGeometry x="1721.5" y="291" width="53" height="53" as="geometry" />
        </mxCell>
        <mxCell id="V6o-ulw3wgX80Zc9qYh9-3" value="User" style="shape=image;verticalLabelPosition=bottom;labelBackgroundColor=default;verticalAlign=top;aspect=fixed;imageAspect=0;image=data:image/svg+xml,PHN2ZyB4bWxucz0iaHR0cDovL3d3dy53My5vcmcvMjAwMC9zdmciIGZpbGw9Im5vbmUiIHZpZXdCb3g9IjAgMCAyOCAyOCIgaGVpZ2h0PSIyOCIgd2lkdGg9IjI4Ij4mI3hhOzxwYXRoIGZpbGw9IiMyNjg4RUIiIGQ9Ik0xNy41IDguNUMxNy41IDYuNTY2MDMgMTUuOTM0IDUgMTQgNUMxMi4wNjYgNSAxMC41IDYuNTY2MDMgMTAuNSA4LjVDMTAuNSAxMC40MzQgMTIuMDY2IDEyIDE0IDEyQzE1LjkzNCAxMiAxNy41IDEwLjQzNCAxNy41IDguNVpNMTkuNSA4LjVDMTkuNSAxMS41Mzg1IDE3LjAzODUgMTQgMTQgMTRDMTAuOTYxNSAxNCA4LjUgMTEuNTM4NSA4LjUgOC41QzguNSA1LjQ2MTQ3IDEwLjk2MTUgMyAxNCAzQzE3LjAzODUgMyAxOS41IDUuNDYxNDcgMTkuNSA4LjVaTTcgMjAuNjQyOUM3IDIxLjU4NjIgNi45MTk4NyAyMS41IDcuNDU1ODggMjEuNUgyMS4wNDQxQzIxLjU4MDEgMjEuNSAyMS41IDIxLjU4NjIgMjEuNSAyMC42NDI5QzIxLjUgMTguMzU0NyAxOC4xOTYgMTcgMTQuMjUgMTdDMTAuMzA0IDE3IDcgMTguMzU0NyA3IDIwLjY0MjlaTTUgMjAuNjQyOUM1IDE2Ljc2MjYgOS4yOTg5MiAxNSAxNC4yNSAxNUMxOS4yMDExIDE1IDIzLjUgMTYuNzYyNiAyMy41IDIwLjY0MjlDMjMuNSAyMi42NTkzIDIyLjcxODkgMjMuNSAyMS4wNDQxIDIzLjVINy40NTU4OEM1Ljc4MTExIDIzLjUgNSAyMi42NTkzIDUgMjAuNjQyOVoiLz4mI3hhOzwvc3ZnPg==;fontFamily=VK Sans Display;spacing=-7;fontColor=#212121;fontSize=16;" vertex="1" parent="1">
          <mxGeometry x="1720" y="181.9999999999999" width="56" height="56" as="geometry" />
        </mxCell>
        <mxCell id="V6o-ulw3wgX80Zc9qYh9-4" value="Requests" style="endArrow=open;html=1;fontFamily=VK Sans Display;fontColor=#212121;rounded=1;strokeColor=#87D6E8;endFill=0;arcsize=8;startArrow=none;startFill=0;strokeWidth=2;labelBackgroundColor=#FFFFFF;textOpacity=70;verticalAlign=middle;spacing=8;fontSize=16;arcSize=8;exitX=1;exitY=0.5;exitDx=0;exitDy=0;entryX=0;entryY=0.5;entryDx=0;entryDy=0;" edge="1" parent="1" source="V6o-ulw3wgX80Zc9qYh9-3" target="V6o-ulw3wgX80Zc9qYh9-6">
          <mxGeometry x="-0.0943" width="50" height="50" relative="1" as="geometry">
            <mxPoint x="1683" y="331.42999999999995" as="sourcePoint" />
            <mxPoint x="1809" y="268" as="targetPoint" />
            <mxPoint as="offset" />
          </mxGeometry>
        </mxCell>
        <mxCell id="V6o-ulw3wgX80Zc9qYh9-5" value="&lt;b style=&quot;border-color: var(--border-color);&quot;&gt;Virtual machine&lt;/b&gt;&lt;b&gt;&amp;nbsp;1&lt;/b&gt;" style="rounded=1;whiteSpace=wrap;html=1;fillColor=none;dashed=1;strokeColor=#7C8A9A;;arcSize=12;absoluteArcSize=1;fontFamily=VK Sans Display;verticalAlign=top;spacing=10;fontSize=16;" vertex="1" parent="1">
          <mxGeometry x="1869" y="139" width="240" height="320" as="geometry" />
        </mxCell>
        <mxCell id="V6o-ulw3wgX80Zc9qYh9-6" value="vmselect" style="rounded=1;whiteSpace=wrap;html=1;arcSize=12;absoluteArcSize=1;fillColor=#F6F7F9;strokeColor=none;fontSize=16;fontFamily=VK Sans Display;" vertex="1" parent="1">
          <mxGeometry x="1930.5" y="189" width="120" height="40" as="geometry" />
        </mxCell>
        <mxCell id="V6o-ulw3wgX80Zc9qYh9-7" style="endArrow=open;html=1;fontFamily=VK Sans Display;fontColor=#212121;rounded=1;strokeColor=#E188D0;endFill=0;arcsize=8;startArrow=none;startFill=0;strokeWidth=2;labelBackgroundColor=#FFFFFF;textOpacity=70;verticalAlign=middle;spacing=8;fontSize=16;arcSize=8;exitX=1;exitY=0.25;exitDx=0;exitDy=0;entryX=0;entryY=0.75;entryDx=0;entryDy=0;" edge="1" parent="1" source="V6o-ulw3wgX80Zc9qYh9-9" target="V6o-ulw3wgX80Zc9qYh9-14">
          <mxGeometry relative="1" as="geometry">
            <Array as="points">
              <mxPoint x="2129" y="250" />
              <mxPoint x="2129" y="320" />
            </Array>
          </mxGeometry>
        </mxCell>
        <mxCell id="V6o-ulw3wgX80Zc9qYh9-8" value="" style="endArrow=open;html=1;fontFamily=VK Sans Display;fontColor=#212121;rounded=1;strokeColor=#E188D0;endFill=0;arcsize=8;startArrow=none;startFill=0;strokeWidth=2;labelBackgroundColor=#FFFFFF;textOpacity=70;verticalAlign=middle;spacing=8;fontSize=16;arcSize=8;exitX=1;exitY=0.5;exitDx=0;exitDy=0;entryX=0;entryY=0.5;entryDx=0;entryDy=0;" vertex="1" connectable="0" parent="V6o-ulw3wgX80Zc9qYh9-7">
          <mxGeometry x="-0.0264" y="1" relative="1" as="geometry">
            <mxPoint y="33" as="offset" />
          </mxGeometry>
        </mxCell>
        <mxCell id="V6o-ulw3wgX80Zc9qYh9-9" value="vminsert" style="rounded=1;whiteSpace=wrap;html=1;arcSize=12;absoluteArcSize=1;fillColor=#F6F7F9;strokeColor=none;fontSize=16;fontFamily=VK Sans Display;" vertex="1" parent="1">
          <mxGeometry x="1930.5" y="239" width="120" height="40" as="geometry" />
        </mxCell>
        <mxCell id="V6o-ulw3wgX80Zc9qYh9-10" value="vmstorage" style="rounded=1;whiteSpace=wrap;html=1;arcSize=12;absoluteArcSize=1;fillColor=#F6F7F9;strokeColor=none;fontSize=16;fontFamily=VK Sans Display;" vertex="1" parent="1">
          <mxGeometry x="1930.5" y="289" width="120" height="40" as="geometry" />
        </mxCell>
        <mxCell id="V6o-ulw3wgX80Zc9qYh9-11" value="&lt;b style=&quot;border-color: var(--border-color);&quot;&gt;Virtual machine&lt;/b&gt;&lt;b&gt;&amp;nbsp;2&lt;/b&gt;" style="rounded=1;whiteSpace=wrap;html=1;fillColor=none;dashed=1;strokeColor=#7C8A9A;;arcSize=12;absoluteArcSize=1;fontFamily=VK Sans Display;verticalAlign=top;spacing=10;fontSize=16;" vertex="1" parent="1">
          <mxGeometry x="2149" y="139" width="240" height="320" as="geometry" />
        </mxCell>
        <mxCell id="V6o-ulw3wgX80Zc9qYh9-12" value="vmselect" style="rounded=1;whiteSpace=wrap;html=1;arcSize=12;absoluteArcSize=1;fillColor=#F6F7F9;strokeColor=none;fontSize=16;fontFamily=VK Sans Display;" vertex="1" parent="1">
          <mxGeometry x="2209" y="189" width="120" height="40" as="geometry" />
        </mxCell>
        <mxCell id="V6o-ulw3wgX80Zc9qYh9-13" value="vminsert" style="rounded=1;whiteSpace=wrap;html=1;arcSize=12;absoluteArcSize=1;fillColor=#F6F7F9;strokeColor=none;fontSize=16;fontFamily=VK Sans Display;" vertex="1" parent="1">
          <mxGeometry x="2209" y="239" width="120" height="40" as="geometry" />
        </mxCell>
        <mxCell id="V6o-ulw3wgX80Zc9qYh9-14" value="vmstorage" style="rounded=1;whiteSpace=wrap;html=1;arcSize=12;absoluteArcSize=1;fillColor=#F6F7F9;strokeColor=none;fontSize=16;fontFamily=VK Sans Display;" vertex="1" parent="1">
          <mxGeometry x="2209" y="289" width="120" height="40" as="geometry" />
        </mxCell>
        <mxCell id="V6o-ulw3wgX80Zc9qYh9-15" value="&lt;b style=&quot;border-color: var(--border-color);&quot;&gt;Virtual machine&lt;/b&gt;&lt;b&gt;&amp;nbsp;N&lt;/b&gt;" style="rounded=1;whiteSpace=wrap;html=1;fillColor=none;dashed=1;strokeColor=#7C8A9A;;arcSize=12;absoluteArcSize=1;fontFamily=VK Sans Display;verticalAlign=top;spacing=10;fontSize=16;" vertex="1" parent="1">
          <mxGeometry x="2429" y="139" width="330" height="320" as="geometry" />
        </mxCell>
        <mxCell id="V6o-ulw3wgX80Zc9qYh9-16" value="vmselect" style="rounded=1;whiteSpace=wrap;html=1;arcSize=12;absoluteArcSize=1;fillColor=#F6F7F9;strokeColor=none;fontSize=16;fontFamily=VK Sans Display;" vertex="1" parent="1">
          <mxGeometry x="2469" y="189" width="120" height="40" as="geometry" />
        </mxCell>
        <mxCell id="V6o-ulw3wgX80Zc9qYh9-17" value="vminsert" style="rounded=1;whiteSpace=wrap;html=1;arcSize=12;absoluteArcSize=1;fillColor=#F6F7F9;strokeColor=none;fontSize=16;fontFamily=VK Sans Display;" vertex="1" parent="1">
          <mxGeometry x="2469" y="239" width="120" height="40" as="geometry" />
        </mxCell>
        <mxCell id="V6o-ulw3wgX80Zc9qYh9-18" value="vmstorage" style="rounded=1;whiteSpace=wrap;html=1;arcSize=12;absoluteArcSize=1;fillColor=#F6F7F9;strokeColor=none;fontSize=16;fontFamily=VK Sans Display;" vertex="1" parent="1">
          <mxGeometry x="2469" y="289" width="120" height="40" as="geometry" />
        </mxCell>
        <mxCell id="V6o-ulw3wgX80Zc9qYh9-19" value="Metrics push" style="endArrow=open;html=1;fontFamily=VK Sans Display;fontColor=#212121;rounded=1;strokeColor=#E188D0;endFill=0;arcsize=8;startArrow=none;startFill=0;strokeWidth=2;labelBackgroundColor=#FFFFFF;textOpacity=70;verticalAlign=middle;spacing=8;fontSize=16;arcSize=8;exitX=1;exitY=0.5;exitDx=0;exitDy=0;entryX=0;entryY=0.5;entryDx=0;entryDy=0;" edge="1" parent="1" source="V6o-ulw3wgX80Zc9qYh9-2" target="V6o-ulw3wgX80Zc9qYh9-9">
          <mxGeometry x="-0.0354" width="50" height="50" relative="1" as="geometry">
            <mxPoint x="1643" y="361" as="sourcePoint" />
            <mxPoint x="1791" y="360" as="targetPoint" />
            <Array as="points">
              <mxPoint x="1829" y="317" />
              <mxPoint x="1829" y="259" />
            </Array>
            <mxPoint as="offset" />
          </mxGeometry>
        </mxCell>
        <mxCell id="V6o-ulw3wgX80Zc9qYh9-20" value="" style="endArrow=open;html=1;fontFamily=VK Sans Display;fontColor=#212121;rounded=1;strokeColor=#E188D0;endFill=0;arcsize=8;startArrow=none;startFill=0;strokeWidth=2;labelBackgroundColor=#FFFFFF;textOpacity=70;verticalAlign=middle;spacing=8;fontSize=16;arcSize=8;exitX=1;exitY=0.75;exitDx=0;exitDy=0;entryX=1;entryY=0.75;entryDx=0;entryDy=0;" edge="1" parent="1" source="V6o-ulw3wgX80Zc9qYh9-9" target="V6o-ulw3wgX80Zc9qYh9-10">
          <mxGeometry width="50" height="50" relative="1" as="geometry">
            <mxPoint x="2018" y="656" as="sourcePoint" />
            <mxPoint x="2109" y="702" as="targetPoint" />
            <Array as="points">
              <mxPoint x="2069" y="269" />
              <mxPoint x="2069" y="319" />
            </Array>
          </mxGeometry>
        </mxCell>
        <mxCell id="V6o-ulw3wgX80Zc9qYh9-21" value="vmagent" style="rounded=1;whiteSpace=wrap;html=1;arcSize=12;absoluteArcSize=1;fillColor=#F6F7F9;strokeColor=none;fontSize=16;fontFamily=VK Sans Display;" vertex="1" parent="1">
          <mxGeometry x="2599" y="189" width="120" height="40" as="geometry" />
        </mxCell>
        <mxCell id="V6o-ulw3wgX80Zc9qYh9-22" value="Metrics push" style="endArrow=open;html=1;fontFamily=VK Sans Display;fontColor=#212121;rounded=1;strokeColor=#E188D0;endFill=0;arcsize=8;startArrow=none;startFill=0;strokeWidth=2;labelBackgroundColor=#FFFFFF;textOpacity=70;verticalAlign=middle;spacing=8;fontSize=16;arcSize=8;exitX=0.5;exitY=1;exitDx=0;exitDy=0;entryX=1;entryY=0.25;entryDx=0;entryDy=0;" edge="1" parent="1" source="V6o-ulw3wgX80Zc9qYh9-21" target="V6o-ulw3wgX80Zc9qYh9-17">
          <mxGeometry x="-0.5385" y="13" width="50" height="50" relative="1" as="geometry">
            <mxPoint x="2689" y="597" as="sourcePoint" />
            <mxPoint x="2876" y="530" as="targetPoint" />
            <Array as="points">
              <mxPoint x="2659" y="250" />
            </Array>
            <mxPoint x="10" y="-4" as="offset" />
          </mxGeometry>
        </mxCell>
        <mxCell id="V6o-ulw3wgX80Zc9qYh9-23" value="Applications" style="shape=image;verticalLabelPosition=bottom;labelBackgroundColor=default;verticalAlign=top;aspect=fixed;imageAspect=0;image=data:image/svg+xml,PHN2ZyB4bWxucz0iaHR0cDovL3d3dy53My5vcmcvMjAwMC9zdmciIGZpbGw9Im5vbmUiIHZpZXdCb3g9IjAgMCAyOCAyOCIgaGVpZ2h0PSIyOCIgd2lkdGg9IjI4Ij4mI3hhOzxwYXRoIGZpbGw9IiMyNjg4RUIiIGQ9Ik04LjA0MDE2IDNINy45NTk4NEg3Ljk1OTgxQzcuMjkzOTUgMi45OTk5OSA2LjczNDQ0IDIuOTk5OTcgNi4yNzY1NyAzLjAzNzM4QzUuNzk3ODUgMy4wNzY1IDUuMzQyODkgMy4xNjE0NCA0LjkxMTAzIDMuMzgxNDhDNC4yNTI0NyAzLjcxNzA0IDMuNzE3MDQgNC4yNTI0NyAzLjM4MTQ4IDQuOTExMDNDMy4xNjE0NCA1LjM0Mjg5IDMuMDc2NSA1Ljc5Nzg1IDMuMDM3MzggNi4yNzY1N0MyLjk5OTk3IDYuNzM0NDQgMi45OTk5OSA3LjI5Mzk1IDMgNy45NTk4MVY3Ljk1OTg0VjguMDQwMTZWOC4wNDAxOUMyLjk5OTk5IDguNzA2MDUgMi45OTk5NyA5LjI2NTU2IDMuMDM3MzggOS43MjM0M0MzLjA3NjUgMTAuMjAyMSAzLjE2MTQ0IDEwLjY1NzEgMy4zODE0OCAxMS4wODlDMy43MTcwNCAxMS43NDc1IDQuMjUyNDcgMTIuMjgzIDQuOTExMDMgMTIuNjE4NUM1LjM0Mjg5IDEyLjgzODYgNS43OTc4NSAxMi45MjM1IDYuMjc2NTcgMTIuOTYyNkM2LjczNDQ1IDEzIDcuMjkzOTggMTMgNy45NTk4NyAxM0g4LjA0MDE0QzguNzA2MDIgMTMgOS4yNjU1NSAxMyA5LjcyMzQzIDEyLjk2MjZDMTAuMjAyMSAxMi45MjM1IDEwLjY1NzEgMTIuODM4NiAxMS4wODkgMTIuNjE4NUMxMS43NDc1IDEyLjI4MyAxMi4yODMgMTEuNzQ3NSAxMi42MTg1IDExLjA4OUMxMi44Mzg2IDEwLjY1NzEgMTIuOTIzNSAxMC4yMDIxIDEyLjk2MjYgOS43MjM0M0MxMyA5LjI2NTU1IDEzIDguNzA2MDIgMTMgOC4wNDAxNFY3Ljk1OTg3QzEzIDcuMjkzOTggMTMgNi43MzQ0NSAxMi45NjI2IDYuMjc2NTdDMTIuOTIzNSA1Ljc5Nzg1IDEyLjgzODYgNS4zNDI4OSAxMi42MTg1IDQuOTExMDNDMTIuMjgzIDQuMjUyNDcgMTEuNzQ3NSAzLjcxNzA0IDExLjA4OSAzLjM4MTQ4QzEwLjY1NzEgMy4xNjE0NCAxMC4yMDIxIDMuMDc2NSA5LjcyMzQzIDMuMDM3MzhDOS4yNjU1NiAyLjk5OTk3IDguNzA2MDUgMi45OTk5OSA4LjA0MDE5IDNIOC4wNDAxNlpNNS44MTkwMiA1LjE2MzQ5QzUuOTIxOTQgNS4xMTEwNSA2LjA4NDQgNS4wNTk3NSA2LjQzOTQ0IDUuMDMwNzRDNi44MDYxNSA1LjAwMDc4IDcuMjgzNDMgNSA4IDVDOC43MTY1NyA1IDkuMTkzODUgNS4wMDA3OCA5LjU2MDU2IDUuMDMwNzRDOS45MTU2IDUuMDU5NzUgMTAuMDc4MSA1LjExMTA1IDEwLjE4MSA1LjE2MzQ5QzEwLjQ2MzIgNS4zMDczIDEwLjY5MjcgNS41MzY3NyAxMC44MzY1IDUuODE5MDJDMTAuODg5IDUuOTIxOTQgMTAuOTQwMyA2LjA4NDQgMTAuOTY5MyA2LjQzOTQ0QzEwLjk5OTIgNi44MDYxNSAxMSA3LjI4MzQzIDExIDhDMTEgOC43MTY1NyAxMC45OTkyIDkuMTkzODUgMTAuOTY5MyA5LjU2MDU2QzEwLjk0MDMgOS45MTU2IDEwLjg4OSAxMC4wNzgxIDEwLjgzNjUgMTAuMTgxQzEwLjY5MjcgMTAuNDYzMiAxMC40NjMyIDEwLjY5MjcgMTAuMTgxIDEwLjgzNjVDMTAuMDc4MSAxMC44ODkgOS45MTU2IDEwLjk0MDMgOS41NjA1NiAxMC45NjkzQzkuMTkzODUgMTAuOTk5MiA4LjcxNjU3IDExIDggMTFDNy4yODM0MyAxMSA2LjgwNjE1IDEwLjk5OTIgNi40Mzk0NCAxMC45NjkzQzYuMDg0NCAxMC45NDAzIDUuOTIxOTQgMTAuODg5IDUuODE5MDIgMTAuODM2NUM1LjUzNjc3IDEwLjY5MjcgNS4zMDczIDEwLjQ2MzIgNS4xNjM0OSAxMC4xODFDNS4xMTEwNSAxMC4wNzgxIDUuMDU5NzUgOS45MTU2IDUuMDMwNzQgOS41NjA1NkM1LjAwMDc4IDkuMTkzODUgNSA4LjcxNjU3IDUgOEM1IDcuMjgzNDMgNS4wMDA3OCA2LjgwNjE1IDUuMDMwNzQgNi40Mzk0NEM1LjA1OTc1IDYuMDg0NCA1LjExMTA1IDUuOTIxOTQgNS4xNjM0OSA1LjgxOTAyQzUuMzA3MyA1LjUzNjc3IDUuNTM2NzcgNS4zMDczIDUuODE5MDIgNS4xNjM0OVpNOS43MjM0MyAxNS4wMzc0QzkuMjY1NTYgMTUgOC43MDYwMyAxNSA4LjA0MDE2IDE1SDcuOTU5ODRDNy4yOTM5NyAxNSA2LjczNDQ1IDE1IDYuMjc2NTcgMTUuMDM3NEM1Ljc5Nzg1IDE1LjA3NjUgNS4zNDI4OSAxNS4xNjE0IDQuOTExMDMgMTUuMzgxNUM0LjI1MjQ3IDE1LjcxNyAzLjcxNzA0IDE2LjI1MjUgMy4zODE0OCAxNi45MTFDMy4xNjE0NCAxNy4zNDI5IDMuMDc2NSAxNy43OTc5IDMuMDM3MzggMTguMjc2NkMyLjk5OTk3IDE4LjczNDQgMi45OTk5OSAxOS4yOTQgMyAxOS45NTk4VjE5Ljk1OThWMjAuMDQwMlYyMC4wNDAyQzIuOTk5OTkgMjAuNzA2MSAyLjk5OTk3IDIxLjI2NTYgMy4wMzczOCAyMS43MjM0QzMuMDc2NSAyMi4yMDIxIDMuMTYxNDQgMjIuNjU3MSAzLjM4MTQ4IDIzLjA4OUMzLjcxNzA0IDIzLjc0NzUgNC4yNTI0NyAyNC4yODMgNC45MTEwMyAyNC42MTg1QzUuMzQyODkgMjQuODM4NiA1Ljc5Nzg1IDI0LjkyMzUgNi4yNzY1NyAyNC45NjI2QzYuNzM0NDMgMjUgNy4yOTM5NCAyNSA3Ljk1OTc4IDI1SDcuOTU5ODFINy45NTk4NEg3Ljk1OTg3SDguMDQwMTRIOC4wNDAxNkg4LjA0MDE5SDguMDQwMjJDOC43MDYwNyAyNSA5LjI2NTU3IDI1IDkuNzIzNDMgMjQuOTYyNkMxMC4yMDIxIDI0LjkyMzUgMTAuNjU3MSAyNC44Mzg2IDExLjA4OSAyNC42MTg1QzExLjc0NzUgMjQuMjgzIDEyLjI4MyAyMy43NDc1IDEyLjYxODUgMjMuMDg5QzEyLjgzODYgMjIuNjU3MSAxMi45MjM1IDIyLjIwMjEgMTIuOTYyNiAyMS43MjM0QzEzIDIxLjI2NTYgMTMgMjAuNzA2IDEzIDIwLjA0MDFWMTkuOTU5OUMxMyAxOS4yOTQgMTMgMTguNzM0NSAxMi45NjI2IDE4LjI3NjZDMTIuOTIzNSAxNy43OTc5IDEyLjgzODYgMTcuMzQyOSAxMi42MTg1IDE2LjkxMUMxMi4yODMgMTYuMjUyNSAxMS43NDc1IDE1LjcxNyAxMS4wODkgMTUuMzgxNUMxMC42NTcxIDE1LjE2MTQgMTAuMjAyMSAxNS4wNzY1IDkuNzIzNDMgMTUuMDM3NFpNNS44MTkwMiAxNy4xNjM1QzUuOTIxOTQgMTcuMTExIDYuMDg0NCAxNy4wNTk3IDYuNDM5NDQgMTcuMDMwN0M2LjgwNjE1IDE3LjAwMDggNy4yODM0MyAxNyA4IDE3QzguNzE2NTcgMTcgOS4xOTM4NSAxNy4wMDA4IDkuNTYwNTYgMTcuMDMwN0M5LjkxNTYgMTcuMDU5NyAxMC4wNzgxIDE3LjExMSAxMC4xODEgMTcuMTYzNUMxMC40NjMyIDE3LjMwNzMgMTAuNjkyNyAxNy41MzY4IDEwLjgzNjUgMTcuODE5QzEwLjg4OSAxNy45MjE5IDEwLjk0MDMgMTguMDg0NCAxMC45NjkzIDE4LjQzOTRDMTAuOTk5MiAxOC44MDYyIDExIDE5LjI4MzQgMTEgMjBDMTEgMjAuNzE2NiAxMC45OTkyIDIxLjE5MzkgMTAuOTY5MyAyMS41NjA2QzEwLjk0MDMgMjEuOTE1NiAxMC44ODkgMjIuMDc4MSAxMC44MzY1IDIyLjE4MUMxMC42OTI3IDIyLjQ2MzIgMTAuNDYzMiAyMi42OTI3IDEwLjE4MSAyMi44MzY1QzEwLjA3ODEgMjIuODg5IDkuOTE1NiAyMi45NDAzIDkuNTYwNTYgMjIuOTY5M0M5LjE5Mzg1IDIyLjk5OTIgOC43MTY1NyAyMyA4IDIzQzcuMjgzNDMgMjMgNi44MDYxNSAyMi45OTkyIDYuNDM5NDQgMjIuOTY5M0M2LjA4NDQgMjIuOTQwMyA1LjkyMTk0IDIyLjg4OSA1LjgxOTAyIDIyLjgzNjVDNS41MzY3NyAyMi42OTI3IDUuMzA3MyAyMi40NjMyIDUuMTYzNDkgMjIuMTgxQzUuMTExMDUgMjIuMDc4MSA1LjA1OTc1IDIxLjkxNTYgNS4wMzA3NCAyMS41NjA2QzUuMDAwNzggMjEuMTkzOSA1IDIwLjcxNjYgNSAyMEM1IDE5LjI4MzQgNS4wMDA3OCAxOC44MDYyIDUuMDMwNzQgMTguNDM5NEM1LjA1OTc1IDE4LjA4NDQgNS4xMTEwNSAxNy45MjE5IDUuMTYzNDkgMTcuODE5QzUuMzA3MyAxNy41MzY4IDUuNTM2NzcgMTcuMzA3MyA1LjgxOTAyIDE3LjE2MzVaTTE4LjI3NjYgMTUuMDM3NEMxOC43MzQ0IDE1IDE5LjI5NCAxNSAxOS45NTk4IDE1SDIwLjA0MDJDMjAuNzA2IDE1IDIxLjI2NTYgMTUgMjEuNzIzNCAxNS4wMzc0QzIyLjIwMjEgMTUuMDc2NSAyMi42NTcxIDE1LjE2MTQgMjMuMDg5IDE1LjM4MTVDMjMuNzQ3NSAxNS43MTcgMjQuMjgzIDE2LjI1MjUgMjQuNjE4NSAxNi45MTFDMjQuODM4NiAxNy4zNDI5IDI0LjkyMzUgMTcuNzk3OSAyNC45NjI2IDE4LjI3NjZDMjUgMTguNzM0NCAyNSAxOS4yOTQgMjUgMTkuOTU5OFYxOS45NTk4VjE5Ljk1OTlWMjAuMDQwMVYyMC4wNDAyVjIwLjA0MDJDMjUgMjAuNzA2IDI1IDIxLjI2NTYgMjQuOTYyNiAyMS43MjM0QzI0LjkyMzUgMjIuMjAyMSAyNC44Mzg2IDIyLjY1NzEgMjQuNjE4NSAyMy4wODlDMjQuMjgzIDIzLjc0NzUgMjMuNzQ3NSAyNC4yODMgMjMuMDg5IDI0LjYxODVDMjIuNjU3MSAyNC44Mzg2IDIyLjIwMjEgMjQuOTIzNSAyMS43MjM0IDI0Ljk2MjZDMjEuMjY1NiAyNSAyMC43MDYgMjUgMjAuMDQwMiAyNUgyMC4wNDAySDIwLjA0MDFIMTkuOTU5OUgxOS45NTk4SDE5Ljk1OThDMTkuMjk0IDI1IDE4LjczNDQgMjUgMTguMjc2NiAyNC45NjI2QzE3Ljc5NzkgMjQuOTIzNSAxNy4zNDI5IDI0LjgzODYgMTYuOTExIDI0LjYxODVDMTYuMjUyNSAyNC4yODMgMTUuNzE3IDIzLjc0NzUgMTUuMzgxNSAyMy4wODlDMTUuMTYxNCAyMi42NTcxIDE1LjA3NjUgMjIuMjAyMSAxNS4wMzc0IDIxLjcyMzRDMTUgMjEuMjY1NiAxNSAyMC43MDYgMTUgMjAuMDQwMlYxOS45NTk4QzE1IDE5LjI5NCAxNSAxOC43MzQ0IDE1LjAzNzQgMTguMjc2NkMxNS4wNzY1IDE3Ljc5NzkgMTUuMTYxNCAxNy4zNDI5IDE1LjM4MTUgMTYuOTExQzE1LjcxNyAxNi4yNTI1IDE2LjI1MjUgMTUuNzE3IDE2LjkxMSAxNS4zODE1QzE3LjM0MjkgMTUuMTYxNCAxNy43OTc5IDE1LjA3NjUgMTguMjc2NiAxNS4wMzc0Wk0xOC40Mzk0IDE3LjAzMDdDMTguMDg0NCAxNy4wNTk3IDE3LjkyMTkgMTcuMTExIDE3LjgxOSAxNy4xNjM1QzE3LjUzNjggMTcuMzA3MyAxNy4zMDczIDE3LjUzNjggMTcuMTYzNSAxNy44MTlDMTcuMTExIDE3LjkyMTkgMTcuMDU5NyAxOC4wODQ0IDE3LjAzMDcgMTguNDM5NEMxNy4wMDA4IDE4LjgwNjIgMTcgMTkuMjgzNCAxNyAyMEMxNyAyMC43MTY2IDE3LjAwMDggMjEuMTkzOSAxNy4wMzA3IDIxLjU2MDZDMTcuMDU5NyAyMS45MTU2IDE3LjExMSAyMi4wNzgxIDE3LjE2MzUgMjIuMTgxQzE3LjMwNzMgMjIuNDYzMiAxNy41MzY4IDIyLjY5MjcgMTcuODE5IDIyLjgzNjVDMTcuOTIxOSAyMi44ODkgMTguMDg0NCAyMi45NDAzIDE4LjQzOTQgMjIuOTY5M0MxOC44MDYyIDIyLjk5OTIgMTkuMjgzNCAyMyAyMCAyM0MyMC43MTY2IDIzIDIxLjE5MzkgMjIuOTk5MiAyMS41NjA2IDIyLjk2OTNDMjEuOTE1NiAyMi45NDAzIDIyLjA3ODEgMjIuODg5IDIyLjE4MSAyMi44MzY1QzIyLjQ2MzIgMjIuNjkyNyAyMi42OTI3IDIyLjQ2MzIgMjIuODM2NSAyMi4xODFDMjIuODg5IDIyLjA3ODEgMjIuOTQwMyAyMS45MTU2IDIyLjk2OTMgMjEuNTYwNkMyMi45OTkyIDIxLjE5MzkgMjMgMjAuNzE2NiAyMyAyMEMyMyAxOS4yODM0IDIyLjk5OTIgMTguODA2MiAyMi45NjkzIDE4LjQzOTRDMjIuOTQwMyAxOC4wODQ0IDIyLjg4OSAxNy45MjE5IDIyLjgzNjUgMTcuODE5QzIyLjY5MjcgMTcuNTM2OCAyMi40NjMyIDE3LjMwNzMgMjIuMTgxIDE3LjE2MzVDMjIuMDc4MSAxNy4xMTEgMjEuOTE1NiAxNy4wNTk3IDIxLjU2MDYgMTcuMDMwN0MyMS4xOTM5IDE3LjAwMDggMjAuNzE2NiAxNyAyMCAxN0MxOS4yODM0IDE3IDE4LjgwNjIgMTcuMDAwOCAxOC40Mzk0IDE3LjAzMDdaTTIwLjA0MDIgM0gxOS45NTk4SDE5Ljk1OThDMTkuMjk0IDIuOTk5OTkgMTguNzM0NCAyLjk5OTk3IDE4LjI3NjYgMy4wMzczOEMxNy43OTc5IDMuMDc2NSAxNy4zNDI5IDMuMTYxNDQgMTYuOTExIDMuMzgxNDhDMTYuMjUyNSAzLjcxNzA0IDE1LjcxNyA0LjI1MjQ3IDE1LjM4MTUgNC45MTEwM0MxNS4xNjE0IDUuMzQyODkgMTUuMDc2NSA1Ljc5Nzg1IDE1LjAzNzQgNi4yNzY1N0MxNSA2LjczNDQ1IDE1IDcuMjkzOTcgMTUgNy45NTk4NFY4LjA0MDE2QzE1IDguNzA2MDMgMTUgOS4yNjU1NiAxNS4wMzc0IDkuNzIzNDNDMTUuMDc2NSAxMC4yMDIxIDE1LjE2MTQgMTAuNjU3MSAxNS4zODE1IDExLjA4OUMxNS43MTcgMTEuNzQ3NSAxNi4yNTI1IDEyLjI4MyAxNi45MTEgMTIuNjE4NUMxNy4zNDI5IDEyLjgzODYgMTcuNzk3OSAxMi45MjM1IDE4LjI3NjYgMTIuOTYyNkMxOC43MzQ1IDEzIDE5LjI5NCAxMyAxOS45NTk5IDEzSDIwLjA0MDFDMjAuNzA2IDEzIDIxLjI2NTYgMTMgMjEuNzIzNCAxMi45NjI2QzIyLjIwMjEgMTIuOTIzNSAyMi42NTcxIDEyLjgzODYgMjMuMDg5IDEyLjYxODVDMjMuNzQ3NSAxMi4yODMgMjQuMjgzIDExLjc0NzUgMjQuNjE4NSAxMS4wODlDMjQuODM4NiAxMC42NTcxIDI0LjkyMzUgMTAuMjAyMSAyNC45NjI2IDkuNzIzNDNDMjUgOS4yNjU1NiAyNSA4LjcwNjAzIDI1IDguMDQwMTZWOC4wNDAxNFY3Ljk1OTg3VjcuOTU5ODRDMjUgNy4yOTM5NyAyNSA2LjczNDQ0IDI0Ljk2MjYgNi4yNzY1N0MyNC45MjM1IDUuNzk3ODUgMjQuODM4NiA1LjM0Mjg5IDI0LjYxODUgNC45MTEwM0MyNC4yODMgNC4yNTI0NyAyMy43NDc1IDMuNzE3MDQgMjMuMDg5IDMuMzgxNDhDMjIuNjU3MSAzLjE2MTQ0IDIyLjIwMjEgMy4wNzY1IDIxLjcyMzQgMy4wMzczOEMyMS4yNjU2IDIuOTk5OTcgMjAuNzA2MSAyLjk5OTk5IDIwLjA0MDIgM0gyMC4wNDAyWk0xNy44MTkgNS4xNjM0OUMxNy45MjE5IDUuMTExMDUgMTguMDg0NCA1LjA1OTc1IDE4LjQzOTQgNS4wMzA3NEMxOC44MDYyIDUuMDAwNzggMTkuMjgzNCA1IDIwIDVDMjAuNzE2NiA1IDIxLjE5MzkgNS4wMDA3OCAyMS41NjA2IDUuMDMwNzRDMjEuOTE1NiA1LjA1OTc1IDIyLjA3ODEgNS4xMTEwNSAyMi4xODEgNS4xNjM0OUMyMi40NjMyIDUuMzA3MyAyMi42OTI3IDUuNTM2NzcgMjIuODM2NSA1LjgxOTAyQzIyLjg4OSA1LjkyMTk0IDIyLjk0MDMgNi4wODQ0IDIyLjk2OTMgNi40Mzk0NEMyMi45OTkyIDYuODA2MTUgMjMgNy4yODM0MyAyMyA4QzIzIDguNzE2NTcgMjIuOTk5MiA5LjE5Mzg1IDIyLjk2OTMgOS41NjA1NkMyMi45NDAzIDkuOTE1NiAyMi44ODkgMTAuMDc4MSAyMi44MzY1IDEwLjE4MUMyMi42OTI3IDEwLjQ2MzIgMjIuNDYzMiAxMC42OTI3IDIyLjE4MSAxMC44MzY1QzIyLjA3ODEgMTAuODg5IDIxLjkxNTYgMTAuOTQwMyAyMS41NjA2IDEwLjk2OTNDMjEuMTkzOSAxMC45OTkyIDIwLjcxNjYgMTEgMjAgMTFDMTkuMjgzNCAxMSAxOC44MDYyIDEwLjk5OTIgMTguNDM5NCAxMC45NjkzQzE4LjA4NDQgMTAuOTQwMyAxNy45MjE5IDEwLjg4OSAxNy44MTkgMTAuODM2NUMxNy41MzY4IDEwLjY5MjcgMTcuMzA3MyAxMC40NjMyIDE3LjE2MzUgMTAuMTgxQzE3LjExMSAxMC4wNzgxIDE3LjA1OTcgOS45MTU2IDE3LjAzMDcgOS41NjA1NkMxNy4wMDA4IDkuMTkzODUgMTcgOC43MTY1NyAxNyA4QzE3IDcuMjgzNDMgMTcuMDAwOCA2LjgwNjE1IDE3LjAzMDcgNi40Mzk0NEMxNy4wNTk3IDYuMDg0NCAxNy4xMTEgNS45MjE5NCAxNy4xNjM1IDUuODE5MDJDMTcuMzA3MyA1LjUzNjc3IDE3LjUzNjggNS4zMDczIDE3LjgxOSA1LjE2MzQ5WiIgY2xpcC1ydWxlPSJldmVub2RkIiBmaWxsLXJ1bGU9ImV2ZW5vZGQiLz4mI3hhOzwvc3ZnPg==;fontSize=16;fontFamily=VK Sans Display;" vertex="1" parent="1">
          <mxGeometry x="2852" y="183" width="53" height="53" as="geometry" />
        </mxCell>
        <mxCell id="V6o-ulw3wgX80Zc9qYh9-24" value="Metrics pull" style="endArrow=none;html=1;fontFamily=VK Sans Display;fontColor=#212121;rounded=1;strokeColor=#E188D0;endFill=0;arcsize=8;startArrow=open;startFill=0;strokeWidth=2;labelBackgroundColor=#FFFFFF;textOpacity=70;verticalAlign=middle;spacing=8;fontSize=16;arcSize=8;exitX=0;exitY=0.5;exitDx=0;exitDy=0;entryX=1;entryY=0.5;entryDx=0;entryDy=0;" edge="1" parent="1" source="V6o-ulw3wgX80Zc9qYh9-23" target="V6o-ulw3wgX80Zc9qYh9-21">
          <mxGeometry width="50" height="50" relative="1" as="geometry">
            <mxPoint x="2969" y="34.5" as="sourcePoint" />
            <mxPoint x="2869" y="-62.5" as="targetPoint" />
            <Array as="points">
              <mxPoint x="2789" y="210" />
            </Array>
          </mxGeometry>
        </mxCell>
        <mxCell id="V6o-ulw3wgX80Zc9qYh9-25" value="" style="endArrow=open;html=1;fontFamily=VK Sans Display;fontColor=#212121;rounded=1;strokeColor=#87D6E8;endFill=0;arcsize=8;startArrow=none;startFill=0;strokeWidth=2;labelBackgroundColor=#FFFFFF;textOpacity=70;verticalAlign=middle;spacing=8;fontSize=16;arcSize=8;exitX=1;exitY=0.5;exitDx=0;exitDy=0;entryX=0;entryY=0.25;entryDx=0;entryDy=0;" edge="1" parent="1" source="V6o-ulw3wgX80Zc9qYh9-6" target="V6o-ulw3wgX80Zc9qYh9-14">
          <mxGeometry x="-0.0943" width="50" height="50" relative="1" as="geometry">
            <mxPoint x="2058" y="-30" as="sourcePoint" />
            <mxPoint x="2244" y="-30" as="targetPoint" />
            <mxPoint as="offset" />
            <Array as="points">
              <mxPoint x="2169" y="210" />
              <mxPoint x="2169" y="300" />
            </Array>
          </mxGeometry>
        </mxCell>
        <mxCell id="V6o-ulw3wgX80Zc9qYh9-26" value="" style="endArrow=open;html=1;fontFamily=VK Sans Display;fontColor=#212121;rounded=1;strokeColor=#87D6E8;endFill=0;arcsize=8;startArrow=none;startFill=0;strokeWidth=2;labelBackgroundColor=#FFFFFF;textOpacity=70;verticalAlign=middle;spacing=8;fontSize=16;arcSize=8;exitX=1;exitY=0.75;exitDx=0;exitDy=0;entryX=1;entryY=0.25;entryDx=0;entryDy=0;" edge="1" parent="1" source="V6o-ulw3wgX80Zc9qYh9-6" target="V6o-ulw3wgX80Zc9qYh9-10">
          <mxGeometry x="-0.0943" width="50" height="50" relative="1" as="geometry">
            <mxPoint x="2061" y="210" as="sourcePoint" />
            <mxPoint x="2219" y="300" as="targetPoint" />
            <mxPoint as="offset" />
            <Array as="points">
              <mxPoint x="2089" y="220" />
              <mxPoint x="2089" y="300" />
            </Array>
          </mxGeometry>
        </mxCell>
        <mxCell id="V6o-ulw3wgX80Zc9qYh9-27" value="" style="endArrow=open;html=1;fontFamily=VK Sans Display;fontColor=#212121;rounded=1;strokeColor=#87D6E8;endFill=0;arcsize=8;startArrow=none;startFill=0;strokeWidth=2;labelBackgroundColor=#FFFFFF;textOpacity=70;verticalAlign=middle;spacing=8;fontSize=16;arcSize=8;exitX=1;exitY=0.25;exitDx=0;exitDy=0;entryX=0;entryY=0.75;entryDx=0;entryDy=0;" edge="1" parent="1" source="V6o-ulw3wgX80Zc9qYh9-6" target="V6o-ulw3wgX80Zc9qYh9-18">
          <mxGeometry width="50" height="50" relative="1" as="geometry">
            <mxPoint x="2069" y="-40" as="sourcePoint" />
            <mxPoint x="2227" y="50" as="targetPoint" />
            <Array as="points">
              <mxPoint x="2129" y="200" />
              <mxPoint x="2129" y="130" />
              <mxPoint x="2409" y="130" />
              <mxPoint x="2409" y="320" />
            </Array>
          </mxGeometry>
        </mxCell>
        <mxCell id="V6o-ulw3wgX80Zc9qYh9-28" value="Data disk" style="shape=image;verticalLabelPosition=bottom;verticalAlign=top;imageAspect=0;aspect=fixed;image=data:image/svg+xml,PHN2ZyB4bWxucz0iaHR0cDovL3d3dy53My5vcmcvMjAwMC9zdmciIGZpbGw9Im5vbmUiIHZpZXdCb3g9IjAgMCAzNiAzNiIgaGVpZ2h0PSIzNiIgd2lkdGg9IjM2Ij4mI3hhOzxwYXRoIGZpbGw9IiMwMDg1RkYiIGQ9Ik0xMi4yMTI2IDAuNDExMjk5QzE2LjA1MTQgLTAuMTM3MSAxOS45NDg2IC0wLjEzNzEgMjMuNzg3NCAwLjQxMTNDMzAuNzY4NiAxLjQwODYgMzQuNTQzMyA0Ljg5NDkgMzUuNTg4NyAxMi4yMTI2QzM2LjEzNzEgMTYuMDUxNCAzNi4xMzcxIDE5Ljk0ODYgMzUuNTg4NyAyMy43ODc0QzM0LjU5MTQgMzAuNzY4NiAzMS4xMDUxIDM0LjU0MzMgMjMuNzg3NCAzNS41ODg3QzE5Ljk0ODYgMzYuMTM3MSAxNi4wNTE0IDM2LjEzNzEgMTIuMjEyNiAzNS41ODg3QzUuMjMxNDQgMzQuNTkxNCAxLjQ1NjY4IDMxLjEwNTEgMC40MTEyOTkgMjMuNzg3NEMtMC4xMzcxIDE5Ljk0ODYgLTAuMTM3MSAxNi4wNTE0IDAuNDExMyAxMi4yMTI2QzEuNDA4NiA1LjIzMTQ0IDQuODk0OSAxLjQ1NjY4IDEyLjIxMjYgMC40MTEyOTlaIi8+JiN4YTs8cGF0aCBmaWxsPSJ3aGl0ZSIgZD0iTTE5LjQyODIgMjIuNDUzMUMxOS40MjgyIDIyLjk5OTcgMTkuMDAxOCAyMy40NDI3IDE4LjQ3NTkgMjMuNDQyN0MxNy45NDk5IDIzLjQ0MjcgMTcuNTIzNSAyMi45OTk3IDE3LjUyMzUgMjIuNDUzMUMxNy41MjM1IDIxLjkwNjYgMTcuOTQ5OSAyMS40NjM1IDE4LjQ3NTkgMjEuNDYzNUMxOS4wMDE4IDIxLjQ2MzUgMTkuNDI4MiAyMS45MDY2IDE5LjQyODIgMjIuNDUzMVoiLz4mI3hhOzxwYXRoIGZpbGw9IndoaXRlIiBkPSJNMjIuMjg1NCAyMi40NTMxQzIyLjI4NTQgMjIuOTk5NyAyMS44NTkgMjMuNDQyNyAyMS4zMzMgMjMuNDQyN0MyMC44MDcgMjMuNDQyNyAyMC4zODA2IDIyLjk5OTcgMjAuMzgwNiAyMi40NTMxQzIwLjM4MDYgMjEuOTA2NiAyMC44MDcgMjEuNDYzNSAyMS4zMzMgMjEuNDYzNUMyMS44NTkgMjEuNDYzNSAyMi4yODU0IDIxLjkwNjYgMjIuMjg1NCAyMi40NTMxWiIvPiYjeGE7PHBhdGggZmlsbD0id2hpdGUiIGQ9Ik0yNC42NjYzIDE5Ljk3OTJDMjQuNjY2MyAyMC42MzIxIDI0LjY2NjMgMjEuMjA4OCAyNC42NTU3IDIxLjcyMDVDMjQuNjY2MyAyMS44ODg3IDI0LjY2NjMgMjIuMTA1IDI0LjY2NjMgMjIuNDUzMUMyNC42NjYzIDIyLjkxMjcgMjQuNjY2MyAyMy4xNDI1IDI0LjY0MTkgMjMuMzM1NEMyNC40NzMxIDI0LjY2NzYgMjMuNDY0MiAyNS43MTU5IDIyLjE4MjEgMjUuODkxM0MyMS45OTY1IDI1LjkxNjcgMjEuNzc1MyAyNS45MTY3IDIxLjMzMyAyNS45MTY3SDE0LjY2NjNDMTQuMjI0IDI1LjkxNjcgMTQuMDAyOSAyNS45MTY3IDEzLjgxNzIgMjUuODkxM0MxMi41MzUxIDI1LjcxNTkgMTEuNTI2MiAyNC42Njc2IDExLjM1NzUgMjMuMzM1NEMxMS4zMzMgMjMuMTQyNSAxMS4zMzMgMjIuOTEyNyAxMS4zMzMgMjIuNDUzMUMxMS4zMzMgMjIuMTA1IDExLjMzMyAyMS44ODg3IDExLjM0MzYgMjEuNzIwNUMxMS4zMzMgMjEuMjA4OCAxMS4zMzMgMjAuNjMyMSAxMS4zMzMgMTkuOTc5MlYxNi4wMjA4QzExLjMzMyAxMy4yMjE5IDExLjMzMyAxMS44MjI0IDEyLjE2OTggMTAuOTUyOUMxMy4wMDY3IDEwLjA4MzMgMTQuMzUzNiAxMC4wODMzIDE3LjA0NzMgMTAuMDgzM0gxOC45NTIxQzIxLjY0NTggMTAuMDgzMyAyMi45OTI3IDEwLjA4MzMgMjMuODI5NSAxMC45NTI5QzI0LjY2NjMgMTEuODIyNCAyNC42NjYzIDEzLjIyMTkgMjQuNjY2MyAxNi4wMjA4VjE5Ljk3OTJaTTE3LjA0NzMgMTEuNTY3N0gxOC45NTIxQzIwLjMzOTMgMTEuNTY3NyAyMS4yMzYgMTEuNTcwOSAyMS44OTY4IDExLjY2MzJDMjIuNTE2NCAxMS43NDk3IDIyLjcxMDYgMTEuODg5NSAyMi44MTk0IDEyLjAwMjVDMjIuOTI4MSAxMi4xMTU1IDIzLjA2MjYgMTIuMzE3MyAyMy4xNDU5IDEyLjk2MTFDMjMuMjM0NyAxMy42NDc2IDIzLjIzNzggMTQuNTc5NCAyMy4yMzc4IDE2LjAyMDhWMTkuMzg3MUMyMi45MTk5IDE5LjE5NjMgMjIuNTYzMSAxOS4wNjcxIDIyLjE4MjEgMTkuMDE1QzIxLjk5NjUgMTguOTg5NiAyMS43NzUzIDE4Ljk4OTYgMjEuMzMzIDE4Ljk4OTZIMTQuNjY2M0MxNC4yMjQgMTguOTg5NiAxNC4wMDI5IDE4Ljk4OTYgMTMuODE3MiAxOS4wMTVDMTMuNDM2MyAxOS4wNjcxIDEzLjA3OTQgMTkuMTk2MyAxMi43NjE2IDE5LjM4NzFWMTYuMDIwOEMxMi43NjE2IDE0LjU3OTQgMTIuNzY0NiAxMy42NDc2IDEyLjg1MzQgMTIuOTYxMUMxMi45MzY4IDEyLjMxNzMgMTMuMDcxMiAxMi4xMTU1IDEzLjE4IDEyLjAwMjVDMTMuMjg4NyAxMS44ODk1IDEzLjQ4MyAxMS43NDk3IDE0LjEwMjYgMTEuNjYzMkMxNC43NjMzIDExLjU3MDkgMTUuNjYgMTEuNTY3NyAxNy4wNDczIDExLjU2NzdaTTIzLjIyMDcgMjEuOTU4M0MyMy4yMjI2IDIxLjg5NTkgMjMuMjI0MyAyMS44MzE4IDIzLjIyNTggMjEuNzY2MkwyMy4yMjU1IDIxLjc2NDZDMjMuMTQxMiAyMS4wOTg1IDIyLjYzNjcgMjAuNTc0MyAyMS45OTU3IDIwLjQ4NjdDMjEuOTI2MiAyMC40NzcyIDIxLjgyMDcgMjAuNDc0IDIxLjMzMyAyMC40NzRIMTQuNjY2M0MxNC4xNzg2IDIwLjQ3NCAxNC4wNzMxIDIwLjQ3NzIgMTQuMDAzNyAyMC40ODY3QzEzLjM2MjYgMjAuNTc0MyAxMi44NTgyIDIxLjA5ODUgMTIuNzczOCAyMS43NjQ2TDEyLjc3MzYgMjEuNzY2MkMxMi43NzUxIDIxLjgzMTggMTIuNzc2OCAyMS44OTU5IDEyLjc3ODcgMjEuOTU4M0gxMi43NjRDMTIuNzYyMyAyMi4wNTg0IDEyLjc2MTYgMjIuMjEwMSAxMi43NjE2IDIyLjQ1MzFDMTIuNzYxNiAyMi45NTk5IDEyLjc2NDcgMjMuMDY5NSAxMi43NzM4IDIzLjE0MTdDMTIuODU4MiAyMy44MDc4IDEzLjM2MjYgMjQuMzMxOSAxNC4wMDM3IDI0LjQxOTZDMTQuMDczMSAyNC40MjkxIDE0LjE3ODYgMjQuNDMyMyAxNC42NjYzIDI0LjQzMjNIMjEuMzMzQzIxLjgyMDcgMjQuNDMyMyAyMS45MjYyIDI0LjQyOTEgMjEuOTk1NyAyNC40MTk2QzIyLjYzNjcgMjQuMzMxOSAyMy4xNDEyIDIzLjgwNzggMjMuMjI1NSAyMy4xNDE3QzIzLjIzNDcgMjMuMDY5NSAyMy4yMzc4IDIyLjk1OTkgMjMuMjM3OCAyMi40NTMxQzIzLjIzNzggMjIuMjEwMSAyMy4yMzcxIDIyLjA1ODQgMjMuMjM1MyAyMS45NTgzSDIzLjIyMDdaIiBjbGlwLXJ1bGU9ImV2ZW5vZGQiIGZpbGwtcnVsZT0iZXZlbm9kZCIvPiYjeGE7PC9zdmc+;fontSize=16;fontFamily=VK Sans Display;" vertex="1" parent="1">
          <mxGeometry x="1965.5" y="369" width="50" height="50" as="geometry" />
        </mxCell>
        <mxCell id="V6o-ulw3wgX80Zc9qYh9-29" value="Data disk" style="shape=image;verticalLabelPosition=bottom;verticalAlign=top;imageAspect=0;aspect=fixed;image=data:image/svg+xml,PHN2ZyB4bWxucz0iaHR0cDovL3d3dy53My5vcmcvMjAwMC9zdmciIGZpbGw9Im5vbmUiIHZpZXdCb3g9IjAgMCAzNiAzNiIgaGVpZ2h0PSIzNiIgd2lkdGg9IjM2Ij4mI3hhOzxwYXRoIGZpbGw9IiMwMDg1RkYiIGQ9Ik0xMi4yMTI2IDAuNDExMjk5QzE2LjA1MTQgLTAuMTM3MSAxOS45NDg2IC0wLjEzNzEgMjMuNzg3NCAwLjQxMTNDMzAuNzY4NiAxLjQwODYgMzQuNTQzMyA0Ljg5NDkgMzUuNTg4NyAxMi4yMTI2QzM2LjEzNzEgMTYuMDUxNCAzNi4xMzcxIDE5Ljk0ODYgMzUuNTg4NyAyMy43ODc0QzM0LjU5MTQgMzAuNzY4NiAzMS4xMDUxIDM0LjU0MzMgMjMuNzg3NCAzNS41ODg3QzE5Ljk0ODYgMzYuMTM3MSAxNi4wNTE0IDM2LjEzNzEgMTIuMjEyNiAzNS41ODg3QzUuMjMxNDQgMzQuNTkxNCAxLjQ1NjY4IDMxLjEwNTEgMC40MTEyOTkgMjMuNzg3NEMtMC4xMzcxIDE5Ljk0ODYgLTAuMTM3MSAxNi4wNTE0IDAuNDExMyAxMi4yMTI2QzEuNDA4NiA1LjIzMTQ0IDQuODk0OSAxLjQ1NjY4IDEyLjIxMjYgMC40MTEyOTlaIi8+JiN4YTs8cGF0aCBmaWxsPSJ3aGl0ZSIgZD0iTTE5LjQyODIgMjIuNDUzMUMxOS40MjgyIDIyLjk5OTcgMTkuMDAxOCAyMy40NDI3IDE4LjQ3NTkgMjMuNDQyN0MxNy45NDk5IDIzLjQ0MjcgMTcuNTIzNSAyMi45OTk3IDE3LjUyMzUgMjIuNDUzMUMxNy41MjM1IDIxLjkwNjYgMTcuOTQ5OSAyMS40NjM1IDE4LjQ3NTkgMjEuNDYzNUMxOS4wMDE4IDIxLjQ2MzUgMTkuNDI4MiAyMS45MDY2IDE5LjQyODIgMjIuNDUzMVoiLz4mI3hhOzxwYXRoIGZpbGw9IndoaXRlIiBkPSJNMjIuMjg1NCAyMi40NTMxQzIyLjI4NTQgMjIuOTk5NyAyMS44NTkgMjMuNDQyNyAyMS4zMzMgMjMuNDQyN0MyMC44MDcgMjMuNDQyNyAyMC4zODA2IDIyLjk5OTcgMjAuMzgwNiAyMi40NTMxQzIwLjM4MDYgMjEuOTA2NiAyMC44MDcgMjEuNDYzNSAyMS4zMzMgMjEuNDYzNUMyMS44NTkgMjEuNDYzNSAyMi4yODU0IDIxLjkwNjYgMjIuMjg1NCAyMi40NTMxWiIvPiYjeGE7PHBhdGggZmlsbD0id2hpdGUiIGQ9Ik0yNC42NjYzIDE5Ljk3OTJDMjQuNjY2MyAyMC42MzIxIDI0LjY2NjMgMjEuMjA4OCAyNC42NTU3IDIxLjcyMDVDMjQuNjY2MyAyMS44ODg3IDI0LjY2NjMgMjIuMTA1IDI0LjY2NjMgMjIuNDUzMUMyNC42NjYzIDIyLjkxMjcgMjQuNjY2MyAyMy4xNDI1IDI0LjY0MTkgMjMuMzM1NEMyNC40NzMxIDI0LjY2NzYgMjMuNDY0MiAyNS43MTU5IDIyLjE4MjEgMjUuODkxM0MyMS45OTY1IDI1LjkxNjcgMjEuNzc1MyAyNS45MTY3IDIxLjMzMyAyNS45MTY3SDE0LjY2NjNDMTQuMjI0IDI1LjkxNjcgMTQuMDAyOSAyNS45MTY3IDEzLjgxNzIgMjUuODkxM0MxMi41MzUxIDI1LjcxNTkgMTEuNTI2MiAyNC42Njc2IDExLjM1NzUgMjMuMzM1NEMxMS4zMzMgMjMuMTQyNSAxMS4zMzMgMjIuOTEyNyAxMS4zMzMgMjIuNDUzMUMxMS4zMzMgMjIuMTA1IDExLjMzMyAyMS44ODg3IDExLjM0MzYgMjEuNzIwNUMxMS4zMzMgMjEuMjA4OCAxMS4zMzMgMjAuNjMyMSAxMS4zMzMgMTkuOTc5MlYxNi4wMjA4QzExLjMzMyAxMy4yMjE5IDExLjMzMyAxMS44MjI0IDEyLjE2OTggMTAuOTUyOUMxMy4wMDY3IDEwLjA4MzMgMTQuMzUzNiAxMC4wODMzIDE3LjA0NzMgMTAuMDgzM0gxOC45NTIxQzIxLjY0NTggMTAuMDgzMyAyMi45OTI3IDEwLjA4MzMgMjMuODI5NSAxMC45NTI5QzI0LjY2NjMgMTEuODIyNCAyNC42NjYzIDEzLjIyMTkgMjQuNjY2MyAxNi4wMjA4VjE5Ljk3OTJaTTE3LjA0NzMgMTEuNTY3N0gxOC45NTIxQzIwLjMzOTMgMTEuNTY3NyAyMS4yMzYgMTEuNTcwOSAyMS44OTY4IDExLjY2MzJDMjIuNTE2NCAxMS43NDk3IDIyLjcxMDYgMTEuODg5NSAyMi44MTk0IDEyLjAwMjVDMjIuOTI4MSAxMi4xMTU1IDIzLjA2MjYgMTIuMzE3MyAyMy4xNDU5IDEyLjk2MTFDMjMuMjM0NyAxMy42NDc2IDIzLjIzNzggMTQuNTc5NCAyMy4yMzc4IDE2LjAyMDhWMTkuMzg3MUMyMi45MTk5IDE5LjE5NjMgMjIuNTYzMSAxOS4wNjcxIDIyLjE4MjEgMTkuMDE1QzIxLjk5NjUgMTguOTg5NiAyMS43NzUzIDE4Ljk4OTYgMjEuMzMzIDE4Ljk4OTZIMTQuNjY2M0MxNC4yMjQgMTguOTg5NiAxNC4wMDI5IDE4Ljk4OTYgMTMuODE3MiAxOS4wMTVDMTMuNDM2MyAxOS4wNjcxIDEzLjA3OTQgMTkuMTk2MyAxMi43NjE2IDE5LjM4NzFWMTYuMDIwOEMxMi43NjE2IDE0LjU3OTQgMTIuNzY0NiAxMy42NDc2IDEyLjg1MzQgMTIuOTYxMUMxMi45MzY4IDEyLjMxNzMgMTMuMDcxMiAxMi4xMTU1IDEzLjE4IDEyLjAwMjVDMTMuMjg4NyAxMS44ODk1IDEzLjQ4MyAxMS43NDk3IDE0LjEwMjYgMTEuNjYzMkMxNC43NjMzIDExLjU3MDkgMTUuNjYgMTEuNTY3NyAxNy4wNDczIDExLjU2NzdaTTIzLjIyMDcgMjEuOTU4M0MyMy4yMjI2IDIxLjg5NTkgMjMuMjI0MyAyMS44MzE4IDIzLjIyNTggMjEuNzY2MkwyMy4yMjU1IDIxLjc2NDZDMjMuMTQxMiAyMS4wOTg1IDIyLjYzNjcgMjAuNTc0MyAyMS45OTU3IDIwLjQ4NjdDMjEuOTI2MiAyMC40NzcyIDIxLjgyMDcgMjAuNDc0IDIxLjMzMyAyMC40NzRIMTQuNjY2M0MxNC4xNzg2IDIwLjQ3NCAxNC4wNzMxIDIwLjQ3NzIgMTQuMDAzNyAyMC40ODY3QzEzLjM2MjYgMjAuNTc0MyAxMi44NTgyIDIxLjA5ODUgMTIuNzczOCAyMS43NjQ2TDEyLjc3MzYgMjEuNzY2MkMxMi43NzUxIDIxLjgzMTggMTIuNzc2OCAyMS44OTU5IDEyLjc3ODcgMjEuOTU4M0gxMi43NjRDMTIuNzYyMyAyMi4wNTg0IDEyLjc2MTYgMjIuMjEwMSAxMi43NjE2IDIyLjQ1MzFDMTIuNzYxNiAyMi45NTk5IDEyLjc2NDcgMjMuMDY5NSAxMi43NzM4IDIzLjE0MTdDMTIuODU4MiAyMy44MDc4IDEzLjM2MjYgMjQuMzMxOSAxNC4wMDM3IDI0LjQxOTZDMTQuMDczMSAyNC40MjkxIDE0LjE3ODYgMjQuNDMyMyAxNC42NjYzIDI0LjQzMjNIMjEuMzMzQzIxLjgyMDcgMjQuNDMyMyAyMS45MjYyIDI0LjQyOTEgMjEuOTk1NyAyNC40MTk2QzIyLjYzNjcgMjQuMzMxOSAyMy4xNDEyIDIzLjgwNzggMjMuMjI1NSAyMy4xNDE3QzIzLjIzNDcgMjMuMDY5NSAyMy4yMzc4IDIyLjk1OTkgMjMuMjM3OCAyMi40NTMxQzIzLjIzNzggMjIuMjEwMSAyMy4yMzcxIDIyLjA1ODQgMjMuMjM1MyAyMS45NTgzSDIzLjIyMDdaIiBjbGlwLXJ1bGU9ImV2ZW5vZGQiIGZpbGwtcnVsZT0iZXZlbm9kZCIvPiYjeGE7PC9zdmc+;fontSize=16;fontFamily=VK Sans Display;" vertex="1" parent="1">
          <mxGeometry x="2244" y="369" width="50" height="50" as="geometry" />
        </mxCell>
        <mxCell id="V6o-ulw3wgX80Zc9qYh9-30" value="Data disk" style="shape=image;verticalLabelPosition=bottom;verticalAlign=top;imageAspect=0;aspect=fixed;image=data:image/svg+xml,PHN2ZyB4bWxucz0iaHR0cDovL3d3dy53My5vcmcvMjAwMC9zdmciIGZpbGw9Im5vbmUiIHZpZXdCb3g9IjAgMCAzNiAzNiIgaGVpZ2h0PSIzNiIgd2lkdGg9IjM2Ij4mI3hhOzxwYXRoIGZpbGw9IiMwMDg1RkYiIGQ9Ik0xMi4yMTI2IDAuNDExMjk5QzE2LjA1MTQgLTAuMTM3MSAxOS45NDg2IC0wLjEzNzEgMjMuNzg3NCAwLjQxMTNDMzAuNzY4NiAxLjQwODYgMzQuNTQzMyA0Ljg5NDkgMzUuNTg4NyAxMi4yMTI2QzM2LjEzNzEgMTYuMDUxNCAzNi4xMzcxIDE5Ljk0ODYgMzUuNTg4NyAyMy43ODc0QzM0LjU5MTQgMzAuNzY4NiAzMS4xMDUxIDM0LjU0MzMgMjMuNzg3NCAzNS41ODg3QzE5Ljk0ODYgMzYuMTM3MSAxNi4wNTE0IDM2LjEzNzEgMTIuMjEyNiAzNS41ODg3QzUuMjMxNDQgMzQuNTkxNCAxLjQ1NjY4IDMxLjEwNTEgMC40MTEyOTkgMjMuNzg3NEMtMC4xMzcxIDE5Ljk0ODYgLTAuMTM3MSAxNi4wNTE0IDAuNDExMyAxMi4yMTI2QzEuNDA4NiA1LjIzMTQ0IDQuODk0OSAxLjQ1NjY4IDEyLjIxMjYgMC40MTEyOTlaIi8+JiN4YTs8cGF0aCBmaWxsPSJ3aGl0ZSIgZD0iTTE5LjQyODIgMjIuNDUzMUMxOS40MjgyIDIyLjk5OTcgMTkuMDAxOCAyMy40NDI3IDE4LjQ3NTkgMjMuNDQyN0MxNy45NDk5IDIzLjQ0MjcgMTcuNTIzNSAyMi45OTk3IDE3LjUyMzUgMjIuNDUzMUMxNy41MjM1IDIxLjkwNjYgMTcuOTQ5OSAyMS40NjM1IDE4LjQ3NTkgMjEuNDYzNUMxOS4wMDE4IDIxLjQ2MzUgMTkuNDI4MiAyMS45MDY2IDE5LjQyODIgMjIuNDUzMVoiLz4mI3hhOzxwYXRoIGZpbGw9IndoaXRlIiBkPSJNMjIuMjg1NCAyMi40NTMxQzIyLjI4NTQgMjIuOTk5NyAyMS44NTkgMjMuNDQyNyAyMS4zMzMgMjMuNDQyN0MyMC44MDcgMjMuNDQyNyAyMC4zODA2IDIyLjk5OTcgMjAuMzgwNiAyMi40NTMxQzIwLjM4MDYgMjEuOTA2NiAyMC44MDcgMjEuNDYzNSAyMS4zMzMgMjEuNDYzNUMyMS44NTkgMjEuNDYzNSAyMi4yODU0IDIxLjkwNjYgMjIuMjg1NCAyMi40NTMxWiIvPiYjeGE7PHBhdGggZmlsbD0id2hpdGUiIGQ9Ik0yNC42NjYzIDE5Ljk3OTJDMjQuNjY2MyAyMC42MzIxIDI0LjY2NjMgMjEuMjA4OCAyNC42NTU3IDIxLjcyMDVDMjQuNjY2MyAyMS44ODg3IDI0LjY2NjMgMjIuMTA1IDI0LjY2NjMgMjIuNDUzMUMyNC42NjYzIDIyLjkxMjcgMjQuNjY2MyAyMy4xNDI1IDI0LjY0MTkgMjMuMzM1NEMyNC40NzMxIDI0LjY2NzYgMjMuNDY0MiAyNS43MTU5IDIyLjE4MjEgMjUuODkxM0MyMS45OTY1IDI1LjkxNjcgMjEuNzc1MyAyNS45MTY3IDIxLjMzMyAyNS45MTY3SDE0LjY2NjNDMTQuMjI0IDI1LjkxNjcgMTQuMDAyOSAyNS45MTY3IDEzLjgxNzIgMjUuODkxM0MxMi41MzUxIDI1LjcxNTkgMTEuNTI2MiAyNC42Njc2IDExLjM1NzUgMjMuMzM1NEMxMS4zMzMgMjMuMTQyNSAxMS4zMzMgMjIuOTEyNyAxMS4zMzMgMjIuNDUzMUMxMS4zMzMgMjIuMTA1IDExLjMzMyAyMS44ODg3IDExLjM0MzYgMjEuNzIwNUMxMS4zMzMgMjEuMjA4OCAxMS4zMzMgMjAuNjMyMSAxMS4zMzMgMTkuOTc5MlYxNi4wMjA4QzExLjMzMyAxMy4yMjE5IDExLjMzMyAxMS44MjI0IDEyLjE2OTggMTAuOTUyOUMxMy4wMDY3IDEwLjA4MzMgMTQuMzUzNiAxMC4wODMzIDE3LjA0NzMgMTAuMDgzM0gxOC45NTIxQzIxLjY0NTggMTAuMDgzMyAyMi45OTI3IDEwLjA4MzMgMjMuODI5NSAxMC45NTI5QzI0LjY2NjMgMTEuODIyNCAyNC42NjYzIDEzLjIyMTkgMjQuNjY2MyAxNi4wMjA4VjE5Ljk3OTJaTTE3LjA0NzMgMTEuNTY3N0gxOC45NTIxQzIwLjMzOTMgMTEuNTY3NyAyMS4yMzYgMTEuNTcwOSAyMS44OTY4IDExLjY2MzJDMjIuNTE2NCAxMS43NDk3IDIyLjcxMDYgMTEuODg5NSAyMi44MTk0IDEyLjAwMjVDMjIuOTI4MSAxMi4xMTU1IDIzLjA2MjYgMTIuMzE3MyAyMy4xNDU5IDEyLjk2MTFDMjMuMjM0NyAxMy42NDc2IDIzLjIzNzggMTQuNTc5NCAyMy4yMzc4IDE2LjAyMDhWMTkuMzg3MUMyMi45MTk5IDE5LjE5NjMgMjIuNTYzMSAxOS4wNjcxIDIyLjE4MjEgMTkuMDE1QzIxLjk5NjUgMTguOTg5NiAyMS43NzUzIDE4Ljk4OTYgMjEuMzMzIDE4Ljk4OTZIMTQuNjY2M0MxNC4yMjQgMTguOTg5NiAxNC4wMDI5IDE4Ljk4OTYgMTMuODE3MiAxOS4wMTVDMTMuNDM2MyAxOS4wNjcxIDEzLjA3OTQgMTkuMTk2MyAxMi43NjE2IDE5LjM4NzFWMTYuMDIwOEMxMi43NjE2IDE0LjU3OTQgMTIuNzY0NiAxMy42NDc2IDEyLjg1MzQgMTIuOTYxMUMxMi45MzY4IDEyLjMxNzMgMTMuMDcxMiAxMi4xMTU1IDEzLjE4IDEyLjAwMjVDMTMuMjg4NyAxMS44ODk1IDEzLjQ4MyAxMS43NDk3IDE0LjEwMjYgMTEuNjYzMkMxNC43NjMzIDExLjU3MDkgMTUuNjYgMTEuNTY3NyAxNy4wNDczIDExLjU2NzdaTTIzLjIyMDcgMjEuOTU4M0MyMy4yMjI2IDIxLjg5NTkgMjMuMjI0MyAyMS44MzE4IDIzLjIyNTggMjEuNzY2MkwyMy4yMjU1IDIxLjc2NDZDMjMuMTQxMiAyMS4wOTg1IDIyLjYzNjcgMjAuNTc0MyAyMS45OTU3IDIwLjQ4NjdDMjEuOTI2MiAyMC40NzcyIDIxLjgyMDcgMjAuNDc0IDIxLjMzMyAyMC40NzRIMTQuNjY2M0MxNC4xNzg2IDIwLjQ3NCAxNC4wNzMxIDIwLjQ3NzIgMTQuMDAzNyAyMC40ODY3QzEzLjM2MjYgMjAuNTc0MyAxMi44NTgyIDIxLjA5ODUgMTIuNzczOCAyMS43NjQ2TDEyLjc3MzYgMjEuNzY2MkMxMi43NzUxIDIxLjgzMTggMTIuNzc2OCAyMS44OTU5IDEyLjc3ODcgMjEuOTU4M0gxMi43NjRDMTIuNzYyMyAyMi4wNTg0IDEyLjc2MTYgMjIuMjEwMSAxMi43NjE2IDIyLjQ1MzFDMTIuNzYxNiAyMi45NTk5IDEyLjc2NDcgMjMuMDY5NSAxMi43NzM4IDIzLjE0MTdDMTIuODU4MiAyMy44MDc4IDEzLjM2MjYgMjQuMzMxOSAxNC4wMDM3IDI0LjQxOTZDMTQuMDczMSAyNC40MjkxIDE0LjE3ODYgMjQuNDMyMyAxNC42NjYzIDI0LjQzMjNIMjEuMzMzQzIxLjgyMDcgMjQuNDMyMyAyMS45MjYyIDI0LjQyOTEgMjEuOTk1NyAyNC40MTk2QzIyLjYzNjcgMjQuMzMxOSAyMy4xNDEyIDIzLjgwNzggMjMuMjI1NSAyMy4xNDE3QzIzLjIzNDcgMjMuMDY5NSAyMy4yMzc4IDIyLjk1OTkgMjMuMjM3OCAyMi40NTMxQzIzLjIzNzggMjIuMjEwMSAyMy4yMzcxIDIyLjA1ODQgMjMuMjM1MyAyMS45NTgzSDIzLjIyMDdaIiBjbGlwLXJ1bGU9ImV2ZW5vZGQiIGZpbGwtcnVsZT0iZXZlbm9kZCIvPiYjeGE7PC9zdmc+;fontSize=16;fontFamily=VK Sans Display;" vertex="1" parent="1">
          <mxGeometry x="2504" y="369" width="50" height="50" as="geometry" />
        </mxCell>
        <mxCell id="V6o-ulw3wgX80Zc9qYh9-31" value="" style="endArrow=open;html=1;fontFamily=VK Sans Display;fontColor=#212121;rounded=0;strokeColor=#7C8A9A;endFill=0;strokeWidth=2;arcSize=8;exitX=0.5;exitY=1;exitDx=0;exitDy=0;entryX=0.5;entryY=0;entryDx=0;entryDy=0;" edge="1" parent="1" source="V6o-ulw3wgX80Zc9qYh9-10" target="V6o-ulw3wgX80Zc9qYh9-28">
          <mxGeometry width="50" height="50" relative="1" as="geometry">
            <mxPoint x="1890.5" y="343" as="sourcePoint" />
            <mxPoint x="1965.5" y="343" as="targetPoint" />
          </mxGeometry>
        </mxCell>
        <mxCell id="V6o-ulw3wgX80Zc9qYh9-32" value="" style="endArrow=open;html=1;fontFamily=VK Sans Display;fontColor=#212121;rounded=0;strokeColor=#7C8A9A;endFill=0;strokeWidth=2;arcSize=8;exitX=0.5;exitY=1;exitDx=0;exitDy=0;entryX=0.5;entryY=0;entryDx=0;entryDy=0;" edge="1" parent="1" source="V6o-ulw3wgX80Zc9qYh9-14" target="V6o-ulw3wgX80Zc9qYh9-29">
          <mxGeometry width="50" height="50" relative="1" as="geometry">
            <mxPoint x="2001" y="330" as="sourcePoint" />
            <mxPoint x="2001" y="370" as="targetPoint" />
          </mxGeometry>
        </mxCell>
        <mxCell id="V6o-ulw3wgX80Zc9qYh9-33" value="" style="endArrow=open;html=1;fontFamily=VK Sans Display;fontColor=#212121;rounded=0;strokeColor=#7C8A9A;endFill=0;strokeWidth=2;arcSize=8;exitX=0.5;exitY=1;exitDx=0;exitDy=0;entryX=0.5;entryY=0;entryDx=0;entryDy=0;" edge="1" parent="1" source="V6o-ulw3wgX80Zc9qYh9-18" target="V6o-ulw3wgX80Zc9qYh9-30">
          <mxGeometry width="50" height="50" relative="1" as="geometry">
            <mxPoint x="2404" y="330" as="sourcePoint" />
            <mxPoint x="2404" y="370" as="targetPoint" />
          </mxGeometry>
        </mxCell>
        <mxCell id="V6o-ulw3wgX80Zc9qYh9-34" style="endArrow=open;html=1;fontFamily=VK Sans Display;fontColor=#212121;rounded=1;strokeColor=#E188D0;endFill=0;arcsize=8;startArrow=none;startFill=0;strokeWidth=2;labelBackgroundColor=#FFFFFF;textOpacity=70;verticalAlign=middle;spacing=8;fontSize=16;arcSize=8;exitX=1;exitY=0.25;exitDx=0;exitDy=0;entryX=0;entryY=0.25;entryDx=0;entryDy=0;" edge="1" parent="1" source="V6o-ulw3wgX80Zc9qYh9-13" target="V6o-ulw3wgX80Zc9qYh9-18">
          <mxGeometry relative="1" as="geometry">
            <Array as="points">
              <mxPoint x="2399" y="250" />
              <mxPoint x="2399" y="300" />
            </Array>
            <mxPoint x="2061" y="259" as="sourcePoint" />
            <mxPoint x="2219" y="329" as="targetPoint" />
          </mxGeometry>
        </mxCell>
        <mxCell id="V6o-ulw3wgX80Zc9qYh9-35" value="" style="endArrow=open;html=1;fontFamily=VK Sans Display;fontColor=#212121;rounded=1;strokeColor=#E188D0;endFill=0;arcsize=8;startArrow=none;startFill=0;strokeWidth=2;labelBackgroundColor=#FFFFFF;textOpacity=70;verticalAlign=middle;spacing=8;fontSize=16;arcSize=8;exitX=1;exitY=0.5;exitDx=0;exitDy=0;entryX=0;entryY=0.5;entryDx=0;entryDy=0;" vertex="1" connectable="0" parent="V6o-ulw3wgX80Zc9qYh9-34">
          <mxGeometry x="-0.0264" y="1" relative="1" as="geometry">
            <mxPoint y="33" as="offset" />
          </mxGeometry>
        </mxCell>
        <mxCell id="V6o-ulw3wgX80Zc9qYh9-36" style="endArrow=open;html=1;fontFamily=VK Sans Display;fontColor=#212121;rounded=1;strokeColor=#E188D0;endFill=0;arcsize=8;startArrow=none;startFill=0;strokeWidth=2;labelBackgroundColor=#FFFFFF;textOpacity=70;verticalAlign=middle;spacing=8;fontSize=16;arcSize=8;exitX=1;exitY=0.75;exitDx=0;exitDy=0;entryX=1;entryY=0.25;entryDx=0;entryDy=0;" edge="1" parent="1" source="V6o-ulw3wgX80Zc9qYh9-13" target="V6o-ulw3wgX80Zc9qYh9-14">
          <mxGeometry relative="1" as="geometry">
            <Array as="points">
              <mxPoint x="2349" y="269" />
              <mxPoint x="2349" y="299" />
            </Array>
            <mxPoint x="2071" y="269" as="sourcePoint" />
            <mxPoint x="2229" y="339" as="targetPoint" />
          </mxGeometry>
        </mxCell>
        <mxCell id="V6o-ulw3wgX80Zc9qYh9-37" value="" style="endArrow=open;html=1;fontFamily=VK Sans Display;fontColor=#212121;rounded=1;strokeColor=#E188D0;endFill=0;arcsize=8;startArrow=none;startFill=0;strokeWidth=2;labelBackgroundColor=#FFFFFF;textOpacity=70;verticalAlign=middle;spacing=8;fontSize=16;arcSize=8;exitX=1;exitY=0.5;exitDx=0;exitDy=0;entryX=0;entryY=0.5;entryDx=0;entryDy=0;" vertex="1" connectable="0" parent="V6o-ulw3wgX80Zc9qYh9-36">
          <mxGeometry x="-0.0264" y="1" relative="1" as="geometry">
            <mxPoint y="33" as="offset" />
          </mxGeometry>
        </mxCell>
        <mxCell id="V6o-ulw3wgX80Zc9qYh9-38" style="endArrow=open;html=1;fontFamily=VK Sans Display;fontColor=#212121;rounded=1;strokeColor=#E188D0;endFill=0;arcsize=8;startArrow=none;startFill=0;strokeWidth=2;labelBackgroundColor=#FFFFFF;textOpacity=70;verticalAlign=middle;spacing=8;fontSize=16;arcSize=8;exitX=1;exitY=0.75;exitDx=0;exitDy=0;" edge="1" parent="1" source="V6o-ulw3wgX80Zc9qYh9-17" target="V6o-ulw3wgX80Zc9qYh9-18">
          <mxGeometry relative="1" as="geometry">
            <Array as="points">
              <mxPoint x="2608" y="270" />
              <mxPoint x="2608" y="310" />
            </Array>
            <mxPoint x="2588" y="270" as="sourcePoint" />
            <mxPoint x="2588" y="310" as="targetPoint" />
          </mxGeometry>
        </mxCell>
        <mxCell id="V6o-ulw3wgX80Zc9qYh9-39" value="" style="endArrow=open;html=1;fontFamily=VK Sans Display;fontColor=#212121;rounded=1;strokeColor=#E188D0;endFill=0;arcsize=8;startArrow=none;startFill=0;strokeWidth=2;labelBackgroundColor=#FFFFFF;textOpacity=70;verticalAlign=middle;spacing=8;fontSize=16;arcSize=8;exitX=1;exitY=0.5;exitDx=0;exitDy=0;entryX=0;entryY=0.5;entryDx=0;entryDy=0;" vertex="1" connectable="0" parent="V6o-ulw3wgX80Zc9qYh9-38">
          <mxGeometry x="-0.0264" y="1" relative="1" as="geometry">
            <mxPoint y="33" as="offset" />
          </mxGeometry>
        </mxCell>
        <mxCell id="V6o-ulw3wgX80Zc9qYh9-40" style="endArrow=open;html=1;fontFamily=VK Sans Display;fontColor=#212121;rounded=1;strokeColor=#E188D0;endFill=0;arcsize=8;startArrow=none;startFill=0;strokeWidth=2;labelBackgroundColor=#FFFFFF;textOpacity=70;verticalAlign=middle;spacing=8;fontSize=16;arcSize=8;exitX=0;exitY=0.5;exitDx=0;exitDy=0;entryX=1;entryY=0.75;entryDx=0;entryDy=0;" edge="1" parent="1" source="V6o-ulw3wgX80Zc9qYh9-17" target="V6o-ulw3wgX80Zc9qYh9-14">
          <mxGeometry relative="1" as="geometry">
            <Array as="points">
              <mxPoint x="2359" y="260" />
              <mxPoint x="2359" y="320" />
            </Array>
            <mxPoint x="2349" y="289" as="sourcePoint" />
            <mxPoint x="2349" y="329" as="targetPoint" />
          </mxGeometry>
        </mxCell>
        <mxCell id="V6o-ulw3wgX80Zc9qYh9-41" value="" style="endArrow=open;html=1;fontFamily=VK Sans Display;fontColor=#212121;rounded=1;strokeColor=#E188D0;endFill=0;arcsize=8;startArrow=none;startFill=0;strokeWidth=2;labelBackgroundColor=#FFFFFF;textOpacity=70;verticalAlign=middle;spacing=8;fontSize=16;arcSize=8;exitX=1;exitY=0.5;exitDx=0;exitDy=0;entryX=0;entryY=0.5;entryDx=0;entryDy=0;" vertex="1" connectable="0" parent="V6o-ulw3wgX80Zc9qYh9-40">
          <mxGeometry x="-0.0264" y="1" relative="1" as="geometry">
            <mxPoint y="33" as="offset" />
          </mxGeometry>
        </mxCell>
      </root>
    </mxGraphModel>
  </diagram>
  <diagram id="DxS_U2pMbObuxVF4fIkN" name="cluster maxi">
    <mxGraphModel dx="-421" dy="667" grid="1" gridSize="10" guides="1" tooltips="1" connect="1" arrows="1" fold="1" page="1" pageScale="1" pageWidth="827" pageHeight="1169" math="0" shadow="0">
      <root>
        <mxCell id="0" />
        <mxCell id="1" parent="0" />
        <mxCell id="UY1xDTAKK57Bm_KbD5Kl-1" value="VictoriaMetrics Cluster Maxi" style="rounded=1;whiteSpace=wrap;html=1;strokeColor=#7C8A9A;strokeWidth=1;fontColor=#212121;fillColor=none;dashed=1;fontFamily=VK Sans Display;verticalAlign=top;spacing=10;fontStyle=1;arcSize=12;absoluteArcSize=1;fontSize=16;points=[[0,0,0,0,0],[0,0.25,0,0,0],[0,0.5,0,0,0],[0,0.75,0,0,0],[0,1,0,0,0],[0.25,0,0,0,0],[0.25,1,0,0,0],[0.5,0,0,0,0],[0.5,1,0,0,0],[0.75,0,0,0,0],[0.75,1,0,0,0],[1,0,0,0,0],[1,0.25,0,0,0],[1,0.5,0,0,0],[1,0.75,0,0,0],[1,1,0,0,0]];movable=1;resizable=1;rotatable=1;deletable=1;editable=1;locked=0;connectable=1;" vertex="1" parent="1">
          <mxGeometry x="1816" y="80" width="880" height="540" as="geometry" />
        </mxCell>
        <mxCell id="UY1xDTAKK57Bm_KbD5Kl-2" value="Applications" style="shape=image;verticalLabelPosition=bottom;labelBackgroundColor=default;verticalAlign=top;aspect=fixed;imageAspect=0;image=data:image/svg+xml,PHN2ZyB4bWxucz0iaHR0cDovL3d3dy53My5vcmcvMjAwMC9zdmciIGZpbGw9Im5vbmUiIHZpZXdCb3g9IjAgMCAyOCAyOCIgaGVpZ2h0PSIyOCIgd2lkdGg9IjI4Ij4mI3hhOzxwYXRoIGZpbGw9IiMyNjg4RUIiIGQ9Ik04LjA0MDE2IDNINy45NTk4NEg3Ljk1OTgxQzcuMjkzOTUgMi45OTk5OSA2LjczNDQ0IDIuOTk5OTcgNi4yNzY1NyAzLjAzNzM4QzUuNzk3ODUgMy4wNzY1IDUuMzQyODkgMy4xNjE0NCA0LjkxMTAzIDMuMzgxNDhDNC4yNTI0NyAzLjcxNzA0IDMuNzE3MDQgNC4yNTI0NyAzLjM4MTQ4IDQuOTExMDNDMy4xNjE0NCA1LjM0Mjg5IDMuMDc2NSA1Ljc5Nzg1IDMuMDM3MzggNi4yNzY1N0MyLjk5OTk3IDYuNzM0NDQgMi45OTk5OSA3LjI5Mzk1IDMgNy45NTk4MVY3Ljk1OTg0VjguMDQwMTZWOC4wNDAxOUMyLjk5OTk5IDguNzA2MDUgMi45OTk5NyA5LjI2NTU2IDMuMDM3MzggOS43MjM0M0MzLjA3NjUgMTAuMjAyMSAzLjE2MTQ0IDEwLjY1NzEgMy4zODE0OCAxMS4wODlDMy43MTcwNCAxMS43NDc1IDQuMjUyNDcgMTIuMjgzIDQuOTExMDMgMTIuNjE4NUM1LjM0Mjg5IDEyLjgzODYgNS43OTc4NSAxMi45MjM1IDYuMjc2NTcgMTIuOTYyNkM2LjczNDQ1IDEzIDcuMjkzOTggMTMgNy45NTk4NyAxM0g4LjA0MDE0QzguNzA2MDIgMTMgOS4yNjU1NSAxMyA5LjcyMzQzIDEyLjk2MjZDMTAuMjAyMSAxMi45MjM1IDEwLjY1NzEgMTIuODM4NiAxMS4wODkgMTIuNjE4NUMxMS43NDc1IDEyLjI4MyAxMi4yODMgMTEuNzQ3NSAxMi42MTg1IDExLjA4OUMxMi44Mzg2IDEwLjY1NzEgMTIuOTIzNSAxMC4yMDIxIDEyLjk2MjYgOS43MjM0M0MxMyA5LjI2NTU1IDEzIDguNzA2MDIgMTMgOC4wNDAxNFY3Ljk1OTg3QzEzIDcuMjkzOTggMTMgNi43MzQ0NSAxMi45NjI2IDYuMjc2NTdDMTIuOTIzNSA1Ljc5Nzg1IDEyLjgzODYgNS4zNDI4OSAxMi42MTg1IDQuOTExMDNDMTIuMjgzIDQuMjUyNDcgMTEuNzQ3NSAzLjcxNzA0IDExLjA4OSAzLjM4MTQ4QzEwLjY1NzEgMy4xNjE0NCAxMC4yMDIxIDMuMDc2NSA5LjcyMzQzIDMuMDM3MzhDOS4yNjU1NiAyLjk5OTk3IDguNzA2MDUgMi45OTk5OSA4LjA0MDE5IDNIOC4wNDAxNlpNNS44MTkwMiA1LjE2MzQ5QzUuOTIxOTQgNS4xMTEwNSA2LjA4NDQgNS4wNTk3NSA2LjQzOTQ0IDUuMDMwNzRDNi44MDYxNSA1LjAwMDc4IDcuMjgzNDMgNSA4IDVDOC43MTY1NyA1IDkuMTkzODUgNS4wMDA3OCA5LjU2MDU2IDUuMDMwNzRDOS45MTU2IDUuMDU5NzUgMTAuMDc4MSA1LjExMTA1IDEwLjE4MSA1LjE2MzQ5QzEwLjQ2MzIgNS4zMDczIDEwLjY5MjcgNS41MzY3NyAxMC44MzY1IDUuODE5MDJDMTAuODg5IDUuOTIxOTQgMTAuOTQwMyA2LjA4NDQgMTAuOTY5MyA2LjQzOTQ0QzEwLjk5OTIgNi44MDYxNSAxMSA3LjI4MzQzIDExIDhDMTEgOC43MTY1NyAxMC45OTkyIDkuMTkzODUgMTAuOTY5MyA5LjU2MDU2QzEwLjk0MDMgOS45MTU2IDEwLjg4OSAxMC4wNzgxIDEwLjgzNjUgMTAuMTgxQzEwLjY5MjcgMTAuNDYzMiAxMC40NjMyIDEwLjY5MjcgMTAuMTgxIDEwLjgzNjVDMTAuMDc4MSAxMC44ODkgOS45MTU2IDEwLjk0MDMgOS41NjA1NiAxMC45NjkzQzkuMTkzODUgMTAuOTk5MiA4LjcxNjU3IDExIDggMTFDNy4yODM0MyAxMSA2LjgwNjE1IDEwLjk5OTIgNi40Mzk0NCAxMC45NjkzQzYuMDg0NCAxMC45NDAzIDUuOTIxOTQgMTAuODg5IDUuODE5MDIgMTAuODM2NUM1LjUzNjc3IDEwLjY5MjcgNS4zMDczIDEwLjQ2MzIgNS4xNjM0OSAxMC4xODFDNS4xMTEwNSAxMC4wNzgxIDUuMDU5NzUgOS45MTU2IDUuMDMwNzQgOS41NjA1NkM1LjAwMDc4IDkuMTkzODUgNSA4LjcxNjU3IDUgOEM1IDcuMjgzNDMgNS4wMDA3OCA2LjgwNjE1IDUuMDMwNzQgNi40Mzk0NEM1LjA1OTc1IDYuMDg0NCA1LjExMTA1IDUuOTIxOTQgNS4xNjM0OSA1LjgxOTAyQzUuMzA3MyA1LjUzNjc3IDUuNTM2NzcgNS4zMDczIDUuODE5MDIgNS4xNjM0OVpNOS43MjM0MyAxNS4wMzc0QzkuMjY1NTYgMTUgOC43MDYwMyAxNSA4LjA0MDE2IDE1SDcuOTU5ODRDNy4yOTM5NyAxNSA2LjczNDQ1IDE1IDYuMjc2NTcgMTUuMDM3NEM1Ljc5Nzg1IDE1LjA3NjUgNS4zNDI4OSAxNS4xNjE0IDQuOTExMDMgMTUuMzgxNUM0LjI1MjQ3IDE1LjcxNyAzLjcxNzA0IDE2LjI1MjUgMy4zODE0OCAxNi45MTFDMy4xNjE0NCAxNy4zNDI5IDMuMDc2NSAxNy43OTc5IDMuMDM3MzggMTguMjc2NkMyLjk5OTk3IDE4LjczNDQgMi45OTk5OSAxOS4yOTQgMyAxOS45NTk4VjE5Ljk1OThWMjAuMDQwMlYyMC4wNDAyQzIuOTk5OTkgMjAuNzA2MSAyLjk5OTk3IDIxLjI2NTYgMy4wMzczOCAyMS43MjM0QzMuMDc2NSAyMi4yMDIxIDMuMTYxNDQgMjIuNjU3MSAzLjM4MTQ4IDIzLjA4OUMzLjcxNzA0IDIzLjc0NzUgNC4yNTI0NyAyNC4yODMgNC45MTEwMyAyNC42MTg1QzUuMzQyODkgMjQuODM4NiA1Ljc5Nzg1IDI0LjkyMzUgNi4yNzY1NyAyNC45NjI2QzYuNzM0NDMgMjUgNy4yOTM5NCAyNSA3Ljk1OTc4IDI1SDcuOTU5ODFINy45NTk4NEg3Ljk1OTg3SDguMDQwMTRIOC4wNDAxNkg4LjA0MDE5SDguMDQwMjJDOC43MDYwNyAyNSA5LjI2NTU3IDI1IDkuNzIzNDMgMjQuOTYyNkMxMC4yMDIxIDI0LjkyMzUgMTAuNjU3MSAyNC44Mzg2IDExLjA4OSAyNC42MTg1QzExLjc0NzUgMjQuMjgzIDEyLjI4MyAyMy43NDc1IDEyLjYxODUgMjMuMDg5QzEyLjgzODYgMjIuNjU3MSAxMi45MjM1IDIyLjIwMjEgMTIuOTYyNiAyMS43MjM0QzEzIDIxLjI2NTYgMTMgMjAuNzA2IDEzIDIwLjA0MDFWMTkuOTU5OUMxMyAxOS4yOTQgMTMgMTguNzM0NSAxMi45NjI2IDE4LjI3NjZDMTIuOTIzNSAxNy43OTc5IDEyLjgzODYgMTcuMzQyOSAxMi42MTg1IDE2LjkxMUMxMi4yODMgMTYuMjUyNSAxMS43NDc1IDE1LjcxNyAxMS4wODkgMTUuMzgxNUMxMC42NTcxIDE1LjE2MTQgMTAuMjAyMSAxNS4wNzY1IDkuNzIzNDMgMTUuMDM3NFpNNS44MTkwMiAxNy4xNjM1QzUuOTIxOTQgMTcuMTExIDYuMDg0NCAxNy4wNTk3IDYuNDM5NDQgMTcuMDMwN0M2LjgwNjE1IDE3LjAwMDggNy4yODM0MyAxNyA4IDE3QzguNzE2NTcgMTcgOS4xOTM4NSAxNy4wMDA4IDkuNTYwNTYgMTcuMDMwN0M5LjkxNTYgMTcuMDU5NyAxMC4wNzgxIDE3LjExMSAxMC4xODEgMTcuMTYzNUMxMC40NjMyIDE3LjMwNzMgMTAuNjkyNyAxNy41MzY4IDEwLjgzNjUgMTcuODE5QzEwLjg4OSAxNy45MjE5IDEwLjk0MDMgMTguMDg0NCAxMC45NjkzIDE4LjQzOTRDMTAuOTk5MiAxOC44MDYyIDExIDE5LjI4MzQgMTEgMjBDMTEgMjAuNzE2NiAxMC45OTkyIDIxLjE5MzkgMTAuOTY5MyAyMS41NjA2QzEwLjk0MDMgMjEuOTE1NiAxMC44ODkgMjIuMDc4MSAxMC44MzY1IDIyLjE4MUMxMC42OTI3IDIyLjQ2MzIgMTAuNDYzMiAyMi42OTI3IDEwLjE4MSAyMi44MzY1QzEwLjA3ODEgMjIuODg5IDkuOTE1NiAyMi45NDAzIDkuNTYwNTYgMjIuOTY5M0M5LjE5Mzg1IDIyLjk5OTIgOC43MTY1NyAyMyA4IDIzQzcuMjgzNDMgMjMgNi44MDYxNSAyMi45OTkyIDYuNDM5NDQgMjIuOTY5M0M2LjA4NDQgMjIuOTQwMyA1LjkyMTk0IDIyLjg4OSA1LjgxOTAyIDIyLjgzNjVDNS41MzY3NyAyMi42OTI3IDUuMzA3MyAyMi40NjMyIDUuMTYzNDkgMjIuMTgxQzUuMTExMDUgMjIuMDc4MSA1LjA1OTc1IDIxLjkxNTYgNS4wMzA3NCAyMS41NjA2QzUuMDAwNzggMjEuMTkzOSA1IDIwLjcxNjYgNSAyMEM1IDE5LjI4MzQgNS4wMDA3OCAxOC44MDYyIDUuMDMwNzQgMTguNDM5NEM1LjA1OTc1IDE4LjA4NDQgNS4xMTEwNSAxNy45MjE5IDUuMTYzNDkgMTcuODE5QzUuMzA3MyAxNy41MzY4IDUuNTM2NzcgMTcuMzA3MyA1LjgxOTAyIDE3LjE2MzVaTTE4LjI3NjYgMTUuMDM3NEMxOC43MzQ0IDE1IDE5LjI5NCAxNSAxOS45NTk4IDE1SDIwLjA0MDJDMjAuNzA2IDE1IDIxLjI2NTYgMTUgMjEuNzIzNCAxNS4wMzc0QzIyLjIwMjEgMTUuMDc2NSAyMi42NTcxIDE1LjE2MTQgMjMuMDg5IDE1LjM4MTVDMjMuNzQ3NSAxNS43MTcgMjQuMjgzIDE2LjI1MjUgMjQuNjE4NSAxNi45MTFDMjQuODM4NiAxNy4zNDI5IDI0LjkyMzUgMTcuNzk3OSAyNC45NjI2IDE4LjI3NjZDMjUgMTguNzM0NCAyNSAxOS4yOTQgMjUgMTkuOTU5OFYxOS45NTk4VjE5Ljk1OTlWMjAuMDQwMVYyMC4wNDAyVjIwLjA0MDJDMjUgMjAuNzA2IDI1IDIxLjI2NTYgMjQuOTYyNiAyMS43MjM0QzI0LjkyMzUgMjIuMjAyMSAyNC44Mzg2IDIyLjY1NzEgMjQuNjE4NSAyMy4wODlDMjQuMjgzIDIzLjc0NzUgMjMuNzQ3NSAyNC4yODMgMjMuMDg5IDI0LjYxODVDMjIuNjU3MSAyNC44Mzg2IDIyLjIwMjEgMjQuOTIzNSAyMS43MjM0IDI0Ljk2MjZDMjEuMjY1NiAyNSAyMC43MDYgMjUgMjAuMDQwMiAyNUgyMC4wNDAySDIwLjA0MDFIMTkuOTU5OUgxOS45NTk4SDE5Ljk1OThDMTkuMjk0IDI1IDE4LjczNDQgMjUgMTguMjc2NiAyNC45NjI2QzE3Ljc5NzkgMjQuOTIzNSAxNy4zNDI5IDI0LjgzODYgMTYuOTExIDI0LjYxODVDMTYuMjUyNSAyNC4yODMgMTUuNzE3IDIzLjc0NzUgMTUuMzgxNSAyMy4wODlDMTUuMTYxNCAyMi42NTcxIDE1LjA3NjUgMjIuMjAyMSAxNS4wMzc0IDIxLjcyMzRDMTUgMjEuMjY1NiAxNSAyMC43MDYgMTUgMjAuMDQwMlYxOS45NTk4QzE1IDE5LjI5NCAxNSAxOC43MzQ0IDE1LjAzNzQgMTguMjc2NkMxNS4wNzY1IDE3Ljc5NzkgMTUuMTYxNCAxNy4zNDI5IDE1LjM4MTUgMTYuOTExQzE1LjcxNyAxNi4yNTI1IDE2LjI1MjUgMTUuNzE3IDE2LjkxMSAxNS4zODE1QzE3LjM0MjkgMTUuMTYxNCAxNy43OTc5IDE1LjA3NjUgMTguMjc2NiAxNS4wMzc0Wk0xOC40Mzk0IDE3LjAzMDdDMTguMDg0NCAxNy4wNTk3IDE3LjkyMTkgMTcuMTExIDE3LjgxOSAxNy4xNjM1QzE3LjUzNjggMTcuMzA3MyAxNy4zMDczIDE3LjUzNjggMTcuMTYzNSAxNy44MTlDMTcuMTExIDE3LjkyMTkgMTcuMDU5NyAxOC4wODQ0IDE3LjAzMDcgMTguNDM5NEMxNy4wMDA4IDE4LjgwNjIgMTcgMTkuMjgzNCAxNyAyMEMxNyAyMC43MTY2IDE3LjAwMDggMjEuMTkzOSAxNy4wMzA3IDIxLjU2MDZDMTcuMDU5NyAyMS45MTU2IDE3LjExMSAyMi4wNzgxIDE3LjE2MzUgMjIuMTgxQzE3LjMwNzMgMjIuNDYzMiAxNy41MzY4IDIyLjY5MjcgMTcuODE5IDIyLjgzNjVDMTcuOTIxOSAyMi44ODkgMTguMDg0NCAyMi45NDAzIDE4LjQzOTQgMjIuOTY5M0MxOC44MDYyIDIyLjk5OTIgMTkuMjgzNCAyMyAyMCAyM0MyMC43MTY2IDIzIDIxLjE5MzkgMjIuOTk5MiAyMS41NjA2IDIyLjk2OTNDMjEuOTE1NiAyMi45NDAzIDIyLjA3ODEgMjIuODg5IDIyLjE4MSAyMi44MzY1QzIyLjQ2MzIgMjIuNjkyNyAyMi42OTI3IDIyLjQ2MzIgMjIuODM2NSAyMi4xODFDMjIuODg5IDIyLjA3ODEgMjIuOTQwMyAyMS45MTU2IDIyLjk2OTMgMjEuNTYwNkMyMi45OTkyIDIxLjE5MzkgMjMgMjAuNzE2NiAyMyAyMEMyMyAxOS4yODM0IDIyLjk5OTIgMTguODA2MiAyMi45NjkzIDE4LjQzOTRDMjIuOTQwMyAxOC4wODQ0IDIyLjg4OSAxNy45MjE5IDIyLjgzNjUgMTcuODE5QzIyLjY5MjcgMTcuNTM2OCAyMi40NjMyIDE3LjMwNzMgMjIuMTgxIDE3LjE2MzVDMjIuMDc4MSAxNy4xMTEgMjEuOTE1NiAxNy4wNTk3IDIxLjU2MDYgMTcuMDMwN0MyMS4xOTM5IDE3LjAwMDggMjAuNzE2NiAxNyAyMCAxN0MxOS4yODM0IDE3IDE4LjgwNjIgMTcuMDAwOCAxOC40Mzk0IDE3LjAzMDdaTTIwLjA0MDIgM0gxOS45NTk4SDE5Ljk1OThDMTkuMjk0IDIuOTk5OTkgMTguNzM0NCAyLjk5OTk3IDE4LjI3NjYgMy4wMzczOEMxNy43OTc5IDMuMDc2NSAxNy4zNDI5IDMuMTYxNDQgMTYuOTExIDMuMzgxNDhDMTYuMjUyNSAzLjcxNzA0IDE1LjcxNyA0LjI1MjQ3IDE1LjM4MTUgNC45MTEwM0MxNS4xNjE0IDUuMzQyODkgMTUuMDc2NSA1Ljc5Nzg1IDE1LjAzNzQgNi4yNzY1N0MxNSA2LjczNDQ1IDE1IDcuMjkzOTcgMTUgNy45NTk4NFY4LjA0MDE2QzE1IDguNzA2MDMgMTUgOS4yNjU1NiAxNS4wMzc0IDkuNzIzNDNDMTUuMDc2NSAxMC4yMDIxIDE1LjE2MTQgMTAuNjU3MSAxNS4zODE1IDExLjA4OUMxNS43MTcgMTEuNzQ3NSAxNi4yNTI1IDEyLjI4MyAxNi45MTEgMTIuNjE4NUMxNy4zNDI5IDEyLjgzODYgMTcuNzk3OSAxMi45MjM1IDE4LjI3NjYgMTIuOTYyNkMxOC43MzQ1IDEzIDE5LjI5NCAxMyAxOS45NTk5IDEzSDIwLjA0MDFDMjAuNzA2IDEzIDIxLjI2NTYgMTMgMjEuNzIzNCAxMi45NjI2QzIyLjIwMjEgMTIuOTIzNSAyMi42NTcxIDEyLjgzODYgMjMuMDg5IDEyLjYxODVDMjMuNzQ3NSAxMi4yODMgMjQuMjgzIDExLjc0NzUgMjQuNjE4NSAxMS4wODlDMjQuODM4NiAxMC42NTcxIDI0LjkyMzUgMTAuMjAyMSAyNC45NjI2IDkuNzIzNDNDMjUgOS4yNjU1NiAyNSA4LjcwNjAzIDI1IDguMDQwMTZWOC4wNDAxNFY3Ljk1OTg3VjcuOTU5ODRDMjUgNy4yOTM5NyAyNSA2LjczNDQ0IDI0Ljk2MjYgNi4yNzY1N0MyNC45MjM1IDUuNzk3ODUgMjQuODM4NiA1LjM0Mjg5IDI0LjYxODUgNC45MTEwM0MyNC4yODMgNC4yNTI0NyAyMy43NDc1IDMuNzE3MDQgMjMuMDg5IDMuMzgxNDhDMjIuNjU3MSAzLjE2MTQ0IDIyLjIwMjEgMy4wNzY1IDIxLjcyMzQgMy4wMzczOEMyMS4yNjU2IDIuOTk5OTcgMjAuNzA2MSAyLjk5OTk5IDIwLjA0MDIgM0gyMC4wNDAyWk0xNy44MTkgNS4xNjM0OUMxNy45MjE5IDUuMTExMDUgMTguMDg0NCA1LjA1OTc1IDE4LjQzOTQgNS4wMzA3NEMxOC44MDYyIDUuMDAwNzggMTkuMjgzNCA1IDIwIDVDMjAuNzE2NiA1IDIxLjE5MzkgNS4wMDA3OCAyMS41NjA2IDUuMDMwNzRDMjEuOTE1NiA1LjA1OTc1IDIyLjA3ODEgNS4xMTEwNSAyMi4xODEgNS4xNjM0OUMyMi40NjMyIDUuMzA3MyAyMi42OTI3IDUuNTM2NzcgMjIuODM2NSA1LjgxOTAyQzIyLjg4OSA1LjkyMTk0IDIyLjk0MDMgNi4wODQ0IDIyLjk2OTMgNi40Mzk0NEMyMi45OTkyIDYuODA2MTUgMjMgNy4yODM0MyAyMyA4QzIzIDguNzE2NTcgMjIuOTk5MiA5LjE5Mzg1IDIyLjk2OTMgOS41NjA1NkMyMi45NDAzIDkuOTE1NiAyMi44ODkgMTAuMDc4MSAyMi44MzY1IDEwLjE4MUMyMi42OTI3IDEwLjQ2MzIgMjIuNDYzMiAxMC42OTI3IDIyLjE4MSAxMC44MzY1QzIyLjA3ODEgMTAuODg5IDIxLjkxNTYgMTAuOTQwMyAyMS41NjA2IDEwLjk2OTNDMjEuMTkzOSAxMC45OTkyIDIwLjcxNjYgMTEgMjAgMTFDMTkuMjgzNCAxMSAxOC44MDYyIDEwLjk5OTIgMTguNDM5NCAxMC45NjkzQzE4LjA4NDQgMTAuOTQwMyAxNy45MjE5IDEwLjg4OSAxNy44MTkgMTAuODM2NUMxNy41MzY4IDEwLjY5MjcgMTcuMzA3MyAxMC40NjMyIDE3LjE2MzUgMTAuMTgxQzE3LjExMSAxMC4wNzgxIDE3LjA1OTcgOS45MTU2IDE3LjAzMDcgOS41NjA1NkMxNy4wMDA4IDkuMTkzODUgMTcgOC43MTY1NyAxNyA4QzE3IDcuMjgzNDMgMTcuMDAwOCA2LjgwNjE1IDE3LjAzMDcgNi40Mzk0NEMxNy4wNTk3IDYuMDg0NCAxNy4xMTEgNS45MjE5NCAxNy4xNjM1IDUuODE5MDJDMTcuMzA3MyA1LjUzNjc3IDE3LjUzNjggNS4zMDczIDE3LjgxOSA1LjE2MzQ5WiIgY2xpcC1ydWxlPSJldmVub2RkIiBmaWxsLXJ1bGU9ImV2ZW5vZGQiLz4mI3hhOzwvc3ZnPg==;fontSize=16;fontFamily=VK Sans Display;" vertex="1" parent="1">
          <mxGeometry x="2747" y="179.5" width="53" height="53" as="geometry" />
        </mxCell>
        <mxCell id="UY1xDTAKK57Bm_KbD5Kl-3" value="User" style="shape=image;verticalLabelPosition=bottom;labelBackgroundColor=default;verticalAlign=top;aspect=fixed;imageAspect=0;image=data:image/svg+xml,PHN2ZyB4bWxucz0iaHR0cDovL3d3dy53My5vcmcvMjAwMC9zdmciIGZpbGw9Im5vbmUiIHZpZXdCb3g9IjAgMCAyOCAyOCIgaGVpZ2h0PSIyOCIgd2lkdGg9IjI4Ij4mI3hhOzxwYXRoIGZpbGw9IiMyNjg4RUIiIGQ9Ik0xNy41IDguNUMxNy41IDYuNTY2MDMgMTUuOTM0IDUgMTQgNUMxMi4wNjYgNSAxMC41IDYuNTY2MDMgMTAuNSA4LjVDMTAuNSAxMC40MzQgMTIuMDY2IDEyIDE0IDEyQzE1LjkzNCAxMiAxNy41IDEwLjQzNCAxNy41IDguNVpNMTkuNSA4LjVDMTkuNSAxMS41Mzg1IDE3LjAzODUgMTQgMTQgMTRDMTAuOTYxNSAxNCA4LjUgMTEuNTM4NSA4LjUgOC41QzguNSA1LjQ2MTQ3IDEwLjk2MTUgMyAxNCAzQzE3LjAzODUgMyAxOS41IDUuNDYxNDcgMTkuNSA4LjVaTTcgMjAuNjQyOUM3IDIxLjU4NjIgNi45MTk4NyAyMS41IDcuNDU1ODggMjEuNUgyMS4wNDQxQzIxLjU4MDEgMjEuNSAyMS41IDIxLjU4NjIgMjEuNSAyMC42NDI5QzIxLjUgMTguMzU0NyAxOC4xOTYgMTcgMTQuMjUgMTdDMTAuMzA0IDE3IDcgMTguMzU0NyA3IDIwLjY0MjlaTTUgMjAuNjQyOUM1IDE2Ljc2MjYgOS4yOTg5MiAxNSAxNC4yNSAxNUMxOS4yMDExIDE1IDIzLjUgMTYuNzYyNiAyMy41IDIwLjY0MjlDMjMuNSAyMi42NTkzIDIyLjcxODkgMjMuNSAyMS4wNDQxIDIzLjVINy40NTU4OEM1Ljc4MTExIDIzLjUgNSAyMi42NTkzIDUgMjAuNjQyOVoiLz4mI3hhOzwvc3ZnPg==;fontFamily=VK Sans Display;spacing=-7;fontColor=#212121;fontSize=16;" vertex="1" parent="1">
          <mxGeometry x="1720" y="329" width="56" height="56" as="geometry" />
        </mxCell>
        <mxCell id="UY1xDTAKK57Bm_KbD5Kl-4" value="&lt;b style=&quot;border-color: var(--border-color);&quot;&gt;Virtual machine 1-select&lt;/b&gt;" style="rounded=1;whiteSpace=wrap;html=1;fillColor=none;dashed=1;strokeColor=#7C8A9A;;arcSize=12;absoluteArcSize=1;fontFamily=VK Sans Display;verticalAlign=top;spacing=10;fontSize=16;" vertex="1" parent="1">
          <mxGeometry x="1860" y="281" width="240" height="120" as="geometry" />
        </mxCell>
        <mxCell id="UY1xDTAKK57Bm_KbD5Kl-5" value="vmselect" style="rounded=1;whiteSpace=wrap;html=1;arcSize=12;absoluteArcSize=1;fillColor=#F6F7F9;strokeColor=none;fontSize=16;fontFamily=VK Sans Display;" vertex="1" parent="1">
          <mxGeometry x="1911.5" y="337" width="120" height="40" as="geometry" />
        </mxCell>
        <mxCell id="UY1xDTAKK57Bm_KbD5Kl-6" value="&lt;b style=&quot;border-color: var(--border-color);&quot;&gt;Virtual machine 1-insert&lt;/b&gt;&lt;b&gt;&lt;br&gt;&lt;/b&gt;" style="rounded=1;whiteSpace=wrap;html=1;fillColor=none;dashed=1;strokeColor=#7C8A9A;;arcSize=12;absoluteArcSize=1;fontFamily=VK Sans Display;verticalAlign=top;spacing=10;fontSize=16;" vertex="1" parent="1">
          <mxGeometry x="2417" y="141" width="240" height="100" as="geometry" />
        </mxCell>
        <mxCell id="UY1xDTAKK57Bm_KbD5Kl-7" value="vminsert" style="rounded=1;whiteSpace=wrap;html=1;arcSize=12;absoluteArcSize=1;fillColor=#F6F7F9;strokeColor=none;fontSize=16;fontFamily=VK Sans Display;" vertex="1" parent="1">
          <mxGeometry x="2480" y="186" width="120" height="40" as="geometry" />
        </mxCell>
        <mxCell id="UY1xDTAKK57Bm_KbD5Kl-8" value="&lt;b style=&quot;border-color: var(--border-color);&quot;&gt;Virtual machine 1-storage&lt;/b&gt;" style="rounded=1;whiteSpace=wrap;html=1;fillColor=none;dashed=1;strokeColor=#7C8A9A;;arcSize=12;absoluteArcSize=1;fontFamily=VK Sans Display;verticalAlign=top;spacing=10;fontSize=16;" vertex="1" parent="1">
          <mxGeometry x="2151" y="131" width="215" height="210" as="geometry" />
        </mxCell>
        <mxCell id="UY1xDTAKK57Bm_KbD5Kl-9" value="vmstorage" style="rounded=1;whiteSpace=wrap;html=1;arcSize=12;absoluteArcSize=1;fillColor=#F6F7F9;strokeColor=none;fontSize=16;fontFamily=VK Sans Display;" vertex="1" parent="1">
          <mxGeometry x="2198.5" y="176" width="120" height="40" as="geometry" />
        </mxCell>
        <mxCell id="UY1xDTAKK57Bm_KbD5Kl-10" value="" style="edgeStyle=orthogonalEdgeStyle;rounded=1;orthogonalLoop=1;jettySize=auto;html=1;strokeWidth=2;fillColor=#f5f5f5;strokeColor=#CCCCCC;exitX=0.5;exitY=1;exitDx=0;exitDy=0;entryX=0.5;entryY=0;entryDx=0;entryDy=0;" edge="1" parent="1" source="UY1xDTAKK57Bm_KbD5Kl-9">
          <mxGeometry relative="1" as="geometry">
            <mxPoint x="2392.96" y="259" as="sourcePoint" />
            <mxPoint x="2258.5" y="256" as="targetPoint" />
          </mxGeometry>
        </mxCell>
        <mxCell id="UY1xDTAKK57Bm_KbD5Kl-11" value="&lt;b style=&quot;border-color: var(--border-color);&quot;&gt;Virtual machine 2-storage&lt;/b&gt;" style="rounded=1;whiteSpace=wrap;html=1;fillColor=none;dashed=1;strokeColor=#7C8A9A;;arcSize=12;absoluteArcSize=1;fontFamily=VK Sans Display;verticalAlign=top;spacing=10;fontSize=16;" vertex="1" parent="1">
          <mxGeometry x="2151" y="381" width="215" height="210" as="geometry" />
        </mxCell>
        <mxCell id="UY1xDTAKK57Bm_KbD5Kl-12" value="vmstorage" style="rounded=1;whiteSpace=wrap;html=1;arcSize=12;absoluteArcSize=1;fillColor=#F6F7F9;strokeColor=none;fontSize=16;fontFamily=VK Sans Display;" vertex="1" parent="1">
          <mxGeometry x="2198.5" y="426" width="120" height="40" as="geometry" />
        </mxCell>
        <mxCell id="UY1xDTAKK57Bm_KbD5Kl-13" value="&lt;b style=&quot;border-color: var(--border-color);&quot;&gt;Virtual machine 2-insert&lt;/b&gt;&lt;b&gt;&lt;br&gt;&lt;/b&gt;" style="rounded=1;whiteSpace=wrap;html=1;fillColor=none;dashed=1;strokeColor=#7C8A9A;;arcSize=12;absoluteArcSize=1;fontFamily=VK Sans Display;verticalAlign=top;spacing=10;fontSize=16;" vertex="1" parent="1">
          <mxGeometry x="2417" y="281" width="240" height="100" as="geometry" />
        </mxCell>
        <mxCell id="UY1xDTAKK57Bm_KbD5Kl-14" value="vminsert" style="rounded=1;whiteSpace=wrap;html=1;arcSize=12;absoluteArcSize=1;fillColor=#F6F7F9;strokeColor=none;fontSize=16;fontFamily=VK Sans Display;" vertex="1" parent="1">
          <mxGeometry x="2480" y="323.28999999999996" width="120" height="40" as="geometry" />
        </mxCell>
        <mxCell id="UY1xDTAKK57Bm_KbD5Kl-15" value="&lt;b style=&quot;border-color: var(--border-color);&quot;&gt;Virtual machine 3-insert&lt;/b&gt;&lt;b&gt;&lt;br&gt;&lt;/b&gt;" style="rounded=1;whiteSpace=wrap;html=1;fillColor=none;dashed=1;strokeColor=#7C8A9A;;arcSize=12;absoluteArcSize=1;fontFamily=VK Sans Display;verticalAlign=top;spacing=10;fontSize=16;" vertex="1" parent="1">
          <mxGeometry x="2417" y="431" width="240" height="150" as="geometry" />
        </mxCell>
        <mxCell id="UY1xDTAKK57Bm_KbD5Kl-16" value="vminsert" style="rounded=1;whiteSpace=wrap;html=1;arcSize=12;absoluteArcSize=1;fillColor=#F6F7F9;strokeColor=none;fontSize=16;fontFamily=VK Sans Display;" vertex="1" parent="1">
          <mxGeometry x="2480" y="473.28999999999996" width="120" height="40" as="geometry" />
        </mxCell>
        <mxCell id="UY1xDTAKK57Bm_KbD5Kl-17" value="vmagent" style="rounded=1;whiteSpace=wrap;html=1;arcSize=12;absoluteArcSize=1;fillColor=#F6F7F9;strokeColor=none;fontSize=16;fontFamily=VK Sans Display;" vertex="1" parent="1">
          <mxGeometry x="2480" y="526" width="120" height="40" as="geometry" />
        </mxCell>
        <mxCell id="UY1xDTAKK57Bm_KbD5Kl-18" value="Applications" style="shape=image;verticalLabelPosition=bottom;labelBackgroundColor=default;verticalAlign=top;aspect=fixed;imageAspect=0;image=data:image/svg+xml,PHN2ZyB4bWxucz0iaHR0cDovL3d3dy53My5vcmcvMjAwMC9zdmciIGZpbGw9Im5vbmUiIHZpZXdCb3g9IjAgMCAyOCAyOCIgaGVpZ2h0PSIyOCIgd2lkdGg9IjI4Ij4mI3hhOzxwYXRoIGZpbGw9IiMyNjg4RUIiIGQ9Ik04LjA0MDE2IDNINy45NTk4NEg3Ljk1OTgxQzcuMjkzOTUgMi45OTk5OSA2LjczNDQ0IDIuOTk5OTcgNi4yNzY1NyAzLjAzNzM4QzUuNzk3ODUgMy4wNzY1IDUuMzQyODkgMy4xNjE0NCA0LjkxMTAzIDMuMzgxNDhDNC4yNTI0NyAzLjcxNzA0IDMuNzE3MDQgNC4yNTI0NyAzLjM4MTQ4IDQuOTExMDNDMy4xNjE0NCA1LjM0Mjg5IDMuMDc2NSA1Ljc5Nzg1IDMuMDM3MzggNi4yNzY1N0MyLjk5OTk3IDYuNzM0NDQgMi45OTk5OSA3LjI5Mzk1IDMgNy45NTk4MVY3Ljk1OTg0VjguMDQwMTZWOC4wNDAxOUMyLjk5OTk5IDguNzA2MDUgMi45OTk5NyA5LjI2NTU2IDMuMDM3MzggOS43MjM0M0MzLjA3NjUgMTAuMjAyMSAzLjE2MTQ0IDEwLjY1NzEgMy4zODE0OCAxMS4wODlDMy43MTcwNCAxMS43NDc1IDQuMjUyNDcgMTIuMjgzIDQuOTExMDMgMTIuNjE4NUM1LjM0Mjg5IDEyLjgzODYgNS43OTc4NSAxMi45MjM1IDYuMjc2NTcgMTIuOTYyNkM2LjczNDQ1IDEzIDcuMjkzOTggMTMgNy45NTk4NyAxM0g4LjA0MDE0QzguNzA2MDIgMTMgOS4yNjU1NSAxMyA5LjcyMzQzIDEyLjk2MjZDMTAuMjAyMSAxMi45MjM1IDEwLjY1NzEgMTIuODM4NiAxMS4wODkgMTIuNjE4NUMxMS43NDc1IDEyLjI4MyAxMi4yODMgMTEuNzQ3NSAxMi42MTg1IDExLjA4OUMxMi44Mzg2IDEwLjY1NzEgMTIuOTIzNSAxMC4yMDIxIDEyLjk2MjYgOS43MjM0M0MxMyA5LjI2NTU1IDEzIDguNzA2MDIgMTMgOC4wNDAxNFY3Ljk1OTg3QzEzIDcuMjkzOTggMTMgNi43MzQ0NSAxMi45NjI2IDYuMjc2NTdDMTIuOTIzNSA1Ljc5Nzg1IDEyLjgzODYgNS4zNDI4OSAxMi42MTg1IDQuOTExMDNDMTIuMjgzIDQuMjUyNDcgMTEuNzQ3NSAzLjcxNzA0IDExLjA4OSAzLjM4MTQ4QzEwLjY1NzEgMy4xNjE0NCAxMC4yMDIxIDMuMDc2NSA5LjcyMzQzIDMuMDM3MzhDOS4yNjU1NiAyLjk5OTk3IDguNzA2MDUgMi45OTk5OSA4LjA0MDE5IDNIOC4wNDAxNlpNNS44MTkwMiA1LjE2MzQ5QzUuOTIxOTQgNS4xMTEwNSA2LjA4NDQgNS4wNTk3NSA2LjQzOTQ0IDUuMDMwNzRDNi44MDYxNSA1LjAwMDc4IDcuMjgzNDMgNSA4IDVDOC43MTY1NyA1IDkuMTkzODUgNS4wMDA3OCA5LjU2MDU2IDUuMDMwNzRDOS45MTU2IDUuMDU5NzUgMTAuMDc4MSA1LjExMTA1IDEwLjE4MSA1LjE2MzQ5QzEwLjQ2MzIgNS4zMDczIDEwLjY5MjcgNS41MzY3NyAxMC44MzY1IDUuODE5MDJDMTAuODg5IDUuOTIxOTQgMTAuOTQwMyA2LjA4NDQgMTAuOTY5MyA2LjQzOTQ0QzEwLjk5OTIgNi44MDYxNSAxMSA3LjI4MzQzIDExIDhDMTEgOC43MTY1NyAxMC45OTkyIDkuMTkzODUgMTAuOTY5MyA5LjU2MDU2QzEwLjk0MDMgOS45MTU2IDEwLjg4OSAxMC4wNzgxIDEwLjgzNjUgMTAuMTgxQzEwLjY5MjcgMTAuNDYzMiAxMC40NjMyIDEwLjY5MjcgMTAuMTgxIDEwLjgzNjVDMTAuMDc4MSAxMC44ODkgOS45MTU2IDEwLjk0MDMgOS41NjA1NiAxMC45NjkzQzkuMTkzODUgMTAuOTk5MiA4LjcxNjU3IDExIDggMTFDNy4yODM0MyAxMSA2LjgwNjE1IDEwLjk5OTIgNi40Mzk0NCAxMC45NjkzQzYuMDg0NCAxMC45NDAzIDUuOTIxOTQgMTAuODg5IDUuODE5MDIgMTAuODM2NUM1LjUzNjc3IDEwLjY5MjcgNS4zMDczIDEwLjQ2MzIgNS4xNjM0OSAxMC4xODFDNS4xMTEwNSAxMC4wNzgxIDUuMDU5NzUgOS45MTU2IDUuMDMwNzQgOS41NjA1NkM1LjAwMDc4IDkuMTkzODUgNSA4LjcxNjU3IDUgOEM1IDcuMjgzNDMgNS4wMDA3OCA2LjgwNjE1IDUuMDMwNzQgNi40Mzk0NEM1LjA1OTc1IDYuMDg0NCA1LjExMTA1IDUuOTIxOTQgNS4xNjM0OSA1LjgxOTAyQzUuMzA3MyA1LjUzNjc3IDUuNTM2NzcgNS4zMDczIDUuODE5MDIgNS4xNjM0OVpNOS43MjM0MyAxNS4wMzc0QzkuMjY1NTYgMTUgOC43MDYwMyAxNSA4LjA0MDE2IDE1SDcuOTU5ODRDNy4yOTM5NyAxNSA2LjczNDQ1IDE1IDYuMjc2NTcgMTUuMDM3NEM1Ljc5Nzg1IDE1LjA3NjUgNS4zNDI4OSAxNS4xNjE0IDQuOTExMDMgMTUuMzgxNUM0LjI1MjQ3IDE1LjcxNyAzLjcxNzA0IDE2LjI1MjUgMy4zODE0OCAxNi45MTFDMy4xNjE0NCAxNy4zNDI5IDMuMDc2NSAxNy43OTc5IDMuMDM3MzggMTguMjc2NkMyLjk5OTk3IDE4LjczNDQgMi45OTk5OSAxOS4yOTQgMyAxOS45NTk4VjE5Ljk1OThWMjAuMDQwMlYyMC4wNDAyQzIuOTk5OTkgMjAuNzA2MSAyLjk5OTk3IDIxLjI2NTYgMy4wMzczOCAyMS43MjM0QzMuMDc2NSAyMi4yMDIxIDMuMTYxNDQgMjIuNjU3MSAzLjM4MTQ4IDIzLjA4OUMzLjcxNzA0IDIzLjc0NzUgNC4yNTI0NyAyNC4yODMgNC45MTEwMyAyNC42MTg1QzUuMzQyODkgMjQuODM4NiA1Ljc5Nzg1IDI0LjkyMzUgNi4yNzY1NyAyNC45NjI2QzYuNzM0NDMgMjUgNy4yOTM5NCAyNSA3Ljk1OTc4IDI1SDcuOTU5ODFINy45NTk4NEg3Ljk1OTg3SDguMDQwMTRIOC4wNDAxNkg4LjA0MDE5SDguMDQwMjJDOC43MDYwNyAyNSA5LjI2NTU3IDI1IDkuNzIzNDMgMjQuOTYyNkMxMC4yMDIxIDI0LjkyMzUgMTAuNjU3MSAyNC44Mzg2IDExLjA4OSAyNC42MTg1QzExLjc0NzUgMjQuMjgzIDEyLjI4MyAyMy43NDc1IDEyLjYxODUgMjMuMDg5QzEyLjgzODYgMjIuNjU3MSAxMi45MjM1IDIyLjIwMjEgMTIuOTYyNiAyMS43MjM0QzEzIDIxLjI2NTYgMTMgMjAuNzA2IDEzIDIwLjA0MDFWMTkuOTU5OUMxMyAxOS4yOTQgMTMgMTguNzM0NSAxMi45NjI2IDE4LjI3NjZDMTIuOTIzNSAxNy43OTc5IDEyLjgzODYgMTcuMzQyOSAxMi42MTg1IDE2LjkxMUMxMi4yODMgMTYuMjUyNSAxMS43NDc1IDE1LjcxNyAxMS4wODkgMTUuMzgxNUMxMC42NTcxIDE1LjE2MTQgMTAuMjAyMSAxNS4wNzY1IDkuNzIzNDMgMTUuMDM3NFpNNS44MTkwMiAxNy4xNjM1QzUuOTIxOTQgMTcuMTExIDYuMDg0NCAxNy4wNTk3IDYuNDM5NDQgMTcuMDMwN0M2LjgwNjE1IDE3LjAwMDggNy4yODM0MyAxNyA4IDE3QzguNzE2NTcgMTcgOS4xOTM4NSAxNy4wMDA4IDkuNTYwNTYgMTcuMDMwN0M5LjkxNTYgMTcuMDU5NyAxMC4wNzgxIDE3LjExMSAxMC4xODEgMTcuMTYzNUMxMC40NjMyIDE3LjMwNzMgMTAuNjkyNyAxNy41MzY4IDEwLjgzNjUgMTcuODE5QzEwLjg4OSAxNy45MjE5IDEwLjk0MDMgMTguMDg0NCAxMC45NjkzIDE4LjQzOTRDMTAuOTk5MiAxOC44MDYyIDExIDE5LjI4MzQgMTEgMjBDMTEgMjAuNzE2NiAxMC45OTkyIDIxLjE5MzkgMTAuOTY5MyAyMS41NjA2QzEwLjk0MDMgMjEuOTE1NiAxMC44ODkgMjIuMDc4MSAxMC44MzY1IDIyLjE4MUMxMC42OTI3IDIyLjQ2MzIgMTAuNDYzMiAyMi42OTI3IDEwLjE4MSAyMi44MzY1QzEwLjA3ODEgMjIuODg5IDkuOTE1NiAyMi45NDAzIDkuNTYwNTYgMjIuOTY5M0M5LjE5Mzg1IDIyLjk5OTIgOC43MTY1NyAyMyA4IDIzQzcuMjgzNDMgMjMgNi44MDYxNSAyMi45OTkyIDYuNDM5NDQgMjIuOTY5M0M2LjA4NDQgMjIuOTQwMyA1LjkyMTk0IDIyLjg4OSA1LjgxOTAyIDIyLjgzNjVDNS41MzY3NyAyMi42OTI3IDUuMzA3MyAyMi40NjMyIDUuMTYzNDkgMjIuMTgxQzUuMTExMDUgMjIuMDc4MSA1LjA1OTc1IDIxLjkxNTYgNS4wMzA3NCAyMS41NjA2QzUuMDAwNzggMjEuMTkzOSA1IDIwLjcxNjYgNSAyMEM1IDE5LjI4MzQgNS4wMDA3OCAxOC44MDYyIDUuMDMwNzQgMTguNDM5NEM1LjA1OTc1IDE4LjA4NDQgNS4xMTEwNSAxNy45MjE5IDUuMTYzNDkgMTcuODE5QzUuMzA3MyAxNy41MzY4IDUuNTM2NzcgMTcuMzA3MyA1LjgxOTAyIDE3LjE2MzVaTTE4LjI3NjYgMTUuMDM3NEMxOC43MzQ0IDE1IDE5LjI5NCAxNSAxOS45NTk4IDE1SDIwLjA0MDJDMjAuNzA2IDE1IDIxLjI2NTYgMTUgMjEuNzIzNCAxNS4wMzc0QzIyLjIwMjEgMTUuMDc2NSAyMi42NTcxIDE1LjE2MTQgMjMuMDg5IDE1LjM4MTVDMjMuNzQ3NSAxNS43MTcgMjQuMjgzIDE2LjI1MjUgMjQuNjE4NSAxNi45MTFDMjQuODM4NiAxNy4zNDI5IDI0LjkyMzUgMTcuNzk3OSAyNC45NjI2IDE4LjI3NjZDMjUgMTguNzM0NCAyNSAxOS4yOTQgMjUgMTkuOTU5OFYxOS45NTk4VjE5Ljk1OTlWMjAuMDQwMVYyMC4wNDAyVjIwLjA0MDJDMjUgMjAuNzA2IDI1IDIxLjI2NTYgMjQuOTYyNiAyMS43MjM0QzI0LjkyMzUgMjIuMjAyMSAyNC44Mzg2IDIyLjY1NzEgMjQuNjE4NSAyMy4wODlDMjQuMjgzIDIzLjc0NzUgMjMuNzQ3NSAyNC4yODMgMjMuMDg5IDI0LjYxODVDMjIuNjU3MSAyNC44Mzg2IDIyLjIwMjEgMjQuOTIzNSAyMS43MjM0IDI0Ljk2MjZDMjEuMjY1NiAyNSAyMC43MDYgMjUgMjAuMDQwMiAyNUgyMC4wNDAySDIwLjA0MDFIMTkuOTU5OUgxOS45NTk4SDE5Ljk1OThDMTkuMjk0IDI1IDE4LjczNDQgMjUgMTguMjc2NiAyNC45NjI2QzE3Ljc5NzkgMjQuOTIzNSAxNy4zNDI5IDI0LjgzODYgMTYuOTExIDI0LjYxODVDMTYuMjUyNSAyNC4yODMgMTUuNzE3IDIzLjc0NzUgMTUuMzgxNSAyMy4wODlDMTUuMTYxNCAyMi42NTcxIDE1LjA3NjUgMjIuMjAyMSAxNS4wMzc0IDIxLjcyMzRDMTUgMjEuMjY1NiAxNSAyMC43MDYgMTUgMjAuMDQwMlYxOS45NTk4QzE1IDE5LjI5NCAxNSAxOC43MzQ0IDE1LjAzNzQgMTguMjc2NkMxNS4wNzY1IDE3Ljc5NzkgMTUuMTYxNCAxNy4zNDI5IDE1LjM4MTUgMTYuOTExQzE1LjcxNyAxNi4yNTI1IDE2LjI1MjUgMTUuNzE3IDE2LjkxMSAxNS4zODE1QzE3LjM0MjkgMTUuMTYxNCAxNy43OTc5IDE1LjA3NjUgMTguMjc2NiAxNS4wMzc0Wk0xOC40Mzk0IDE3LjAzMDdDMTguMDg0NCAxNy4wNTk3IDE3LjkyMTkgMTcuMTExIDE3LjgxOSAxNy4xNjM1QzE3LjUzNjggMTcuMzA3MyAxNy4zMDczIDE3LjUzNjggMTcuMTYzNSAxNy44MTlDMTcuMTExIDE3LjkyMTkgMTcuMDU5NyAxOC4wODQ0IDE3LjAzMDcgMTguNDM5NEMxNy4wMDA4IDE4LjgwNjIgMTcgMTkuMjgzNCAxNyAyMEMxNyAyMC43MTY2IDE3LjAwMDggMjEuMTkzOSAxNy4wMzA3IDIxLjU2MDZDMTcuMDU5NyAyMS45MTU2IDE3LjExMSAyMi4wNzgxIDE3LjE2MzUgMjIuMTgxQzE3LjMwNzMgMjIuNDYzMiAxNy41MzY4IDIyLjY5MjcgMTcuODE5IDIyLjgzNjVDMTcuOTIxOSAyMi44ODkgMTguMDg0NCAyMi45NDAzIDE4LjQzOTQgMjIuOTY5M0MxOC44MDYyIDIyLjk5OTIgMTkuMjgzNCAyMyAyMCAyM0MyMC43MTY2IDIzIDIxLjE5MzkgMjIuOTk5MiAyMS41NjA2IDIyLjk2OTNDMjEuOTE1NiAyMi45NDAzIDIyLjA3ODEgMjIuODg5IDIyLjE4MSAyMi44MzY1QzIyLjQ2MzIgMjIuNjkyNyAyMi42OTI3IDIyLjQ2MzIgMjIuODM2NSAyMi4xODFDMjIuODg5IDIyLjA3ODEgMjIuOTQwMyAyMS45MTU2IDIyLjk2OTMgMjEuNTYwNkMyMi45OTkyIDIxLjE5MzkgMjMgMjAuNzE2NiAyMyAyMEMyMyAxOS4yODM0IDIyLjk5OTIgMTguODA2MiAyMi45NjkzIDE4LjQzOTRDMjIuOTQwMyAxOC4wODQ0IDIyLjg4OSAxNy45MjE5IDIyLjgzNjUgMTcuODE5QzIyLjY5MjcgMTcuNTM2OCAyMi40NjMyIDE3LjMwNzMgMjIuMTgxIDE3LjE2MzVDMjIuMDc4MSAxNy4xMTEgMjEuOTE1NiAxNy4wNTk3IDIxLjU2MDYgMTcuMDMwN0MyMS4xOTM5IDE3LjAwMDggMjAuNzE2NiAxNyAyMCAxN0MxOS4yODM0IDE3IDE4LjgwNjIgMTcuMDAwOCAxOC40Mzk0IDE3LjAzMDdaTTIwLjA0MDIgM0gxOS45NTk4SDE5Ljk1OThDMTkuMjk0IDIuOTk5OTkgMTguNzM0NCAyLjk5OTk3IDE4LjI3NjYgMy4wMzczOEMxNy43OTc5IDMuMDc2NSAxNy4zNDI5IDMuMTYxNDQgMTYuOTExIDMuMzgxNDhDMTYuMjUyNSAzLjcxNzA0IDE1LjcxNyA0LjI1MjQ3IDE1LjM4MTUgNC45MTEwM0MxNS4xNjE0IDUuMzQyODkgMTUuMDc2NSA1Ljc5Nzg1IDE1LjAzNzQgNi4yNzY1N0MxNSA2LjczNDQ1IDE1IDcuMjkzOTcgMTUgNy45NTk4NFY4LjA0MDE2QzE1IDguNzA2MDMgMTUgOS4yNjU1NiAxNS4wMzc0IDkuNzIzNDNDMTUuMDc2NSAxMC4yMDIxIDE1LjE2MTQgMTAuNjU3MSAxNS4zODE1IDExLjA4OUMxNS43MTcgMTEuNzQ3NSAxNi4yNTI1IDEyLjI4MyAxNi45MTEgMTIuNjE4NUMxNy4zNDI5IDEyLjgzODYgMTcuNzk3OSAxMi45MjM1IDE4LjI3NjYgMTIuOTYyNkMxOC43MzQ1IDEzIDE5LjI5NCAxMyAxOS45NTk5IDEzSDIwLjA0MDFDMjAuNzA2IDEzIDIxLjI2NTYgMTMgMjEuNzIzNCAxMi45NjI2QzIyLjIwMjEgMTIuOTIzNSAyMi42NTcxIDEyLjgzODYgMjMuMDg5IDEyLjYxODVDMjMuNzQ3NSAxMi4yODMgMjQuMjgzIDExLjc0NzUgMjQuNjE4NSAxMS4wODlDMjQuODM4NiAxMC42NTcxIDI0LjkyMzUgMTAuMjAyMSAyNC45NjI2IDkuNzIzNDNDMjUgOS4yNjU1NiAyNSA4LjcwNjAzIDI1IDguMDQwMTZWOC4wNDAxNFY3Ljk1OTg3VjcuOTU5ODRDMjUgNy4yOTM5NyAyNSA2LjczNDQ0IDI0Ljk2MjYgNi4yNzY1N0MyNC45MjM1IDUuNzk3ODUgMjQuODM4NiA1LjM0Mjg5IDI0LjYxODUgNC45MTEwM0MyNC4yODMgNC4yNTI0NyAyMy43NDc1IDMuNzE3MDQgMjMuMDg5IDMuMzgxNDhDMjIuNjU3MSAzLjE2MTQ0IDIyLjIwMjEgMy4wNzY1IDIxLjcyMzQgMy4wMzczOEMyMS4yNjU2IDIuOTk5OTcgMjAuNzA2MSAyLjk5OTk5IDIwLjA0MDIgM0gyMC4wNDAyWk0xNy44MTkgNS4xNjM0OUMxNy45MjE5IDUuMTExMDUgMTguMDg0NCA1LjA1OTc1IDE4LjQzOTQgNS4wMzA3NEMxOC44MDYyIDUuMDAwNzggMTkuMjgzNCA1IDIwIDVDMjAuNzE2NiA1IDIxLjE5MzkgNS4wMDA3OCAyMS41NjA2IDUuMDMwNzRDMjEuOTE1NiA1LjA1OTc1IDIyLjA3ODEgNS4xMTEwNSAyMi4xODEgNS4xNjM0OUMyMi40NjMyIDUuMzA3MyAyMi42OTI3IDUuNTM2NzcgMjIuODM2NSA1LjgxOTAyQzIyLjg4OSA1LjkyMTk0IDIyLjk0MDMgNi4wODQ0IDIyLjk2OTMgNi40Mzk0NEMyMi45OTkyIDYuODA2MTUgMjMgNy4yODM0MyAyMyA4QzIzIDguNzE2NTcgMjIuOTk5MiA5LjE5Mzg1IDIyLjk2OTMgOS41NjA1NkMyMi45NDAzIDkuOTE1NiAyMi44ODkgMTAuMDc4MSAyMi44MzY1IDEwLjE4MUMyMi42OTI3IDEwLjQ2MzIgMjIuNDYzMiAxMC42OTI3IDIyLjE4MSAxMC44MzY1QzIyLjA3ODEgMTAuODg5IDIxLjkxNTYgMTAuOTQwMyAyMS41NjA2IDEwLjk2OTNDMjEuMTkzOSAxMC45OTkyIDIwLjcxNjYgMTEgMjAgMTFDMTkuMjgzNCAxMSAxOC44MDYyIDEwLjk5OTIgMTguNDM5NCAxMC45NjkzQzE4LjA4NDQgMTAuOTQwMyAxNy45MjE5IDEwLjg4OSAxNy44MTkgMTAuODM2NUMxNy41MzY4IDEwLjY5MjcgMTcuMzA3MyAxMC40NjMyIDE3LjE2MzUgMTAuMTgxQzE3LjExMSAxMC4wNzgxIDE3LjA1OTcgOS45MTU2IDE3LjAzMDcgOS41NjA1NkMxNy4wMDA4IDkuMTkzODUgMTcgOC43MTY1NyAxNyA4QzE3IDcuMjgzNDMgMTcuMDAwOCA2LjgwNjE1IDE3LjAzMDcgNi40Mzk0NEMxNy4wNTk3IDYuMDg0NCAxNy4xMTEgNS45MjE5NCAxNy4xNjM1IDUuODE5MDJDMTcuMzA3MyA1LjUzNjc3IDE3LjUzNjggNS4zMDczIDE3LjgxOSA1LjE2MzQ5WiIgY2xpcC1ydWxlPSJldmVub2RkIiBmaWxsLXJ1bGU9ImV2ZW5vZGQiLz4mI3hhOzwvc3ZnPg==;fontSize=16;fontFamily=VK Sans Display;" vertex="1" parent="1">
          <mxGeometry x="2747" y="529.5" width="53" height="53" as="geometry" />
        </mxCell>
        <mxCell id="UY1xDTAKK57Bm_KbD5Kl-19" value="Requests" style="endArrow=open;html=1;fontFamily=VK Sans Display;fontColor=#212121;rounded=1;strokeColor=#87D6E8;endFill=0;arcsize=8;startArrow=none;startFill=0;strokeWidth=2;labelBackgroundColor=#FFFFFF;textOpacity=70;verticalAlign=middle;spacing=8;fontSize=16;arcSize=8;exitX=1;exitY=0.5;exitDx=0;exitDy=0;entryX=0;entryY=0.5;entryDx=0;entryDy=0;" edge="1" parent="1" source="UY1xDTAKK57Bm_KbD5Kl-3" target="UY1xDTAKK57Bm_KbD5Kl-5">
          <mxGeometry x="-0.0943" width="50" height="50" relative="1" as="geometry">
            <mxPoint x="1617" y="-19" as="sourcePoint" />
            <mxPoint x="1803" y="-19" as="targetPoint" />
            <mxPoint as="offset" />
          </mxGeometry>
        </mxCell>
        <mxCell id="UY1xDTAKK57Bm_KbD5Kl-20" value="" style="endArrow=open;html=1;fontFamily=VK Sans Display;fontColor=#212121;rounded=1;strokeColor=#87D6E8;endFill=0;arcsize=8;startArrow=none;startFill=0;strokeWidth=2;labelBackgroundColor=#FFFFFF;textOpacity=70;verticalAlign=middle;spacing=8;fontSize=16;arcSize=8;exitX=1;exitY=0.25;exitDx=0;exitDy=0;entryX=0;entryY=0.5;entryDx=0;entryDy=0;" edge="1" parent="1" source="UY1xDTAKK57Bm_KbD5Kl-5" target="UY1xDTAKK57Bm_KbD5Kl-9">
          <mxGeometry width="50" height="50" relative="1" as="geometry">
            <mxPoint x="2018" y="-79" as="sourcePoint" />
            <mxPoint x="2018" y="11" as="targetPoint" />
            <Array as="points">
              <mxPoint x="2126" y="347" />
              <mxPoint x="2126" y="196" />
            </Array>
          </mxGeometry>
        </mxCell>
        <mxCell id="UY1xDTAKK57Bm_KbD5Kl-21" value="" style="endArrow=open;html=1;fontFamily=VK Sans Display;fontColor=#212121;rounded=1;strokeColor=#87D6E8;endFill=0;arcsize=8;startArrow=none;startFill=0;strokeWidth=2;labelBackgroundColor=#FFFFFF;textOpacity=70;verticalAlign=middle;spacing=8;fontSize=16;arcSize=8;exitX=1;exitY=0.75;exitDx=0;exitDy=0;entryX=0;entryY=0.5;entryDx=0;entryDy=0;" edge="1" parent="1" source="UY1xDTAKK57Bm_KbD5Kl-5" target="UY1xDTAKK57Bm_KbD5Kl-12">
          <mxGeometry width="50" height="50" relative="1" as="geometry">
            <mxPoint x="2018" y="381" as="sourcePoint" />
            <mxPoint x="2209" y="206" as="targetPoint" />
            <Array as="points">
              <mxPoint x="2126" y="367" />
              <mxPoint x="2126" y="446" />
            </Array>
          </mxGeometry>
        </mxCell>
        <mxCell id="UY1xDTAKK57Bm_KbD5Kl-22" value="Metrics push" style="endArrow=open;html=1;fontFamily=VK Sans Display;fontColor=#212121;rounded=1;strokeColor=#E188D0;endFill=0;arcsize=8;startArrow=none;startFill=0;strokeWidth=2;labelBackgroundColor=#FFFFFF;textOpacity=70;verticalAlign=middle;spacing=8;fontSize=16;arcSize=8;exitX=0;exitY=0.5;exitDx=0;exitDy=0;entryX=1;entryY=0.5;entryDx=0;entryDy=0;" edge="1" parent="1" source="UY1xDTAKK57Bm_KbD5Kl-2" target="UY1xDTAKK57Bm_KbD5Kl-7">
          <mxGeometry width="50" height="50" relative="1" as="geometry">
            <mxPoint x="2699" y="-82" as="sourcePoint" />
            <mxPoint x="2886" y="-149" as="targetPoint" />
          </mxGeometry>
        </mxCell>
        <mxCell id="UY1xDTAKK57Bm_KbD5Kl-23" value="" style="endArrow=open;html=1;fontFamily=VK Sans Display;fontColor=#212121;rounded=1;strokeColor=#E188D0;endFill=0;arcsize=8;startArrow=none;startFill=0;strokeWidth=2;labelBackgroundColor=#FFFFFF;textOpacity=70;verticalAlign=middle;spacing=8;fontSize=16;arcSize=8;exitX=0;exitY=0.25;exitDx=0;exitDy=0;entryX=1;entryY=0.5;entryDx=0;entryDy=0;" edge="1" parent="1" source="UY1xDTAKK57Bm_KbD5Kl-7" target="UY1xDTAKK57Bm_KbD5Kl-9">
          <mxGeometry width="50" height="50" relative="1" as="geometry">
            <mxPoint x="2488" y="-99" as="sourcePoint" />
            <mxPoint x="2488" y="-39" as="targetPoint" />
          </mxGeometry>
        </mxCell>
        <mxCell id="UY1xDTAKK57Bm_KbD5Kl-24" value="" style="endArrow=open;html=1;fontFamily=VK Sans Display;fontColor=#212121;rounded=1;strokeColor=#E188D0;endFill=0;arcsize=8;startArrow=none;startFill=0;strokeWidth=2;labelBackgroundColor=#FFFFFF;textOpacity=70;verticalAlign=middle;spacing=8;fontSize=16;arcSize=8;exitX=0;exitY=0.75;exitDx=0;exitDy=0;entryX=1;entryY=0.5;entryDx=0;entryDy=0;" edge="1" parent="1" source="UY1xDTAKK57Bm_KbD5Kl-7" target="UY1xDTAKK57Bm_KbD5Kl-12">
          <mxGeometry width="50" height="50" relative="1" as="geometry">
            <mxPoint x="2529" y="206" as="sourcePoint" />
            <mxPoint x="2329" y="206" as="targetPoint" />
            <Array as="points">
              <mxPoint x="2396" y="216" />
              <mxPoint x="2396" y="446" />
            </Array>
          </mxGeometry>
        </mxCell>
        <mxCell id="UY1xDTAKK57Bm_KbD5Kl-25" value="Metrics pull" style="endArrow=none;html=1;fontFamily=VK Sans Display;fontColor=#212121;rounded=1;strokeColor=#E188D0;endFill=0;arcsize=8;startArrow=open;startFill=0;strokeWidth=2;labelBackgroundColor=#FFFFFF;textOpacity=70;verticalAlign=middle;spacing=8;fontSize=16;arcSize=8;exitX=0;exitY=0.5;exitDx=0;exitDy=0;entryX=1;entryY=0.75;entryDx=0;entryDy=0;" edge="1" parent="1" source="UY1xDTAKK57Bm_KbD5Kl-18" target="UY1xDTAKK57Bm_KbD5Kl-17">
          <mxGeometry width="50" height="50" relative="1" as="geometry">
            <mxPoint x="2928.5" y="445.5" as="sourcePoint" />
            <mxPoint x="2768.5" y="445.5" as="targetPoint" />
          </mxGeometry>
        </mxCell>
        <mxCell id="UY1xDTAKK57Bm_KbD5Kl-26" value="Metrics push" style="endArrow=open;html=1;fontFamily=VK Sans Display;fontColor=#212121;rounded=1;strokeColor=#E188D0;endFill=0;arcsize=8;startArrow=none;startFill=0;strokeWidth=2;labelBackgroundColor=#FFFFFF;textOpacity=70;verticalAlign=middle;spacing=8;fontSize=16;arcSize=8;exitX=1;exitY=0.25;exitDx=0;exitDy=0;entryX=1;entryY=0.5;entryDx=0;entryDy=0;" edge="1" parent="1">
          <mxGeometry x="0.0526" y="-20" width="50" height="50" relative="1" as="geometry">
            <mxPoint x="2600" y="534.0000000000002" as="sourcePoint" />
            <mxPoint x="2600" y="491.28999999999996" as="targetPoint" />
            <Array as="points">
              <mxPoint x="2626" y="534" />
              <mxPoint x="2626" y="491" />
            </Array>
            <mxPoint as="offset" />
          </mxGeometry>
        </mxCell>
        <mxCell id="UY1xDTAKK57Bm_KbD5Kl-27" value="Metrics push" style="endArrow=open;html=1;fontFamily=VK Sans Display;fontColor=#212121;rounded=1;strokeColor=#E188D0;endFill=0;arcsize=8;startArrow=none;startFill=0;strokeWidth=2;labelBackgroundColor=#FFFFFF;textOpacity=70;verticalAlign=middle;spacing=8;fontSize=16;arcSize=8;exitX=0;exitY=0.75;exitDx=0;exitDy=0;entryX=0;entryY=0.5;entryDx=0;entryDy=0;" edge="1" parent="1" source="UY1xDTAKK57Bm_KbD5Kl-17" target="UY1xDTAKK57Bm_KbD5Kl-14">
          <mxGeometry x="0.4618" y="20" width="50" height="50" relative="1" as="geometry">
            <mxPoint x="2872" y="466" as="sourcePoint" />
            <mxPoint x="2872" y="413" as="targetPoint" />
            <Array as="points">
              <mxPoint x="2436" y="556" />
              <mxPoint x="2436" y="343" />
            </Array>
            <mxPoint as="offset" />
          </mxGeometry>
        </mxCell>
        <mxCell id="UY1xDTAKK57Bm_KbD5Kl-28" value="Data disk" style="shape=image;verticalLabelPosition=bottom;verticalAlign=top;imageAspect=0;aspect=fixed;image=data:image/svg+xml,PHN2ZyB4bWxucz0iaHR0cDovL3d3dy53My5vcmcvMjAwMC9zdmciIGZpbGw9Im5vbmUiIHZpZXdCb3g9IjAgMCAzNiAzNiIgaGVpZ2h0PSIzNiIgd2lkdGg9IjM2Ij4mI3hhOzxwYXRoIGZpbGw9IiMwMDg1RkYiIGQ9Ik0xMi4yMTI2IDAuNDExMjk5QzE2LjA1MTQgLTAuMTM3MSAxOS45NDg2IC0wLjEzNzEgMjMuNzg3NCAwLjQxMTNDMzAuNzY4NiAxLjQwODYgMzQuNTQzMyA0Ljg5NDkgMzUuNTg4NyAxMi4yMTI2QzM2LjEzNzEgMTYuMDUxNCAzNi4xMzcxIDE5Ljk0ODYgMzUuNTg4NyAyMy43ODc0QzM0LjU5MTQgMzAuNzY4NiAzMS4xMDUxIDM0LjU0MzMgMjMuNzg3NCAzNS41ODg3QzE5Ljk0ODYgMzYuMTM3MSAxNi4wNTE0IDM2LjEzNzEgMTIuMjEyNiAzNS41ODg3QzUuMjMxNDQgMzQuNTkxNCAxLjQ1NjY4IDMxLjEwNTEgMC40MTEyOTkgMjMuNzg3NEMtMC4xMzcxIDE5Ljk0ODYgLTAuMTM3MSAxNi4wNTE0IDAuNDExMyAxMi4yMTI2QzEuNDA4NiA1LjIzMTQ0IDQuODk0OSAxLjQ1NjY4IDEyLjIxMjYgMC40MTEyOTlaIi8+JiN4YTs8cGF0aCBmaWxsPSJ3aGl0ZSIgZD0iTTE5LjQyODIgMjIuNDUzMUMxOS40MjgyIDIyLjk5OTcgMTkuMDAxOCAyMy40NDI3IDE4LjQ3NTkgMjMuNDQyN0MxNy45NDk5IDIzLjQ0MjcgMTcuNTIzNSAyMi45OTk3IDE3LjUyMzUgMjIuNDUzMUMxNy41MjM1IDIxLjkwNjYgMTcuOTQ5OSAyMS40NjM1IDE4LjQ3NTkgMjEuNDYzNUMxOS4wMDE4IDIxLjQ2MzUgMTkuNDI4MiAyMS45MDY2IDE5LjQyODIgMjIuNDUzMVoiLz4mI3hhOzxwYXRoIGZpbGw9IndoaXRlIiBkPSJNMjIuMjg1NCAyMi40NTMxQzIyLjI4NTQgMjIuOTk5NyAyMS44NTkgMjMuNDQyNyAyMS4zMzMgMjMuNDQyN0MyMC44MDcgMjMuNDQyNyAyMC4zODA2IDIyLjk5OTcgMjAuMzgwNiAyMi40NTMxQzIwLjM4MDYgMjEuOTA2NiAyMC44MDcgMjEuNDYzNSAyMS4zMzMgMjEuNDYzNUMyMS44NTkgMjEuNDYzNSAyMi4yODU0IDIxLjkwNjYgMjIuMjg1NCAyMi40NTMxWiIvPiYjeGE7PHBhdGggZmlsbD0id2hpdGUiIGQ9Ik0yNC42NjYzIDE5Ljk3OTJDMjQuNjY2MyAyMC42MzIxIDI0LjY2NjMgMjEuMjA4OCAyNC42NTU3IDIxLjcyMDVDMjQuNjY2MyAyMS44ODg3IDI0LjY2NjMgMjIuMTA1IDI0LjY2NjMgMjIuNDUzMUMyNC42NjYzIDIyLjkxMjcgMjQuNjY2MyAyMy4xNDI1IDI0LjY0MTkgMjMuMzM1NEMyNC40NzMxIDI0LjY2NzYgMjMuNDY0MiAyNS43MTU5IDIyLjE4MjEgMjUuODkxM0MyMS45OTY1IDI1LjkxNjcgMjEuNzc1MyAyNS45MTY3IDIxLjMzMyAyNS45MTY3SDE0LjY2NjNDMTQuMjI0IDI1LjkxNjcgMTQuMDAyOSAyNS45MTY3IDEzLjgxNzIgMjUuODkxM0MxMi41MzUxIDI1LjcxNTkgMTEuNTI2MiAyNC42Njc2IDExLjM1NzUgMjMuMzM1NEMxMS4zMzMgMjMuMTQyNSAxMS4zMzMgMjIuOTEyNyAxMS4zMzMgMjIuNDUzMUMxMS4zMzMgMjIuMTA1IDExLjMzMyAyMS44ODg3IDExLjM0MzYgMjEuNzIwNUMxMS4zMzMgMjEuMjA4OCAxMS4zMzMgMjAuNjMyMSAxMS4zMzMgMTkuOTc5MlYxNi4wMjA4QzExLjMzMyAxMy4yMjE5IDExLjMzMyAxMS44MjI0IDEyLjE2OTggMTAuOTUyOUMxMy4wMDY3IDEwLjA4MzMgMTQuMzUzNiAxMC4wODMzIDE3LjA0NzMgMTAuMDgzM0gxOC45NTIxQzIxLjY0NTggMTAuMDgzMyAyMi45OTI3IDEwLjA4MzMgMjMuODI5NSAxMC45NTI5QzI0LjY2NjMgMTEuODIyNCAyNC42NjYzIDEzLjIyMTkgMjQuNjY2MyAxNi4wMjA4VjE5Ljk3OTJaTTE3LjA0NzMgMTEuNTY3N0gxOC45NTIxQzIwLjMzOTMgMTEuNTY3NyAyMS4yMzYgMTEuNTcwOSAyMS44OTY4IDExLjY2MzJDMjIuNTE2NCAxMS43NDk3IDIyLjcxMDYgMTEuODg5NSAyMi44MTk0IDEyLjAwMjVDMjIuOTI4MSAxMi4xMTU1IDIzLjA2MjYgMTIuMzE3MyAyMy4xNDU5IDEyLjk2MTFDMjMuMjM0NyAxMy42NDc2IDIzLjIzNzggMTQuNTc5NCAyMy4yMzc4IDE2LjAyMDhWMTkuMzg3MUMyMi45MTk5IDE5LjE5NjMgMjIuNTYzMSAxOS4wNjcxIDIyLjE4MjEgMTkuMDE1QzIxLjk5NjUgMTguOTg5NiAyMS43NzUzIDE4Ljk4OTYgMjEuMzMzIDE4Ljk4OTZIMTQuNjY2M0MxNC4yMjQgMTguOTg5NiAxNC4wMDI5IDE4Ljk4OTYgMTMuODE3MiAxOS4wMTVDMTMuNDM2MyAxOS4wNjcxIDEzLjA3OTQgMTkuMTk2MyAxMi43NjE2IDE5LjM4NzFWMTYuMDIwOEMxMi43NjE2IDE0LjU3OTQgMTIuNzY0NiAxMy42NDc2IDEyLjg1MzQgMTIuOTYxMUMxMi45MzY4IDEyLjMxNzMgMTMuMDcxMiAxMi4xMTU1IDEzLjE4IDEyLjAwMjVDMTMuMjg4NyAxMS44ODk1IDEzLjQ4MyAxMS43NDk3IDE0LjEwMjYgMTEuNjYzMkMxNC43NjMzIDExLjU3MDkgMTUuNjYgMTEuNTY3NyAxNy4wNDczIDExLjU2NzdaTTIzLjIyMDcgMjEuOTU4M0MyMy4yMjI2IDIxLjg5NTkgMjMuMjI0MyAyMS44MzE4IDIzLjIyNTggMjEuNzY2MkwyMy4yMjU1IDIxLjc2NDZDMjMuMTQxMiAyMS4wOTg1IDIyLjYzNjcgMjAuNTc0MyAyMS45OTU3IDIwLjQ4NjdDMjEuOTI2MiAyMC40NzcyIDIxLjgyMDcgMjAuNDc0IDIxLjMzMyAyMC40NzRIMTQuNjY2M0MxNC4xNzg2IDIwLjQ3NCAxNC4wNzMxIDIwLjQ3NzIgMTQuMDAzNyAyMC40ODY3QzEzLjM2MjYgMjAuNTc0MyAxMi44NTgyIDIxLjA5ODUgMTIuNzczOCAyMS43NjQ2TDEyLjc3MzYgMjEuNzY2MkMxMi43NzUxIDIxLjgzMTggMTIuNzc2OCAyMS44OTU5IDEyLjc3ODcgMjEuOTU4M0gxMi43NjRDMTIuNzYyMyAyMi4wNTg0IDEyLjc2MTYgMjIuMjEwMSAxMi43NjE2IDIyLjQ1MzFDMTIuNzYxNiAyMi45NTk5IDEyLjc2NDcgMjMuMDY5NSAxMi43NzM4IDIzLjE0MTdDMTIuODU4MiAyMy44MDc4IDEzLjM2MjYgMjQuMzMxOSAxNC4wMDM3IDI0LjQxOTZDMTQuMDczMSAyNC40MjkxIDE0LjE3ODYgMjQuNDMyMyAxNC42NjYzIDI0LjQzMjNIMjEuMzMzQzIxLjgyMDcgMjQuNDMyMyAyMS45MjYyIDI0LjQyOTEgMjEuOTk1NyAyNC40MTk2QzIyLjYzNjcgMjQuMzMxOSAyMy4xNDEyIDIzLjgwNzggMjMuMjI1NSAyMy4xNDE3QzIzLjIzNDcgMjMuMDY5NSAyMy4yMzc4IDIyLjk1OTkgMjMuMjM3OCAyMi40NTMxQzIzLjIzNzggMjIuMjEwMSAyMy4yMzcxIDIyLjA1ODQgMjMuMjM1MyAyMS45NTgzSDIzLjIyMDdaIiBjbGlwLXJ1bGU9ImV2ZW5vZGQiIGZpbGwtcnVsZT0iZXZlbm9kZCIvPiYjeGE7PC9zdmc+;fontSize=16;fontFamily=VK Sans Display;" vertex="1" parent="1">
          <mxGeometry x="2233.5" y="256" width="50" height="50" as="geometry" />
        </mxCell>
        <mxCell id="UY1xDTAKK57Bm_KbD5Kl-29" value="Data disk" style="shape=image;verticalLabelPosition=bottom;verticalAlign=top;imageAspect=0;aspect=fixed;image=data:image/svg+xml,PHN2ZyB4bWxucz0iaHR0cDovL3d3dy53My5vcmcvMjAwMC9zdmciIGZpbGw9Im5vbmUiIHZpZXdCb3g9IjAgMCAzNiAzNiIgaGVpZ2h0PSIzNiIgd2lkdGg9IjM2Ij4mI3hhOzxwYXRoIGZpbGw9IiMwMDg1RkYiIGQ9Ik0xMi4yMTI2IDAuNDExMjk5QzE2LjA1MTQgLTAuMTM3MSAxOS45NDg2IC0wLjEzNzEgMjMuNzg3NCAwLjQxMTNDMzAuNzY4NiAxLjQwODYgMzQuNTQzMyA0Ljg5NDkgMzUuNTg4NyAxMi4yMTI2QzM2LjEzNzEgMTYuMDUxNCAzNi4xMzcxIDE5Ljk0ODYgMzUuNTg4NyAyMy43ODc0QzM0LjU5MTQgMzAuNzY4NiAzMS4xMDUxIDM0LjU0MzMgMjMuNzg3NCAzNS41ODg3QzE5Ljk0ODYgMzYuMTM3MSAxNi4wNTE0IDM2LjEzNzEgMTIuMjEyNiAzNS41ODg3QzUuMjMxNDQgMzQuNTkxNCAxLjQ1NjY4IDMxLjEwNTEgMC40MTEyOTkgMjMuNzg3NEMtMC4xMzcxIDE5Ljk0ODYgLTAuMTM3MSAxNi4wNTE0IDAuNDExMyAxMi4yMTI2QzEuNDA4NiA1LjIzMTQ0IDQuODk0OSAxLjQ1NjY4IDEyLjIxMjYgMC40MTEyOTlaIi8+JiN4YTs8cGF0aCBmaWxsPSJ3aGl0ZSIgZD0iTTE5LjQyODIgMjIuNDUzMUMxOS40MjgyIDIyLjk5OTcgMTkuMDAxOCAyMy40NDI3IDE4LjQ3NTkgMjMuNDQyN0MxNy45NDk5IDIzLjQ0MjcgMTcuNTIzNSAyMi45OTk3IDE3LjUyMzUgMjIuNDUzMUMxNy41MjM1IDIxLjkwNjYgMTcuOTQ5OSAyMS40NjM1IDE4LjQ3NTkgMjEuNDYzNUMxOS4wMDE4IDIxLjQ2MzUgMTkuNDI4MiAyMS45MDY2IDE5LjQyODIgMjIuNDUzMVoiLz4mI3hhOzxwYXRoIGZpbGw9IndoaXRlIiBkPSJNMjIuMjg1NCAyMi40NTMxQzIyLjI4NTQgMjIuOTk5NyAyMS44NTkgMjMuNDQyNyAyMS4zMzMgMjMuNDQyN0MyMC44MDcgMjMuNDQyNyAyMC4zODA2IDIyLjk5OTcgMjAuMzgwNiAyMi40NTMxQzIwLjM4MDYgMjEuOTA2NiAyMC44MDcgMjEuNDYzNSAyMS4zMzMgMjEuNDYzNUMyMS44NTkgMjEuNDYzNSAyMi4yODU0IDIxLjkwNjYgMjIuMjg1NCAyMi40NTMxWiIvPiYjeGE7PHBhdGggZmlsbD0id2hpdGUiIGQ9Ik0yNC42NjYzIDE5Ljk3OTJDMjQuNjY2MyAyMC42MzIxIDI0LjY2NjMgMjEuMjA4OCAyNC42NTU3IDIxLjcyMDVDMjQuNjY2MyAyMS44ODg3IDI0LjY2NjMgMjIuMTA1IDI0LjY2NjMgMjIuNDUzMUMyNC42NjYzIDIyLjkxMjcgMjQuNjY2MyAyMy4xNDI1IDI0LjY0MTkgMjMuMzM1NEMyNC40NzMxIDI0LjY2NzYgMjMuNDY0MiAyNS43MTU5IDIyLjE4MjEgMjUuODkxM0MyMS45OTY1IDI1LjkxNjcgMjEuNzc1MyAyNS45MTY3IDIxLjMzMyAyNS45MTY3SDE0LjY2NjNDMTQuMjI0IDI1LjkxNjcgMTQuMDAyOSAyNS45MTY3IDEzLjgxNzIgMjUuODkxM0MxMi41MzUxIDI1LjcxNTkgMTEuNTI2MiAyNC42Njc2IDExLjM1NzUgMjMuMzM1NEMxMS4zMzMgMjMuMTQyNSAxMS4zMzMgMjIuOTEyNyAxMS4zMzMgMjIuNDUzMUMxMS4zMzMgMjIuMTA1IDExLjMzMyAyMS44ODg3IDExLjM0MzYgMjEuNzIwNUMxMS4zMzMgMjEuMjA4OCAxMS4zMzMgMjAuNjMyMSAxMS4zMzMgMTkuOTc5MlYxNi4wMjA4QzExLjMzMyAxMy4yMjE5IDExLjMzMyAxMS44MjI0IDEyLjE2OTggMTAuOTUyOUMxMy4wMDY3IDEwLjA4MzMgMTQuMzUzNiAxMC4wODMzIDE3LjA0NzMgMTAuMDgzM0gxOC45NTIxQzIxLjY0NTggMTAuMDgzMyAyMi45OTI3IDEwLjA4MzMgMjMuODI5NSAxMC45NTI5QzI0LjY2NjMgMTEuODIyNCAyNC42NjYzIDEzLjIyMTkgMjQuNjY2MyAxNi4wMjA4VjE5Ljk3OTJaTTE3LjA0NzMgMTEuNTY3N0gxOC45NTIxQzIwLjMzOTMgMTEuNTY3NyAyMS4yMzYgMTEuNTcwOSAyMS44OTY4IDExLjY2MzJDMjIuNTE2NCAxMS43NDk3IDIyLjcxMDYgMTEuODg5NSAyMi44MTk0IDEyLjAwMjVDMjIuOTI4MSAxMi4xMTU1IDIzLjA2MjYgMTIuMzE3MyAyMy4xNDU5IDEyLjk2MTFDMjMuMjM0NyAxMy42NDc2IDIzLjIzNzggMTQuNTc5NCAyMy4yMzc4IDE2LjAyMDhWMTkuMzg3MUMyMi45MTk5IDE5LjE5NjMgMjIuNTYzMSAxOS4wNjcxIDIyLjE4MjEgMTkuMDE1QzIxLjk5NjUgMTguOTg5NiAyMS43NzUzIDE4Ljk4OTYgMjEuMzMzIDE4Ljk4OTZIMTQuNjY2M0MxNC4yMjQgMTguOTg5NiAxNC4wMDI5IDE4Ljk4OTYgMTMuODE3MiAxOS4wMTVDMTMuNDM2MyAxOS4wNjcxIDEzLjA3OTQgMTkuMTk2MyAxMi43NjE2IDE5LjM4NzFWMTYuMDIwOEMxMi43NjE2IDE0LjU3OTQgMTIuNzY0NiAxMy42NDc2IDEyLjg1MzQgMTIuOTYxMUMxMi45MzY4IDEyLjMxNzMgMTMuMDcxMiAxMi4xMTU1IDEzLjE4IDEyLjAwMjVDMTMuMjg4NyAxMS44ODk1IDEzLjQ4MyAxMS43NDk3IDE0LjEwMjYgMTEuNjYzMkMxNC43NjMzIDExLjU3MDkgMTUuNjYgMTEuNTY3NyAxNy4wNDczIDExLjU2NzdaTTIzLjIyMDcgMjEuOTU4M0MyMy4yMjI2IDIxLjg5NTkgMjMuMjI0MyAyMS44MzE4IDIzLjIyNTggMjEuNzY2MkwyMy4yMjU1IDIxLjc2NDZDMjMuMTQxMiAyMS4wOTg1IDIyLjYzNjcgMjAuNTc0MyAyMS45OTU3IDIwLjQ4NjdDMjEuOTI2MiAyMC40NzcyIDIxLjgyMDcgMjAuNDc0IDIxLjMzMyAyMC40NzRIMTQuNjY2M0MxNC4xNzg2IDIwLjQ3NCAxNC4wNzMxIDIwLjQ3NzIgMTQuMDAzNyAyMC40ODY3QzEzLjM2MjYgMjAuNTc0MyAxMi44NTgyIDIxLjA5ODUgMTIuNzczOCAyMS43NjQ2TDEyLjc3MzYgMjEuNzY2MkMxMi43NzUxIDIxLjgzMTggMTIuNzc2OCAyMS44OTU5IDEyLjc3ODcgMjEuOTU4M0gxMi43NjRDMTIuNzYyMyAyMi4wNTg0IDEyLjc2MTYgMjIuMjEwMSAxMi43NjE2IDIyLjQ1MzFDMTIuNzYxNiAyMi45NTk5IDEyLjc2NDcgMjMuMDY5NSAxMi43NzM4IDIzLjE0MTdDMTIuODU4MiAyMy44MDc4IDEzLjM2MjYgMjQuMzMxOSAxNC4wMDM3IDI0LjQxOTZDMTQuMDczMSAyNC40MjkxIDE0LjE3ODYgMjQuNDMyMyAxNC42NjYzIDI0LjQzMjNIMjEuMzMzQzIxLjgyMDcgMjQuNDMyMyAyMS45MjYyIDI0LjQyOTEgMjEuOTk1NyAyNC40MTk2QzIyLjYzNjcgMjQuMzMxOSAyMy4xNDEyIDIzLjgwNzggMjMuMjI1NSAyMy4xNDE3QzIzLjIzNDcgMjMuMDY5NSAyMy4yMzc4IDIyLjk1OTkgMjMuMjM3OCAyMi40NTMxQzIzLjIzNzggMjIuMjEwMSAyMy4yMzcxIDIyLjA1ODQgMjMuMjM1MyAyMS45NTgzSDIzLjIyMDdaIiBjbGlwLXJ1bGU9ImV2ZW5vZGQiIGZpbGwtcnVsZT0iZXZlbm9kZCIvPiYjeGE7PC9zdmc+;fontSize=16;fontFamily=VK Sans Display;" vertex="1" parent="1">
          <mxGeometry x="2233.5" y="506" width="50" height="50" as="geometry" />
        </mxCell>
        <mxCell id="UY1xDTAKK57Bm_KbD5Kl-30" value="" style="endArrow=open;html=1;fontFamily=VK Sans Display;fontColor=#212121;rounded=0;strokeColor=#7C8A9A;endFill=0;strokeWidth=2;arcSize=8;exitX=0.5;exitY=1;exitDx=0;exitDy=0;entryX=0.5;entryY=0;entryDx=0;entryDy=0;" edge="1" parent="1" source="UY1xDTAKK57Bm_KbD5Kl-12" target="UY1xDTAKK57Bm_KbD5Kl-29">
          <mxGeometry width="50" height="50" relative="1" as="geometry">
            <mxPoint x="2186" y="480" as="sourcePoint" />
            <mxPoint x="2186" y="520" as="targetPoint" />
          </mxGeometry>
        </mxCell>
      </root>
    </mxGraphModel>
  </diagram>
</mxfile>
